<svg width="324" height="297" viewBox="0 0 324 297" fill="none" xmlns="http://www.w3.org/2000/svg">
	<path d="M6.2097 281.567C7.47382 280.639 8.8703 279.634 10.3325 278.582C12.2768 277.184 14.3383 275.7 16.3627 274.246C18.1287 272.977 19.8671 271.734 21.4663 270.61C22.3646 269.977 22.5894 270.073 22.847 270.105C23.022 270.126 23.2123 270.116 23.6413 269.824C25.6274 268.474 27.242 266.871 29.2442 265.525C29.335 265.464 29.4267 265.403 29.5192 265.343C30.2275 264.887 29.9333 266.193 30.6637 265.701C32.6068 264.392 34.5092 262.964 36.3506 261.599C38.2348 260.202 40.0925 258.779 42.0619 257.386C45.283 255.106 48.4855 252.782 51.6417 250.431C56.7061 246.66 61.6776 242.801 66.5667 238.836C71.4454 234.88 76.2409 230.818 80.9591 226.634C85.6368 222.485 90.2393 218.216 94.7713 213.81C95.0722 213.517 95.3729 213.224 95.6733 212.93C99.5322 209.158 104.097 204.929 108.189 200.566C109.975 198.664 111.672 196.74 113.187 194.833C113.769 194.099 112.846 194.04 112.916 193.866C114.014 191.159 114.544 192.825 115.871 191.567C117.519 189.997 119.159 188.292 120.759 186.505C124.253 182.603 127.474 178.434 130.219 174.493C131.914 172.047 128.951 173.545 131.405 171.649C131.574 171.516 131.748 172.59 132.303 171.987C132.984 171.247 133.876 170.059 134.689 168.944C135.381 167.995 136.017 167.1 136.428 166.583C138.152 164.418 138.413 164.04 139.94 161.916C142.029 159.013 144.781 155.739 146.794 152.46C147.222 151.76 145.949 152.206 146.569 151.049C146.689 150.826 146.859 150.541 147.061 150.22C147.912 148.874 149.325 146.89 149.972 146.189C150.774 145.32 151.025 146.082 151.26 145.99C153.221 145.243 153.997 140.955 154.236 140.501C155.974 137.308 157.786 134.404 159.621 131.602C162.541 127.142 165.522 122.943 168.295 118.277C169.401 116.414 170.496 114.488 171.577 112.547C173.845 108.479 176.051 104.345 178.195 100.592C179.733 97.905 181.218 95.4083 182.673 92.9494C184.791 89.3671 186.846 85.8646 188.877 81.9782C189.238 81.2871 187.975 81.6483 188.415 80.8039C189.819 78.1077 191.228 75.416 192.654 72.7312C194.64 68.9932 196.735 65.3066 198.846 61.7065C200.305 59.2201 201.78 56.7654 203.276 54.3153C203.802 53.4537 203.93 54.9895 204.5 54.15C205.058 53.3218 205.669 52.4379 206.307 51.4889C208.621 48.0662 211.176 43.9507 211.984 40.3859C212.346 38.8021 212.365 37.3363 211.889 36.1059C213.047 33.7162 214.291 30.9824 215.514 28.476C216.19 27.0932 216.86 25.7857 217.526 24.645C218.721 22.5609 218.862 25.0195 219.391 22.1355C219.505 21.4829 218.498 22.0595 218.721 21.1057C219.024 19.7895 219.374 18.4293 219.702 17.0734C220.367 14.3372 220.957 11.4966 221.006 8.93933C221.018 8.1487 220.286 8.29143 220.185 8.06068C219.842 7.27241 219.98 6.27323 220.238 5.32435C220.238 5.32435 220.238 5.32435 220.238 5.32435C221.204 1.74446 218.75 8.50685 227.492 6.12346C227.57 5.62465 226.486 7.22056 226.063 8.04549C224.969 10.0566 224.192 12.1536 223.43 14.3148C223 15.541 222.575 16.8019 222.1 18.1454C221.703 19.273 223.064 18.2494 222.715 19.3461C222.516 19.9677 222.316 20.5904 222.115 21.2127C221.404 23.4087 220.672 25.6248 219.917 27.8282C219.155 30.0533 218.376 32.2424 217.57 34.4055C217.304 35.1216 217.051 35.7841 216.781 36.4925C216.314 37.6989 215.882 36.3322 215.621 36.8927C214.824 38.633 215.191 39.6861 215.159 40.9392C215.141 41.5135 215.04 42.1375 214.715 42.9005C214.496 43.4207 213.916 42.9258 213.815 43.0032C212.224 44.2145 213.476 46.0161 213.401 46.4207C213.03 48.497 212.391 50.1817 211.689 51.7771C210.651 54.1354 209.474 56.3016 208.845 59.2433C208.721 59.8333 209.918 58.747 209.518 60.3912C209.323 61.1965 209.126 62.0045 208.926 62.8151C208.03 66.4566 207.089 70.1476 206.116 73.8405C205.148 77.5167 204.149 81.1948 203.13 84.8272C202.299 87.7866 201.455 90.7157 200.602 93.5883C200.109 95.2567 199.743 93.9014 199.639 93.9895C199.053 94.5106 198.857 95.0391 198.845 95.5278C198.822 96.4025 199.386 97.1507 199.346 97.514C198.926 101.014 197.429 104.084 197.451 106.894C197.451 106.894 197.451 106.894 197.451 106.894C197.456 107.666 197.575 108.417 197.861 109.151C196.74 113.5 195.707 117.854 194.736 122.205C193.609 127.255 192.566 132.303 191.564 137.341C190.559 142.391 189.596 147.43 188.63 152.459C187.872 156.404 187.113 160.344 186.33 164.294C186.285 164.528 185.493 164.022 185.409 164.49C185.167 165.826 185.072 166.793 185.079 167.54C185.11 169.943 186.143 170.074 187.192 172.981C187.533 173.929 185.501 176.706 185.359 176.967C184.813 177.88 183.594 176.88 183.485 177.189C182.636 179.775 186.751 179.43 186.754 182.847C186.748 182.955 185.987 182.507 185.913 182.796C185.901 182.843 185.891 182.889 185.882 182.935C185.713 183.791 185.984 184.63 185.757 185.471C185.21 187.49 183.222 188.326 184.574 191.362C184.756 191.741 187.027 190.998 187.16 194.03C187.189 194.648 187.339 196.328 187.528 198.056C187.528 198.056 187.528 198.056 187.528 198.056C187.711 199.761 187.913 201.419 187.949 202.179C188.02 203.687 187.123 202.776 187.106 202.885C186.762 207.087 186.112 205.594 185.03 207.932C183.984 210.274 187.317 209.018 187.867 209.76C188.037 209.987 188.138 210.434 188.197 210.963C188.33 212.175 188.273 213.839 188.214 214.389C188.127 215.185 187.426 214.403 187.44 215.09C187.615 219.638 189.636 216.468 190.569 217.672C191.964 219.402 191.887 221.265 191.896 223.198C191.903 224.371 191.937 225.548 192.341 226.656C192.631 227.442 192.879 226.576 193.244 227.218C194.71 229.731 194.865 231.711 197.317 234.085C197.394 234.158 197.556 234.265 197.77 234.403C198.686 235.009 200.519 236.068 200.679 237.714C200.708 238.008 199.757 237.881 200.444 238.931C201.458 240.512 203.721 243.059 205.381 244.23C205.478 244.3 205.563 244.352 205.64 244.389C206.52 244.808 206.129 243.302 207.206 244.638C207.74 245.283 206.16 244.77 207.214 245.948C208.24 247.142 211.512 249.5 212.809 250.281C214.106 251.094 213.836 249.953 213.971 249.977C214.462 250.059 215.718 250.57 216.626 250.935C217.146 251.146 217.557 251.319 217.637 251.366C221.128 253.308 224.485 255.015 228.061 256.663C228.061 256.663 228.061 256.663 228.061 256.663C230.388 257.727 232.664 258.636 234.869 259.074C237.134 259.524 239.098 259.297 239.591 257.837C240.249 256.197 239.773 253.627 238.989 251.346C238.683 250.453 238.313 249.548 237.897 248.652C237.487 247.781 236.956 248.711 236.885 248.581C235.194 245.749 238.361 247.157 237.994 244.671C237.182 245.306 236.729 245.096 236.231 244.419C235.874 243.934 235.491 243.21 234.926 242.389C234.268 241.445 234.005 242.327 233.893 242.27C232.169 241.354 232.651 239.694 232.705 239.281C232.792 238.704 232.583 238.288 232.306 237.943C231.881 237.414 231.287 237.05 231.342 236.438C231.417 235.426 233.275 236.308 231.872 234.428C230.993 234.295 230.708 236.601 229.474 235.413C228.655 234.639 227.841 233.796 226.868 232.851C226.868 232.851 226.868 232.851 226.868 232.851C224.442 230.503 221.8 227.578 219.331 224.847C216.796 222.037 214.453 219.446 212.854 217.874C212.478 217.504 212.125 217.161 211.793 216.841C208.762 213.935 207.457 212.889 205.482 210.902C204.783 210.203 204.227 209.701 203.772 209.336C201.632 207.635 201.74 208.888 199.25 207.439C196.21 205.704 199.355 204.44 199.362 203.628C199.366 202.821 198.535 203.001 198.263 202.346C197.989 201.692 199.312 202.17 198.242 201.176C197.949 200.905 197.451 200.595 196.861 200.296C195.289 199.491 193.077 198.789 192.493 198.967C190.793 199.49 191.377 201.698 188.594 199.115C188.433 198.967 189.456 198.728 188.815 198.19C187.983 197.499 187.13 196.825 186.259 196.166C183.357 193.969 180.291 191.96 177.166 190.034C175.46 188.983 173.759 187.937 172.08 186.885C171.301 186.396 172.426 186.006 171.978 185.714C170.994 185.075 170.267 184.677 169.69 184.435C167.512 183.537 167.65 184.918 164.941 185.046C166.474 183.402 165.548 181.441 161.632 179.725C161.627 179.723 161.622 179.721 161.617 179.719C159.254 178.711 159.298 179.758 157.528 179.764C157.002 179.768 155.548 178.526 155.087 178.834C153.703 179.765 154.471 181.592 151.6 180.298C151.365 180.194 151.104 180.071 150.815 179.927C150.647 179.84 151.457 179.268 150.856 179.024C147.344 177.65 146.245 178.598 142.959 178.281C142.581 178.249 142.175 178.205 141.734 178.145C139.816 177.882 137.103 177.258 134.381 176.982C132.315 176.759 130.21 176.757 128.647 176.996C128.412 175.487 126.838 175.419 125.505 176.235C125.505 176.235 125.505 176.235 125.505 176.235C124.721 176.706 124.159 177.494 124.081 178.251C123.734 178.431 123.399 178.64 123.086 178.873C122.266 179.48 121.588 180.26 121.054 181.134C120.648 181.795 120.322 182.507 120.046 183.231C119.79 183.946 119.222 183.312 119.126 183.383C118.941 183.539 118.802 183.708 118.702 183.876C117.981 185.15 119.267 186.141 119.333 186.558C119.375 186.861 119.422 187.16 119.474 187.454C119.681 188.636 119.951 189.761 120.293 190.844C120.663 191.999 121.063 193.008 121.645 194.08C122.805 196.177 124.273 197.88 126.433 199.133C126.71 199.292 126.999 199.442 127.295 199.578C127.497 199.667 128.684 198.494 129.194 200.296C129.244 200.425 127.25 200.066 129.456 201.529C130.2 201.998 131.148 202.643 132.264 203.285C134.242 204.437 136.784 205.543 139.15 205.864C139.468 205.909 139.783 205.939 140.092 205.955C141.05 206.017 143.565 205.196 145.199 206.567C145.419 206.754 145.064 207.182 145.374 207.51C145.704 207.852 146.027 207.913 146.349 207.899C147.019 207.868 147.663 207.507 148.456 208.604C149.324 209.806 151.09 210.917 153.6 211.135C154.48 211.212 155.459 211.179 156.508 211C156.637 210.981 157.673 209.709 158.897 209.816C159.621 209.879 160.455 209.98 161.311 210.088C162.804 210.275 164.398 210.468 165.703 210.516C166.69 210.551 166.098 209.688 166.27 209.68C172.887 209.438 177.559 210.164 184.684 210.153C185.577 210.151 187.58 209.515 189.568 209.324C190.484 209.237 191.4 209.245 192.216 209.461C195.064 210.189 192.585 214.594 198.927 212.941C201.51 212.253 204.033 206.689 208.981 208.66C211.97 207.963 214.909 207.462 217.829 206.982C223.465 206.054 229.066 205.204 234.661 203.141C235.045 203 235.919 201.274 236.837 201.053C238.203 200.728 239.126 201.184 240.109 200.963C241.884 200.571 243.554 200.04 245.19 199.475C247.349 198.73 249.45 197.924 251.669 197.287C253.15 196.858 252.847 197.693 254.615 197.172C256.382 196.645 257.258 195.386 259.761 195.018C261.65 194.741 264.054 195.92 266.501 195.288C265.966 193.493 267.603 192.961 270.297 191.445C270.814 191.152 269.999 190.759 270.232 190.589C270.731 190.216 271.292 190.08 271.84 189.928C272.325 189.793 272.801 189.644 273.21 189.306C273.423 189.132 273.209 188.531 273.369 188.355C274.72 186.841 278.007 187.102 278.577 187.145C280.75 187.31 281.298 186.196 282.833 185.981C284.368 185.763 282.457 187.041 284.173 186.59C287.732 185.654 292.021 183.736 295.429 182.282C296.789 181.697 295.522 181.32 295.709 181.218C296.588 180.758 297.515 180.402 298.397 180.054C300.236 179.328 301.887 178.63 302.453 177.112C306.197 180.227 303.955 175.969 308.273 174.931C308.613 174.85 309.892 176.544 308.821 177.38C307.749 178.215 305.649 178.471 304.177 179.662C303.831 179.944 302.352 182.745 302.084 182.992C301.292 183.734 300.565 183.796 299.961 183.584C298.991 183.244 298.338 182.2 298.216 182.139C296.013 181.104 294.064 184.231 293.376 184.681C290.256 186.739 287.199 187.535 284.527 189.129C282.775 190.166 283.342 192.126 281.841 192.654C278.292 193.896 275.881 193.235 273.433 194.196C272.434 194.587 271.426 195.245 270.316 196.406C269.491 197.259 271.244 198.999 267.04 198.64C266.773 198.62 263.569 198.049 262.341 199.53C262.186 199.716 262.4 200.327 262.159 200.466C260.538 201.384 259.218 201.279 257.399 202.128C255.579 202.977 253.398 204.05 251.151 204.501C249.796 204.776 247.765 204.118 247.056 204.016C246.865 203.988 246.679 203.979 246.498 203.986C244.761 204.049 243.385 205.53 242.136 204.906C240.753 204.212 242.497 202.108 239.427 202.25C239.757 203.902 239.957 205.635 240.218 207.315C233.751 208.982 227.233 209.956 220.679 211.33C219.866 211.501 220.876 212.224 220.005 212.43C219.638 212.516 219.273 212.593 218.911 212.662C215.649 213.284 212.588 213.309 209.146 214.071C206.184 214.73 203.009 216.124 199.861 216.726C197.793 215.11 193.466 216.085 190.073 216.212C189.936 216.217 189.801 216.221 189.667 216.224C188.466 216.248 188.512 215.728 187.652 215.616C184.413 215.187 186.007 216.793 185.139 217.109C181.383 218.426 180.914 214.602 176.498 214.773C176.273 214.785 173.374 216.849 172.958 216.968C170.385 217.78 172.543 216.254 170.952 216.084C168.051 215.758 166.079 215.209 162.693 215.63C162.294 215.68 161.661 215.895 160.928 216.058C159.869 216.299 158.555 216.429 157.459 215.757C157.216 215.61 157.405 214.944 157.205 214.889C155.057 214.331 154.089 214.839 153.186 215.459C152.568 215.875 151.999 216.342 151.095 216.536C149.005 217 146.076 215.318 145.24 214.654C145.183 214.61 145.135 214.571 145.097 214.537C144.244 213.796 144.724 213.786 145.361 213.917C145.912 214.03 146.583 214.24 146.635 214.197C147.512 213.455 146.698 213.158 145.527 212.906C144.957 212.783 144.302 212.669 143.711 212.523C143.823 210.432 141.326 210.042 141.842 212.048C141.906 212.272 143.364 212.366 143.711 212.523C142.069 213.965 139.661 213.956 137.382 212.267C136.943 211.94 136.511 211.552 136.099 211.102C134.92 209.758 136.581 209.326 132.207 208.072C130.872 207.643 130.511 208.22 129.83 208.525C129.5 208.669 129.094 208.745 128.47 208.577C126.248 207.974 123.961 206.461 121.964 204.544C120.037 202.717 118.302 200.379 116.891 198.403C115.918 197.012 116.12 198.819 115.446 197.874C115.422 197.839 115.399 197.804 115.375 197.769C114.493 196.487 113.771 194.642 113.371 193.131C112.956 191.616 112.662 190.078 112.333 188.392C112.28 188.116 111.743 188.717 111.504 188.21C111.461 188.118 111.429 187.99 111.413 187.813C111.264 186.104 111.332 184.366 111.659 182.628C112.023 180.698 112.72 178.758 113.806 176.967C114.89 175.171 116.373 173.556 118.093 172.318C119.61 171.174 121.949 170.118 123.458 169.718C123.458 169.718 123.458 169.718 123.458 169.718C124.546 169.401 125.754 169.104 127.089 168.853C129.18 168.453 131.764 168.079 134.425 167.995C136.955 167.905 139.427 168.068 141.202 168.365C142.377 168.559 143.581 168.831 144.789 169.16C148.049 170.047 151.288 171.355 154.188 172.527C155.94 173.234 157.577 173.89 159.057 174.369C162.196 175.41 161.831 174.394 163.364 174.423C163.536 174.427 163.71 174.444 163.886 174.472C166.774 174.921 169.928 178.366 170.325 178.886C170.341 178.899 167.723 177.862 168.894 178.891C169.293 180.06 170.29 178.874 170.325 178.886C170.43 179.013 171.096 179.412 171.96 179.903C173.581 180.818 175.874 182.071 176.556 182.32C177.129 182.528 177.199 181.68 177.491 181.802C178.641 182.285 179.78 182.788 180.879 183.293C184.31 184.873 187.812 186.835 191.01 188.941C193.106 190.32 195.138 191.798 197.103 193.368C197.203 193.459 196.527 194.048 196.767 194.255C197.806 195.157 198.792 195.867 199.759 196.469C201.9 197.803 203.961 198.607 206.184 199.851C207.576 200.632 208.752 201.462 209.687 202.357C210.915 203.532 211.728 204.817 212.076 206.256C213.724 207.512 215.53 209.612 216.883 211.349C217.312 211.898 217.696 212.41 218.021 212.847C219.365 214.665 220.759 213.654 220.926 213.765C223.076 215.202 224.643 216.608 226.05 218.081C228.031 220.157 229.703 222.375 232.207 225.096C232.579 225.502 233.026 225.971 233.521 226.479C233.521 226.479 233.521 226.479 233.521 226.479C235.402 228.399 237.624 231.171 239.181 233.27C239.781 234.077 240.302 234.8 240.754 235.44C242.092 237.34 242.641 238.817 243.613 240.515C243.807 240.857 244.017 241.209 244.251 241.578C244.441 241.877 244.956 241.218 245.031 241.301C247.16 243.593 244.848 243.096 244.814 243.785C244.673 245.774 244.592 247.059 245.398 249.259C245.619 249.886 245.884 250.53 246.218 251.377C246.54 252.149 249.896 254.69 249.702 257.919C249.561 259.825 249.095 260.569 248.688 261.221C248.129 261.923 247.933 262.627 245.959 265.104C245.594 265.366 246.221 266.156 243.076 267.974C238.69 269.96 235.867 269.406 233.433 269.112C229.669 268.455 226.631 267.184 224.148 266.123C224.148 266.123 224.148 266.123 224.148 266.123C222.657 265.474 221.204 264.827 219.679 264.137C218.911 263.785 219.506 265.097 218.384 264.595C215.848 263.448 213.365 262.175 210.903 260.687C208.119 259.005 205.435 257.07 203.114 254.996C202.046 254.029 203.162 254.065 203.037 253.722C202.484 252.189 200.65 251.563 199.57 251.183C199.19 251.052 198.907 250.958 198.815 250.886C194.765 247.708 191.822 244.022 189.384 240.149C186.821 236.059 184.779 231.751 182.508 226.938C182.413 226.735 182.317 226.531 182.222 226.329C181.954 225.851 178.695 222.144 179.679 219.783C179.732 219.599 180.748 217.346 179.274 215.972C179.183 215.883 178.669 217.253 178.247 215.2C178.136 214.64 177.955 213.975 177.771 213.284C177.272 211.414 176.72 209.157 177.028 207C177.156 206.041 178.402 203.728 176.804 201.325C176.754 201.255 176.028 200.472 175.431 199.472C175.431 199.472 175.431 199.472 175.431 199.472C174.715 198.283 174.195 196.753 175.206 195.848C175.517 195.573 177.615 195.642 176.304 192.573C176.054 191.979 175.657 193.122 175.259 191.531C174.66 189.12 175.083 185.965 174.181 183.018C174.168 182.975 174.155 182.933 174.141 182.891C173.969 182.378 172.535 180.129 173.662 178.361C173.838 178.086 174.53 178.628 174.631 177.694C175.023 174.106 174.978 170.38 175.43 166.746C175.537 165.89 175.67 165.04 175.843 164.2C176.166 162.644 177.219 163.557 177.69 161.963C178.159 160.366 178.84 157.151 178.555 155.397C178.269 153.638 176.214 155.243 176.426 152.678C176.484 152.003 176.55 151.331 176.624 150.66C177.211 145.327 178.288 140.121 179.504 134.991C180.665 130.094 181.954 125.262 183.081 120.406C183.163 120.05 183.18 119.835 183.162 119.688C183.102 119.186 182.638 119.477 183.021 117.682C183.803 114.004 184.743 109.204 185.771 104.357C185.771 104.357 185.771 104.357 185.771 104.357C186.591 100.485 187.511 96.5496 188.49 93.1708C189.152 90.8804 189.844 88.8326 190.551 87.1996C193.02 81.5222 192.085 89.1737 193.588 84.7503C193.82 84.0685 193.826 83.3144 193.729 82.5849C193.522 81.0322 192.85 79.5913 192.893 79.2217C193.248 76.0152 194.048 73.5207 194.822 71.0165C195.329 69.3734 195.826 67.7258 196.184 65.8662C196.37 64.8967 195.302 65.6212 195.47 64.7979C195.818 63.0761 196.377 61.3516 196.904 59.6624C197.238 58.5903 197.56 57.5321 197.807 56.4969C198.091 55.3003 197.402 55.3506 197.744 54.27C198.384 52.2282 199.077 50.4029 199.976 48.5539C200.217 48.0601 200.472 47.5644 200.745 47.0626C200.863 46.8461 201.213 48.6245 201.777 46.7042C202.546 44.0792 203.872 41.0001 204.524 37.8659C204.63 37.3383 204.754 36.6797 204.814 36.1386C204.962 34.9842 203.535 34.5324 205.224 32.5225C205.542 32.1401 206.779 33.0112 206.586 31.0071C206.566 30.748 206.516 30.4695 206.444 30.125C206.354 29.6643 205.9 25.8771 207.042 23.6664C207.232 23.2952 207.465 22.9762 207.75 22.7227C208.275 22.2537 210.149 21.2412 210.354 19.8994C210.377 19.715 209.385 20.1538 209.663 19.0734C209.829 18.4403 210.007 17.8059 210.195 17.166C210.863 14.8946 211.639 12.6173 212.412 10.2825C212.72 9.35146 213.043 8.36944 213.343 7.42187C213.69 6.33596 212.304 7.60988 212.846 6.01257C213.199 4.98981 213.605 3.91906 214.104 2.76627C200.057 -1.45561 250.215 -0.927304 234.589 6.10022C234.589 6.10048 234.589 6.10031 234.589 6.10035C234.454 7.54916 234.245 9.04479 233.992 10.4588C233.648 12.2951 233.138 10.9264 233.046 11.0562C231.545 13.0128 232.933 14.4225 232.897 15.1323C232.787 17.0377 232.391 18.6799 231.922 20.214C231.335 22.1248 230.631 23.8893 230.108 25.9093C229.844 26.9079 230.813 26.4522 230.816 26.6693C230.793 28.9246 229.961 26.9642 229.383 28.1979C228.656 29.7267 227.967 31.3485 227.302 32.9834C226.484 34.9952 225.701 37.0316 224.947 38.942C224.444 40.2124 225.885 39.1581 225.42 40.2969C224.701 42.0622 223.936 43.8219 223.133 45.5615C221.295 49.5463 219.257 53.4308 217.117 57.0663C216.625 57.9044 216.131 58.7211 215.63 59.5291C214.942 60.6343 214.703 59.5856 214.436 59.7508C212.586 60.8729 212.657 63.973 212.487 64.5952C212.031 66.3008 211.454 67.2195 210.832 68.1793C210.428 68.8038 210.016 69.4243 209.589 70.3087C208.186 73.2247 206.661 76.209 205.096 79.2628C201.637 86.0186 197.698 93.0409 194.102 99.2419C193.106 100.962 192.134 102.623 191.205 104.205C188.107 109.482 185.184 114.218 182.313 118.811C178.31 125.208 174.419 131.328 170.209 138.215C170.024 138.518 169.838 138.822 169.651 139.127C169.175 139.906 170.452 139.62 170.051 140.298C166.426 146.361 162.507 152.158 158.568 157.987C156.837 160.551 155.1 163.122 153.38 165.728C152.916 166.427 154.332 165.941 153.61 167.081C152.134 169.423 150.058 172.252 148.185 174.35C147.273 175.373 147.737 173.449 146.832 174.487C146.239 175.166 145.648 175.867 145.063 176.585C143.566 178.422 142.108 180.367 140.763 182.308C139.967 183.459 141.961 182.325 140.869 183.778C137.898 187.738 134.853 191.686 131.766 195.439C127.685 200.401 123.236 205.328 118.474 209.841C117.789 210.491 117.096 211.134 116.395 211.77C115.752 212.353 113.896 211.668 112.914 213.238C113.192 213.686 113.635 214.088 113.991 214.503C111.064 217.746 108.049 220.895 104.97 223.964C100.357 228.561 95.5953 232.981 90.7408 237.292C85.8993 241.592 80.9646 245.783 75.9828 249.943C75.4786 250.364 74.9736 250.785 74.4681 251.205C73.8837 251.692 75.5146 251.589 74.3857 252.534C70.1253 256.095 65.972 259.617 61.5307 262.899C59.1558 264.654 56.701 266.338 54.1012 267.922C53.3607 268.374 52.6704 266.752 50.8153 268.502C50.4923 268.812 47.5938 271.307 47.0368 272.19C46.964 272.315 47.9977 272.533 47.0343 273.29C46.639 273.599 46.2411 273.908 45.8412 274.216C43.8476 275.751 41.9047 277.258 39.8471 278.831C37.8153 280.385 35.7435 281.949 33.6411 283.479C32.4288 284.361 31.2064 285.232 29.9768 286.082C29.0196 286.742 29.4573 285.309 28.7712 285.772C28.0399 286.266 27.3112 286.786 26.5823 287.322C24.4586 288.883 22.3289 290.578 20.1324 292.148C18.0706 293.623 15.9478 294.986 13.7659 296.013C13.5137 296.132 13.281 296.231 13.0657 296.313C10.2455 297.365 10.4658 295.621 8.16896 295.433C7.82505 295.408 5.76687 296.539 5.25428 295.853C3.97827 294.144 3.80474 291.594 2.32204 289.84C2.01074 289.472 -0.272899 291.279 0.672266 289.447C0.742928 289.328 2.36164 287.99 2.5954 287.386C2.76084 286.973 1.78983 286.548 2.22592 285.887C2.65616 285.228 3.69614 285.445 4.48643 284.466C4.79663 284.077 4.83117 283.755 4.88064 283.425C4.95549 282.921 5.065 282.406 6.2097 281.567ZM223.946 221.088C224.813 223.109 227.149 221.217 225.072 220.15C224.968 220.101 223.9 220.985 223.946 221.088ZM226.765 207.67C223.877 206.959 222.479 209.222 224.545 209.83C226.624 210.429 227.651 207.88 226.765 207.67ZM253.255 199.543C249.98 199.472 250.739 203.674 253.699 201.86C253.871 201.755 253.447 199.546 253.255 199.543ZM15.7448 290.053C15.7004 290.039 14.3058 290.955 14.2931 291.007C14.0911 292.301 16.9024 290.457 15.7448 290.053ZM278.713 189.436C277.605 189.256 275.238 190.874 276.618 191.108C277.733 191.297 280.1 189.66 278.713 189.436ZM191.051 227.345C191.075 227.299 190.626 226.205 190.407 226.325C189.692 226.73 190.596 228.153 191.051 227.345ZM321.106 170.536C314.871 173.421 309.624 172.023 316.491 169.158C317.735 168.634 314.367 171.43 316.048 170.966C319.124 170.114 320.03 167.216 323.41 166.847C324.029 166.781 321.471 170.379 321.097 170.546C321.1 170.543 321.103 170.539 321.106 170.536ZM222.236 224.458C222.237 224.514 223.356 225.694 223.411 225.695C224.709 225.653 222.449 223.269 222.236 224.458ZM185.984 159.915C186.07 159.835 186.621 156.126 186.568 155.995C185.276 153.831 184.145 161.385 185.984 159.915ZM128.576 176.943C127.855 177.593 127.04 178.067 126.158 178.312C126.158 178.312 126.158 178.312 126.158 178.312C125.385 178.53 124.819 178.498 124.088 178.249C124.631 177.981 125.198 177.75 125.915 177.54C125.915 177.54 125.915 177.54 125.915 177.54C126.812 177.279 127.703 177.079 128.576 176.943Z" fill="#382C35" style="fill:#382C35;fill:color(display-p3 0.2199 0.1726 0.2081);fill-opacity:1;" />
</svg>
