<svg width="1440" height="992" viewBox="0 0 1440 992" fill="none" xmlns="http://www.w3.org/2000/svg">
	<g clip-path="url(#clip0_2_2)">
		<rect width="1440" height="992" fill="#EDECE3" style="fill:#EDECE3;fill:color(display-p3 0.9294 0.9255 0.8902);fill-opacity:1;" />
		<g opacity="0.4">
			<circle cx="210.5" cy="210.5" r="210.5" fill="#D2D2D2" fill-opacity="0.2" style="fill:#D2D2D2;fill:color(display-p3 0.8235 0.8235 0.8235);fill-opacity:0.2;" />
			<path d="M571.536 6.00003C573.075 3.33336 576.924 3.33333 578.464 6L861.654 496.5C863.194 499.167 861.27 502.5 858.19 502.5H291.81C288.731 502.5 286.806 499.167 288.346 496.5L571.536 6.00003Z" fill="#D2D2D2" fill-opacity="0.2" style="fill:#D2D2D2;fill:color(display-p3 0.8235 0.8235 0.8235);fill-opacity:0.2;" />
			<path d="M990.207 19.3255C991.426 15.6858 996.574 15.6858 997.793 19.3255L1050.86 177.786C1051.4 179.404 1052.91 180.5 1054.62 180.515L1221.72 182.02C1225.56 182.055 1227.15 186.951 1224.07 189.235L1089.76 288.673C1088.39 289.689 1087.81 291.462 1088.33 293.09L1138.53 452.48C1139.69 456.141 1135.52 459.167 1132.4 456.939L996.322 359.935C994.932 358.945 993.068 358.945 991.678 359.935L855.604 456.939C852.478 459.167 848.313 456.141 849.466 452.48L899.673 293.09C900.186 291.462 899.61 289.689 898.238 288.673L763.933 189.235C760.848 186.951 762.439 182.055 766.277 182.02L933.381 180.515C935.087 180.5 936.596 179.404 937.138 177.786L990.207 19.3255Z" fill="#D2D2D2" fill-opacity="0.2" style="fill:#D2D2D2;fill:color(display-p3 0.8235 0.8235 0.8235);fill-opacity:0.2;" />
			<circle cx="210.5" cy="210.5" r="210.5" transform="matrix(-1 0 0 1 1440 496)" fill="#D2D2D2" fill-opacity="0.2" style="fill:#D2D2D2;fill:color(display-p3 0.8235 0.8235 0.8235);fill-opacity:0.2;" />
			<path d="M868.464 502C866.925 499.333 863.076 499.333 861.536 502L578.346 992.5C576.806 995.167 578.73 998.5 581.81 998.5H1148.19C1151.27 998.5 1153.19 995.167 1151.65 992.5L868.464 502Z" fill="#D2D2D2" fill-opacity="0.2" style="fill:#D2D2D2;fill:color(display-p3 0.8235 0.8235 0.8235);fill-opacity:0.2;" />
			<path d="M449.793 515.325C448.574 511.686 443.426 511.686 442.207 515.325L389.138 673.786C388.596 675.404 387.087 676.5 385.381 676.515L218.277 678.02C214.439 678.055 212.848 682.951 215.933 685.235L350.238 784.673C351.61 785.689 352.186 787.462 351.673 789.09L301.466 948.48C300.313 952.141 304.478 955.167 307.604 952.939L443.678 855.935C445.068 854.945 446.932 854.945 448.322 855.935L584.396 952.939C587.522 955.167 591.687 952.141 590.534 948.48L540.327 789.09C539.814 787.462 540.39 785.689 541.762 784.673L676.067 685.235C679.152 682.951 677.561 678.055 673.723 678.02L506.619 676.515C504.913 676.5 503.404 675.404 502.862 673.786L449.793 515.325Z" fill="#D2D2D2" fill-opacity="0.2" style="fill:#D2D2D2;fill:color(display-p3 0.8235 0.8235 0.8235);fill-opacity:0.2;" />
			<circle cx="111.536" cy="111.536" r="111.536" fill="#D2D2D2" fill-opacity="0.5" style="fill:#D2D2D2;fill:color(display-p3 0.8235 0.8235 0.8235);fill-opacity:0.5;" />
			<path d="M301.206 5.99999C302.746 3.33332 306.595 3.33333 308.134 6L454.929 260.255C456.468 262.922 454.544 266.255 451.464 266.255H157.876C154.797 266.255 152.872 262.922 154.412 260.255L301.206 5.99999Z" fill="#D2D2D2" fill-opacity="0.5" style="fill:#D2D2D2;fill:color(display-p3 0.8235 0.8235 0.8235);fill-opacity:0.5;" />
			<path d="M522.889 15.5643C524.108 11.9247 529.256 11.9247 530.475 15.5644L556.385 92.9306C556.927 94.5487 558.436 95.6448 560.142 95.6602L641.729 96.3948C645.567 96.4294 647.158 101.325 644.073 103.609L578.5 152.159C577.128 153.174 576.552 154.948 577.065 156.576L601.578 234.396C602.731 238.057 598.566 241.083 595.44 238.855L529.004 191.494C527.614 190.503 525.75 190.503 524.36 191.494L457.923 238.855C454.798 241.083 450.633 238.057 451.786 234.396L476.299 156.576C476.812 154.948 476.236 153.174 474.864 152.159L409.291 103.609C406.206 101.325 407.797 96.4294 411.635 96.3948L493.222 95.6602C494.928 95.6448 496.437 94.5487 496.979 92.9306L522.889 15.5643Z" fill="#D2D2D2" fill-opacity="0.5" style="fill:#D2D2D2;fill:color(display-p3 0.8235 0.8235 0.8235);fill-opacity:0.5;" />
			<circle cx="111.536" cy="111.536" r="111.536" transform="matrix(-1 0 0 1 763 262.811)" fill="#D2D2D2" fill-opacity="0.5" style="fill:#D2D2D2;fill:color(display-p3 0.8235 0.8235 0.8235);fill-opacity:0.5;" />
			<path d="M461.794 268.811C460.254 266.144 456.405 266.144 454.866 268.811L308.071 523.066C306.532 525.733 308.456 529.066 311.535 529.066H605.124C608.203 529.066 610.128 525.733 608.588 523.066L461.794 268.811Z" fill="#D2D2D2" fill-opacity="0.5" style="fill:#D2D2D2;fill:color(display-p3 0.8235 0.8235 0.8235);fill-opacity:0.5;" />
			<path d="M240.111 278.375C238.892 274.736 233.744 274.736 232.525 278.375L206.615 355.742C206.073 357.36 204.564 358.456 202.858 358.471L121.271 359.206C117.433 359.241 115.842 364.137 118.927 366.421L184.5 414.97C185.872 415.986 186.448 417.759 185.935 419.387L161.422 497.207C160.269 500.868 164.434 503.894 167.56 501.666L233.996 454.305C235.386 453.314 237.25 453.314 238.64 454.305L305.077 501.666C308.202 503.894 312.367 500.868 311.214 497.207L286.701 419.387C286.188 417.759 286.764 415.986 288.136 414.97L353.709 366.421C356.794 364.137 355.203 359.241 351.365 359.206L269.778 358.471C268.072 358.456 266.563 357.36 266.021 355.742L240.111 278.375Z" fill="#D2D2D2" fill-opacity="0.5" style="fill:#D2D2D2;fill:color(display-p3 0.8235 0.8235 0.8235);fill-opacity:0.5;" />
			<circle cx="809.536" cy="111.536" r="111.536" fill="#D2D2D2" fill-opacity="0.5" style="fill:#D2D2D2;fill:color(display-p3 0.8235 0.8235 0.8235);fill-opacity:0.5;" />
			<path d="M999.206 5.99999C1000.75 3.33332 1004.59 3.33333 1006.13 6L1152.93 260.255C1154.47 262.922 1152.54 266.255 1149.46 266.255H855.876C852.797 266.255 850.872 262.922 852.412 260.255L999.206 5.99999Z" fill="#D2D2D2" fill-opacity="0.5" style="fill:#D2D2D2;fill:color(display-p3 0.8235 0.8235 0.8235);fill-opacity:0.5;" />
			<path d="M1220.89 15.5643C1222.11 11.9247 1227.26 11.9247 1228.47 15.5644L1254.39 92.9306C1254.93 94.5487 1256.44 95.6448 1258.14 95.6602L1339.73 96.3948C1343.57 96.4294 1345.16 101.325 1342.07 103.609L1276.5 152.159C1275.13 153.174 1274.55 154.948 1275.06 156.576L1299.58 234.396C1300.73 238.057 1296.57 241.083 1293.44 238.855L1227 191.494C1225.61 190.503 1223.75 190.503 1222.36 191.494L1155.92 238.855C1152.8 241.083 1148.63 238.057 1149.79 234.396L1174.3 156.576C1174.81 154.948 1174.24 153.174 1172.86 152.159L1107.29 103.609C1104.21 101.325 1105.8 96.4294 1109.64 96.3948L1191.22 95.6602C1192.93 95.6448 1194.44 94.5487 1194.98 92.9306L1220.89 15.5643Z" fill="#D2D2D2" fill-opacity="0.5" style="fill:#D2D2D2;fill:color(display-p3 0.8235 0.8235 0.8235);fill-opacity:0.5;" />
			<circle cx="111.536" cy="111.536" r="111.536" transform="matrix(-1 0 0 1 1461 262.811)" fill="#D2D2D2" fill-opacity="0.5" style="fill:#D2D2D2;fill:color(display-p3 0.8235 0.8235 0.8235);fill-opacity:0.5;" />
			<path d="M1159.79 268.811C1158.25 266.144 1154.41 266.144 1152.87 268.811L1006.07 523.066C1004.53 525.733 1006.46 529.066 1009.54 529.066H1303.12C1306.2 529.066 1308.13 525.733 1306.59 523.066L1159.79 268.811Z" fill="#D2D2D2" fill-opacity="0.5" style="fill:#D2D2D2;fill:color(display-p3 0.8235 0.8235 0.8235);fill-opacity:0.5;" />
			<path d="M938.111 278.375C936.892 274.736 931.744 274.736 930.525 278.375L904.615 355.742C904.073 357.36 902.564 358.456 900.858 358.471L819.271 359.206C815.433 359.241 813.842 364.137 816.927 366.421L882.5 414.97C883.872 415.986 884.448 417.759 883.935 419.387L859.422 497.207C858.269 500.868 862.434 503.894 865.559 501.666L931.996 454.305C933.386 453.314 935.25 453.314 936.64 454.305L1003.08 501.666C1006.2 503.894 1010.37 500.868 1009.21 497.207L984.701 419.387C984.188 417.759 984.764 415.986 986.136 414.97L1051.71 366.421C1054.79 364.137 1053.2 359.241 1049.36 359.206L967.778 358.471C966.072 358.456 964.563 357.36 964.021 355.742L938.111 278.375Z" fill="#D2D2D2" fill-opacity="0.5" style="fill:#D2D2D2;fill:color(display-p3 0.8235 0.8235 0.8235);fill-opacity:0.5;" />
			<circle cx="111.536" cy="111.536" r="111.536" transform="matrix(1 0 0 -1 0 1057.82)" fill="#D2D2D2" fill-opacity="0.5" style="fill:#D2D2D2;fill:color(display-p3 0.8235 0.8235 0.8235);fill-opacity:0.5;" />
			<path d="M301.206 1051.82C302.746 1054.48 306.595 1054.48 308.134 1051.82L454.929 797.563C456.468 794.896 454.544 791.563 451.464 791.563H157.876C154.797 791.563 152.872 794.896 154.412 797.563L301.206 1051.82Z" fill="#D2D2D2" fill-opacity="0.5" style="fill:#D2D2D2;fill:color(display-p3 0.8235 0.8235 0.8235);fill-opacity:0.5;" />
			<path d="M522.889 1042.25C524.108 1045.89 529.256 1045.89 530.475 1042.25L556.385 964.887C556.927 963.269 558.436 962.173 560.142 962.158L641.729 961.423C645.567 961.389 647.158 956.493 644.073 954.209L578.5 905.659C577.128 904.644 576.552 902.87 577.065 901.242L601.578 823.422C602.731 819.761 598.566 816.735 595.44 818.963L529.004 866.324C527.614 867.315 525.75 867.315 524.36 866.324L457.923 818.963C454.798 816.735 450.633 819.761 451.786 823.422L476.299 901.242C476.812 902.87 476.236 904.644 474.864 905.659L409.291 954.209C406.206 956.493 407.797 961.389 411.635 961.423L493.222 962.158C494.928 962.173 496.437 963.269 496.979 964.887L522.889 1042.25Z" fill="#D2D2D2" fill-opacity="0.5" style="fill:#D2D2D2;fill:color(display-p3 0.8235 0.8235 0.8235);fill-opacity:0.5;" />
			<circle cx="651.464" cy="683.471" r="111.536" transform="rotate(-180 651.464 683.471)" fill="#D2D2D2" fill-opacity="0.5" style="fill:#D2D2D2;fill:color(display-p3 0.8235 0.8235 0.8235);fill-opacity:0.5;" />
			<path d="M461.794 789.007C460.254 791.674 456.405 791.674 454.866 789.007L308.071 534.752C306.532 532.085 308.456 528.752 311.535 528.752H605.124C608.203 528.752 610.128 532.085 608.588 534.752L461.794 789.007Z" fill="#D2D2D2" fill-opacity="0.5" style="fill:#D2D2D2;fill:color(display-p3 0.8235 0.8235 0.8235);fill-opacity:0.5;" />
			<path d="M240.111 779.443C238.892 783.082 233.744 783.082 232.525 779.443L206.615 702.076C206.073 700.458 204.564 699.362 202.858 699.347L121.271 698.612C117.433 698.578 115.842 693.682 118.927 691.398L184.5 642.848C185.872 641.833 186.448 640.059 185.935 638.431L161.422 560.611C160.269 556.95 164.434 553.924 167.56 556.152L233.996 603.513C235.386 604.504 237.25 604.504 238.64 603.513L305.077 556.152C308.202 553.924 312.367 556.95 311.214 560.611L286.701 638.431C286.188 640.059 286.764 641.833 288.136 642.848L353.709 691.398C356.794 693.682 355.203 698.578 351.365 698.612L269.778 699.347C268.072 699.362 266.563 700.458 266.021 702.076L240.111 779.443Z" fill="#D2D2D2" fill-opacity="0.5" style="fill:#D2D2D2;fill:color(display-p3 0.8235 0.8235 0.8235);fill-opacity:0.5;" />
			<circle cx="111.536" cy="111.536" r="111.536" transform="matrix(1 0 0 -1 698 1057.82)" fill="#D2D2D2" fill-opacity="0.5" style="fill:#D2D2D2;fill:color(display-p3 0.8235 0.8235 0.8235);fill-opacity:0.5;" />
			<path d="M999.206 1051.82C1000.75 1054.48 1004.59 1054.48 1006.13 1051.82L1152.93 797.563C1154.47 794.896 1152.54 791.563 1149.46 791.563H855.876C852.797 791.563 850.872 794.896 852.412 797.563L999.206 1051.82Z" fill="#D2D2D2" fill-opacity="0.5" style="fill:#D2D2D2;fill:color(display-p3 0.8235 0.8235 0.8235);fill-opacity:0.5;" />
			<path d="M1220.89 1042.25C1222.11 1045.89 1227.26 1045.89 1228.47 1042.25L1254.39 964.887C1254.93 963.269 1256.44 962.173 1258.14 962.158L1339.73 961.423C1343.57 961.389 1345.16 956.493 1342.07 954.209L1276.5 905.659C1275.13 904.644 1274.55 902.87 1275.06 901.242L1299.58 823.422C1300.73 819.761 1296.57 816.735 1293.44 818.963L1227 866.324C1225.61 867.315 1223.75 867.315 1222.36 866.324L1155.92 818.963C1152.8 816.735 1148.63 819.761 1149.79 823.422L1174.3 901.242C1174.81 902.87 1174.24 904.644 1172.86 905.659L1107.29 954.209C1104.21 956.493 1105.8 961.389 1109.64 961.423L1191.22 962.158C1192.93 962.173 1194.44 963.269 1194.98 964.887L1220.89 1042.25Z" fill="#D2D2D2" fill-opacity="0.5" style="fill:#D2D2D2;fill:color(display-p3 0.8235 0.8235 0.8235);fill-opacity:0.5;" />
			<circle cx="1349.46" cy="683.471" r="111.536" transform="rotate(-180 1349.46 683.471)" fill="#D2D2D2" fill-opacity="0.5" style="fill:#D2D2D2;fill:color(display-p3 0.8235 0.8235 0.8235);fill-opacity:0.5;" />
			<path d="M1159.79 789.007C1158.25 791.674 1154.41 791.674 1152.87 789.007L1006.07 534.752C1004.53 532.085 1006.46 528.752 1009.54 528.752H1303.12C1306.2 528.752 1308.13 532.085 1306.59 534.752L1159.79 789.007Z" fill="#D2D2D2" fill-opacity="0.5" style="fill:#D2D2D2;fill:color(display-p3 0.8235 0.8235 0.8235);fill-opacity:0.5;" />
			<path d="M938.111 779.443C936.892 783.082 931.744 783.082 930.525 779.443L904.615 702.076C904.073 700.458 902.564 699.362 900.858 699.347L819.271 698.612C815.433 698.578 813.842 693.682 816.927 691.398L882.5 642.848C883.872 641.833 884.448 640.059 883.935 638.431L859.422 560.611C858.269 556.95 862.434 553.924 865.559 556.152L931.996 603.513C933.386 604.504 935.25 604.504 936.64 603.513L1003.08 556.152C1006.2 553.924 1010.37 556.95 1009.21 560.611L984.701 638.431C984.188 640.059 984.764 641.833 986.136 642.848L1051.71 691.398C1054.79 693.682 1053.2 698.578 1049.36 698.612L967.778 699.347C966.072 699.362 964.563 700.458 964.021 702.076L938.111 779.443Z" fill="#D2D2D2" fill-opacity="0.5" style="fill:#D2D2D2;fill:color(display-p3 0.8235 0.8235 0.8235);fill-opacity:0.5;" />
			<circle cx="652.188" cy="95.4572" r="75.4572" transform="rotate(90 652.188 95.4572)" fill="#E8C6C6" style="fill:#E8C6C6;fill:color(display-p3 0.9087 0.7755 0.7755);fill-opacity:1;" />
			<path d="M721.645 222.654C724.312 224.194 724.312 228.043 721.645 229.582L553.515 326.652C550.849 328.192 547.515 326.267 547.515 323.188L547.515 129.049C547.515 125.969 550.849 124.045 553.515 125.585L721.645 222.654Z" fill="#E8C6C6" style="fill:#E8C6C6;fill:color(display-p3 0.9087 0.7755 0.7755);fill-opacity:1;" />
			<path d="M713.452 372.523C717.091 373.742 717.091 378.89 713.452 380.109L665.649 396.118C664.031 396.66 662.935 398.169 662.92 399.875L662.466 450.285C662.431 454.123 657.535 455.714 655.251 452.629L625.254 412.113C624.238 410.742 622.465 410.166 620.837 410.678L572.754 425.824C569.093 426.977 566.067 422.812 568.295 419.687L597.558 378.638C598.549 377.248 598.549 375.383 597.558 373.994L568.295 332.944C566.067 329.819 569.093 325.654 572.754 326.807L620.837 341.953C622.465 342.466 624.238 341.89 625.254 340.518L655.251 300.002C657.535 296.918 662.431 298.508 662.466 302.347L662.92 352.757C662.935 354.463 664.031 355.972 665.649 356.514L713.452 372.523Z" fill="#E8C6C6" style="fill:#E8C6C6;fill:color(display-p3 0.9087 0.7755 0.7755);fill-opacity:1;" />
			<circle cx="75.4572" cy="75.4572" r="75.4572" transform="matrix(4.37114e-08 -1 -1 -4.37114e-08 549.845 536.192)" fill="#E8C6C6" style="fill:#E8C6C6;fill:color(display-p3 0.9087 0.7755 0.7755);fill-opacity:1;" />
			<path d="M543.846 333.538C546.512 331.998 546.512 328.149 543.846 326.609L375.716 229.54C373.049 228 369.716 229.925 369.716 233.004L369.716 427.143C369.716 430.222 373.049 432.147 375.716 430.607L543.846 333.538Z" fill="#E8C6C6" style="fill:#E8C6C6;fill:color(display-p3 0.9087 0.7755 0.7755);fill-opacity:1;" />
			<path d="M535.652 183.669C539.292 182.45 539.292 177.302 535.652 176.083L487.85 160.074C486.232 159.532 485.136 158.023 485.12 156.317L484.666 105.907C484.632 102.069 479.736 100.478 477.452 103.563L447.454 144.079C446.439 145.45 444.665 146.026 443.038 145.514L394.955 130.368C391.294 129.215 388.268 133.379 390.496 136.505L419.759 177.554C420.749 178.944 420.749 180.808 419.759 182.198L390.496 223.247C388.268 226.373 391.294 230.538 394.955 229.384L443.038 214.239C444.665 213.726 446.439 214.302 447.454 215.674L477.452 256.189C479.736 259.274 484.632 257.683 484.666 253.845L485.12 203.435C485.136 201.729 486.232 200.22 487.85 199.678L535.652 183.669Z" fill="#E8C6C6" style="fill:#E8C6C6;fill:color(display-p3 0.9087 0.7755 0.7755);fill-opacity:1;" />
			<circle cx="652.188" cy="567.675" r="75.4572" transform="rotate(90 652.188 567.675)" fill="#E8C6C6" style="fill:#E8C6C6;fill:color(display-p3 0.9087 0.7755 0.7755);fill-opacity:1;" />
			<path d="M721.645 694.871C724.312 696.411 724.312 700.26 721.645 701.8L553.515 798.869C550.849 800.409 547.515 798.484 547.515 795.405L547.515 601.266C547.515 598.187 550.849 596.262 553.515 597.802L721.645 694.871Z" fill="#E8C6C6" style="fill:#E8C6C6;fill:color(display-p3 0.9087 0.7755 0.7755);fill-opacity:1;" />
			<path d="M713.452 844.74C717.091 845.959 717.091 851.107 713.452 852.326L665.649 868.335C664.031 868.877 662.935 870.386 662.92 872.092L662.466 922.502C662.431 926.34 657.535 927.931 655.251 924.846L625.254 884.331C624.238 882.959 622.465 882.383 620.837 882.896L572.754 898.041C569.093 899.195 566.067 895.03 568.295 891.904L597.558 850.855C598.549 849.465 598.549 847.601 597.558 846.211L568.295 805.162C566.067 802.036 569.093 797.871 572.754 799.025L620.837 814.171C622.465 814.683 624.238 814.107 625.254 812.735L655.251 772.22C657.535 769.135 662.431 770.726 662.466 774.564L662.92 824.974C662.935 826.68 664.031 828.189 665.649 828.731L713.452 844.74Z" fill="#E8C6C6" style="fill:#E8C6C6;fill:color(display-p3 0.9087 0.7755 0.7755);fill-opacity:1;" />
			<circle cx="75.4572" cy="75.4572" r="75.4572" transform="matrix(4.37114e-08 -1 -1 -4.37114e-08 549.845 1008.41)" fill="#E8C6C6" style="fill:#E8C6C6;fill:color(display-p3 0.9087 0.7755 0.7755);fill-opacity:1;" />
			<path d="M543.846 805.755C546.512 804.215 546.512 800.366 543.846 798.827L375.716 701.757C373.049 700.218 369.716 702.142 369.716 705.221L369.716 899.36C369.716 902.44 373.049 904.364 375.716 902.825L543.846 805.755Z" fill="#E8C6C6" style="fill:#E8C6C6;fill:color(display-p3 0.9087 0.7755 0.7755);fill-opacity:1;" />
			<path d="M535.652 655.886C539.292 654.667 539.292 649.519 535.652 648.3L487.85 632.291C486.232 631.749 485.136 630.241 485.12 628.534L484.666 578.124C484.632 574.286 479.736 572.695 477.452 575.78L447.454 616.296C446.439 617.667 444.665 618.244 443.038 617.731L394.955 602.585C391.294 601.432 388.268 605.597 390.496 608.722L419.759 649.771C420.749 651.161 420.749 653.026 419.759 654.415L390.496 695.465C388.268 698.59 391.294 702.755 394.955 701.602L443.038 686.456C444.665 685.943 446.439 686.519 447.454 687.891L477.452 728.407C479.736 731.491 484.632 729.901 484.666 726.062L485.12 675.652C485.136 673.946 486.232 672.437 487.85 671.896L535.652 655.886Z" fill="#E8C6C6" style="fill:#E8C6C6;fill:color(display-p3 0.9087 0.7755 0.7755);fill-opacity:1;" />
			<circle cx="75.4572" cy="75.4572" r="75.4572" transform="matrix(-4.37114e-08 1 1 4.37114e-08 12.0001 20)" fill="#E8C6C6" style="fill:#E8C6C6;fill:color(display-p3 0.9087 0.7755 0.7755);fill-opacity:1;" />
			<path d="M18.0001 222.654C15.3335 224.194 15.3335 228.043 18.0001 229.582L186.13 326.652C188.796 328.191 192.13 326.267 192.13 323.188L192.13 129.049C192.13 125.969 188.796 124.045 186.13 125.585L18.0001 222.654Z" fill="#E8C6C6" style="fill:#E8C6C6;fill:color(display-p3 0.9087 0.7755 0.7755);fill-opacity:1;" />
			<path d="M26.1933 372.523C22.5537 373.742 22.5537 378.89 26.1933 380.109L73.9958 396.118C75.6138 396.66 76.71 398.168 76.7253 399.875L77.1792 450.285C77.2138 454.123 82.1099 455.714 84.3939 452.629L114.391 412.113C115.407 410.742 117.18 410.166 118.808 410.678L166.891 425.824C170.552 426.977 173.578 422.812 171.35 419.687L142.087 378.638C141.096 377.248 141.096 375.383 142.087 373.994L171.35 332.944C173.578 329.819 170.552 325.654 166.891 326.807L118.808 341.953C117.18 342.466 115.407 341.89 114.391 340.518L84.3939 300.002C82.1099 296.918 77.2138 298.508 77.1793 302.347L76.7253 352.757C76.71 354.463 75.6138 355.972 73.9958 356.514L26.1933 372.523Z" fill="#E8C6C6" style="fill:#E8C6C6;fill:color(display-p3 0.9087 0.7755 0.7755);fill-opacity:1;" />
			<circle cx="265.257" cy="460.735" r="75.4572" transform="rotate(-90 265.257 460.735)" fill="#E8C6C6" style="fill:#E8C6C6;fill:color(display-p3 0.9087 0.7755 0.7755);fill-opacity:1;" />
			<path d="M195.799 333.538C193.133 331.998 193.133 328.149 195.799 326.609L363.929 229.54C366.596 228 369.929 229.925 369.929 233.004L369.929 427.143C369.929 430.222 366.596 432.147 363.929 430.607L195.799 333.538Z" fill="#E8C6C6" style="fill:#E8C6C6;fill:color(display-p3 0.9087 0.7755 0.7755);fill-opacity:1;" />
			<path d="M203.993 183.669C200.353 182.45 200.353 177.302 203.993 176.083L251.795 160.074C253.413 159.532 254.509 158.023 254.525 156.317L254.979 105.907C255.013 102.069 259.909 100.478 262.193 103.563L292.191 144.079C293.206 145.45 294.98 146.026 296.607 145.514L344.69 130.368C348.351 129.215 351.377 133.379 349.149 136.505L319.886 177.554C318.896 178.944 318.896 180.809 319.886 182.198L349.149 223.247C351.377 226.373 348.351 230.538 344.69 229.384L296.607 214.239C294.98 213.726 293.206 214.302 292.191 215.674L262.193 256.189C259.909 259.274 255.013 257.683 254.979 253.845L254.525 203.435C254.509 201.729 253.413 200.22 251.795 199.678L203.993 183.669Z" fill="#E8C6C6" style="fill:#E8C6C6;fill:color(display-p3 0.9087 0.7755 0.7755);fill-opacity:1;" />
			<circle cx="75.4572" cy="75.4572" r="75.4572" transform="matrix(-4.37114e-08 1 1 4.37114e-08 12.0001 492.217)" fill="#E8C6C6" style="fill:#E8C6C6;fill:color(display-p3 0.9087 0.7755 0.7755);fill-opacity:1;" />
			<path d="M18.0001 694.871C15.3334 696.411 15.3334 700.26 18.0001 701.8L186.13 798.869C188.796 800.409 192.13 798.484 192.13 795.405L192.13 601.266C192.13 598.187 188.796 596.262 186.13 597.802L18.0001 694.871Z" fill="#E8C6C6" style="fill:#E8C6C6;fill:color(display-p3 0.9087 0.7755 0.7755);fill-opacity:1;" />
			<path d="M26.1933 844.74C22.5536 845.959 22.5536 851.107 26.1933 852.326L73.9957 868.335C75.6138 868.877 76.7099 870.386 76.7253 872.092L77.1792 922.502C77.2138 926.34 82.1098 927.931 84.3938 924.846L114.391 884.331C115.407 882.959 117.18 882.383 118.808 882.896L166.891 898.041C170.552 899.195 173.578 895.03 171.35 891.904L142.087 850.855C141.096 849.465 141.096 847.601 142.087 846.211L171.35 805.162C173.578 802.036 170.552 797.871 166.891 799.025L118.808 814.171C117.18 814.683 115.407 814.107 114.391 812.735L84.3938 772.22C82.1098 769.135 77.2138 770.726 77.1792 774.564L76.7253 824.974C76.71 826.68 75.6138 828.189 73.9957 828.731L26.1933 844.74Z" fill="#E8C6C6" style="fill:#E8C6C6;fill:color(display-p3 0.9087 0.7755 0.7755);fill-opacity:1;" />
			<circle cx="265.257" cy="932.952" r="75.4572" transform="rotate(-90 265.257 932.952)" fill="#E8C6C6" style="fill:#E8C6C6;fill:color(display-p3 0.9087 0.7755 0.7755);fill-opacity:1;" />
			<path d="M195.799 805.755C193.133 804.215 193.133 800.366 195.799 798.827L363.929 701.757C366.596 700.218 369.929 702.142 369.929 705.221L369.929 899.36C369.929 902.44 366.596 904.364 363.929 902.825L195.799 805.755Z" fill="#E8C6C6" style="fill:#E8C6C6;fill:color(display-p3 0.9087 0.7755 0.7755);fill-opacity:1;" />
			<path d="M203.993 655.886C200.353 654.667 200.353 649.519 203.993 648.3L251.795 632.291C253.413 631.749 254.509 630.241 254.525 628.534L254.979 578.124C255.013 574.286 259.909 572.695 262.193 575.78L292.191 616.296C293.206 617.667 294.98 618.244 296.607 617.731L344.69 602.585C348.351 601.432 351.377 605.597 349.149 608.722L319.886 649.771C318.896 651.161 318.896 653.026 319.886 654.415L349.149 695.465C351.377 698.59 348.351 702.755 344.69 701.602L296.607 686.456C294.98 685.943 293.206 686.52 292.191 687.891L262.193 728.407C259.909 731.491 255.013 729.901 254.979 726.062L254.525 675.652C254.509 673.946 253.413 672.437 251.795 671.896L203.993 655.886Z" fill="#E8C6C6" style="fill:#E8C6C6;fill:color(display-p3 0.9087 0.7755 0.7755);fill-opacity:1;" />
			<circle cx="816.471" cy="549.471" r="53.4707" fill="#E8C6C6" style="fill:#E8C6C6;fill:color(display-p3 0.9087 0.7755 0.7755);fill-opacity:1;" />
			<path d="M905.596 502C907.136 499.333 910.985 499.333 912.524 502L979.291 617.644C980.831 620.31 978.906 623.644 975.827 623.644L842.293 623.644C839.214 623.644 837.289 620.311 838.829 617.644L905.596 502Z" fill="#E8C6C6" style="fill:#E8C6C6;fill:color(display-p3 0.9087 0.7755 0.7755);fill-opacity:1;" />
			<path d="M1011.7 509.358C1012.92 505.718 1018.07 505.718 1019.29 509.358L1029.26 539.144C1029.8 540.762 1031.31 541.858 1033.02 541.873L1064.43 542.156C1068.27 542.191 1069.86 547.087 1066.77 549.371L1041.53 568.062C1040.16 569.078 1039.58 570.851 1040.09 572.479L1049.53 602.44C1050.68 606.101 1046.52 609.127 1043.39 606.899L1017.82 588.665C1016.43 587.674 1014.56 587.674 1013.17 588.665L987.593 606.899C984.468 609.127 980.303 606.101 981.456 602.44L990.894 572.479C991.406 570.851 990.83 569.078 989.459 568.062L964.213 549.371C961.128 547.087 962.719 542.191 966.557 542.156L997.968 541.873C999.674 541.858 1001.18 540.762 1001.73 539.144L1011.7 509.358Z" fill="#E8C6C6" style="fill:#E8C6C6;fill:color(display-p3 0.9087 0.7755 0.7755);fill-opacity:1;" />
			<circle cx="53.4707" cy="53.4707" r="53.4707" transform="matrix(-1 8.74228e-08 8.74228e-08 1 1128.79 621.993)" fill="#E8C6C6" style="fill:#E8C6C6;fill:color(display-p3 0.9087 0.7755 0.7755);fill-opacity:1;" />
			<path d="M986.189 627.993C984.65 625.326 980.801 625.326 979.261 627.993L912.494 743.636C910.955 746.303 912.879 749.636 915.958 749.636L1049.49 749.636C1052.57 749.636 1054.5 746.303 1052.96 743.636L986.189 627.993Z" fill="#E8C6C6" style="fill:#E8C6C6;fill:color(display-p3 0.9087 0.7755 0.7755);fill-opacity:1;" />
			<path d="M880.085 635.35C878.866 631.711 873.718 631.711 872.499 635.35L862.523 665.136C861.981 666.754 860.473 667.851 858.766 667.866L827.356 668.149C823.517 668.183 821.927 673.079 825.011 675.363L850.257 694.055C851.629 695.07 852.205 696.844 851.692 698.472L842.255 728.432C841.101 732.093 845.266 735.119 848.392 732.891L873.97 714.657C875.359 713.667 877.224 713.667 878.614 714.657L904.192 732.891C907.317 735.119 911.482 732.093 910.329 728.432L900.891 698.472C900.379 696.844 900.955 695.07 902.326 694.055L927.572 675.363C930.657 673.079 929.066 668.183 925.228 668.149L893.817 667.866C892.111 667.851 890.602 666.754 890.06 665.136L880.085 635.35Z" fill="#E8C6C6" style="fill:#E8C6C6;fill:color(display-p3 0.9087 0.7755 0.7755);fill-opacity:1;" />
			<circle cx="1151.09" cy="549.471" r="53.4707" fill="#E8C6C6" style="fill:#E8C6C6;fill:color(display-p3 0.9087 0.7755 0.7755);fill-opacity:1;" />
			<path d="M1240.22 502C1241.76 499.333 1245.61 499.333 1247.15 502L1313.92 617.644C1315.45 620.31 1313.53 623.644 1310.45 623.644L1176.92 623.644C1173.84 623.644 1171.91 620.31 1173.45 617.644L1240.22 502Z" fill="#E8C6C6" style="fill:#E8C6C6;fill:color(display-p3 0.9087 0.7755 0.7755);fill-opacity:1;" />
			<path d="M1346.32 509.358C1347.54 505.718 1352.69 505.718 1353.91 509.358L1363.89 539.144C1364.43 540.762 1365.94 541.858 1367.64 541.873L1399.05 542.156C1402.89 542.191 1404.48 547.087 1401.4 549.371L1376.15 568.062C1374.78 569.078 1374.2 570.851 1374.72 572.479L1384.15 602.44C1385.31 606.101 1381.14 609.127 1378.02 606.899L1352.44 588.665C1351.05 587.674 1349.18 587.674 1347.8 588.665L1322.22 606.899C1319.09 609.127 1314.93 606.101 1316.08 602.44L1325.52 572.479C1326.03 570.851 1325.45 569.078 1324.08 568.062L1298.84 549.371C1295.75 547.087 1297.34 542.191 1301.18 542.156L1332.59 541.873C1334.3 541.858 1335.81 540.762 1336.35 539.144L1346.32 509.358Z" fill="#E8C6C6" style="fill:#E8C6C6;fill:color(display-p3 0.9087 0.7755 0.7755);fill-opacity:1;" />
			<circle cx="53.4707" cy="53.4707" r="53.4707" transform="matrix(-1 8.74228e-08 8.74228e-08 1 1463.41 621.993)" fill="#E8C6C6" style="fill:#E8C6C6;fill:color(display-p3 0.9087 0.7755 0.7755);fill-opacity:1;" />
			<path d="M1320.81 627.993C1319.27 625.326 1315.42 625.326 1313.88 627.993L1247.12 743.636C1245.58 746.303 1247.5 749.636 1250.58 749.636L1384.12 749.636C1387.2 749.636 1389.12 746.303 1387.58 743.636L1320.81 627.993Z" fill="#E8C6C6" style="fill:#E8C6C6;fill:color(display-p3 0.9087 0.7755 0.7755);fill-opacity:1;" />
			<path d="M1214.71 635.35C1213.49 631.711 1208.34 631.711 1207.12 635.35L1197.15 665.136C1196.61 666.754 1195.1 667.851 1193.39 667.866L1161.98 668.149C1158.14 668.183 1156.55 673.079 1159.64 675.363L1184.88 694.055C1186.25 695.07 1186.83 696.844 1186.32 698.472L1176.88 728.432C1175.73 732.093 1179.89 735.119 1183.02 732.891L1208.59 714.657C1209.98 713.667 1211.85 713.667 1213.24 714.657L1238.82 732.891C1241.94 735.119 1246.11 732.093 1244.95 728.432L1235.52 698.472C1235 696.844 1235.58 695.07 1236.95 694.055L1262.2 675.363C1265.28 673.079 1263.69 668.183 1259.85 668.149L1228.44 667.866C1226.73 667.851 1225.23 666.754 1224.68 665.136L1214.71 635.35Z" fill="#E8C6C6" style="fill:#E8C6C6;fill:color(display-p3 0.9087 0.7755 0.7755);fill-opacity:1;" />
			<circle cx="53.4707" cy="53.4707" r="53.4707" transform="matrix(1 -8.74228e-08 -8.74228e-08 -1 763 1003.12)" fill="#E8C6C6" style="fill:#E8C6C6;fill:color(display-p3 0.9087 0.7755 0.7755);fill-opacity:1;" />
			<path d="M905.596 997.122C907.136 999.789 910.985 999.789 912.524 997.122L979.291 881.478C980.831 878.812 978.906 875.478 975.827 875.478L842.293 875.478C839.214 875.478 837.289 878.812 838.829 881.478L905.596 997.122Z" fill="#E8C6C6" style="fill:#E8C6C6;fill:color(display-p3 0.9087 0.7755 0.7755);fill-opacity:1;" />
			<path d="M1011.7 989.764C1012.92 993.404 1018.07 993.404 1019.29 989.765L1029.26 959.978C1029.8 958.36 1031.31 957.264 1033.02 957.249L1064.43 956.966C1068.27 956.931 1069.86 952.035 1066.77 949.751L1041.53 931.06C1040.16 930.044 1039.58 928.271 1040.09 926.643L1049.53 896.682C1050.68 893.021 1046.52 889.995 1043.39 892.223L1017.82 910.457C1016.43 911.448 1014.56 911.448 1013.17 910.457L987.593 892.223C984.468 889.995 980.303 893.021 981.456 896.682L990.894 926.643C991.406 928.271 990.83 930.044 989.459 931.06L964.213 949.751C961.128 952.035 962.719 956.931 966.557 956.966L997.968 957.249C999.674 957.264 1001.18 958.36 1001.72 959.978L1011.7 989.764Z" fill="#E8C6C6" style="fill:#E8C6C6;fill:color(display-p3 0.9087 0.7755 0.7755);fill-opacity:1;" />
			<circle cx="1075.31" cy="823.659" r="53.4707" transform="rotate(180 1075.31 823.659)" fill="#E8C6C6" style="fill:#E8C6C6;fill:color(display-p3 0.9087 0.7755 0.7755);fill-opacity:1;" />
			<path d="M986.189 871.129C984.65 873.796 980.801 873.796 979.261 871.129L912.494 755.486C910.954 752.819 912.879 749.486 915.958 749.486L1049.49 749.486C1052.57 749.486 1054.5 752.819 1052.96 755.486L986.189 871.129Z" fill="#E8C6C6" style="fill:#E8C6C6;fill:color(display-p3 0.9087 0.7755 0.7755);fill-opacity:1;" />
			<path d="M880.085 863.772C878.866 867.412 873.718 867.412 872.499 863.772L862.523 833.986C861.982 832.368 860.473 831.272 858.767 831.256L827.356 830.973C823.518 830.939 821.927 826.043 825.012 823.759L850.257 805.067C851.629 804.052 852.205 802.278 851.692 800.651L842.255 770.69C841.101 767.029 845.266 764.003 848.392 766.231L873.97 784.465C875.359 785.455 877.224 785.455 878.614 784.465L904.192 766.231C907.317 764.003 911.482 767.029 910.329 770.69L900.892 800.651C900.379 802.278 900.955 804.052 902.327 805.067L927.572 823.759C930.657 826.043 929.066 830.939 925.228 830.973L893.817 831.256C892.111 831.272 890.602 832.368 890.06 833.986L880.085 863.772Z" fill="#E8C6C6" style="fill:#E8C6C6;fill:color(display-p3 0.9087 0.7755 0.7755);fill-opacity:1;" />
			<circle cx="53.4707" cy="53.4707" r="53.4707" transform="matrix(1 -8.74228e-08 -8.74228e-08 -1 1097.62 1003.12)" fill="#E8C6C6" style="fill:#E8C6C6;fill:color(display-p3 0.9087 0.7755 0.7755);fill-opacity:1;" />
			<path d="M1240.22 997.122C1241.76 999.789 1245.61 999.789 1247.15 997.122L1313.92 881.478C1315.45 878.812 1313.53 875.478 1310.45 875.478L1176.92 875.478C1173.84 875.478 1171.91 878.812 1173.45 881.478L1240.22 997.122Z" fill="#E8C6C6" style="fill:#E8C6C6;fill:color(display-p3 0.9087 0.7755 0.7755);fill-opacity:1;" />
			<path d="M1346.32 989.764C1347.54 993.404 1352.69 993.404 1353.91 989.765L1363.89 959.978C1364.43 958.36 1365.94 957.264 1367.64 957.249L1399.05 956.966C1402.89 956.931 1404.48 952.035 1401.4 949.751L1376.15 931.06C1374.78 930.044 1374.2 928.271 1374.72 926.643L1384.15 896.682C1385.31 893.021 1381.14 889.995 1378.02 892.223L1352.44 910.457C1351.05 911.448 1349.18 911.448 1347.8 910.457L1322.22 892.223C1319.09 889.995 1314.93 893.021 1316.08 896.682L1325.52 926.643C1326.03 928.271 1325.45 930.044 1324.08 931.06L1298.84 949.751C1295.75 952.035 1297.34 956.931 1301.18 956.966L1332.59 957.249C1334.3 957.264 1335.81 958.36 1336.35 959.978L1346.32 989.764Z" fill="#E8C6C6" style="fill:#E8C6C6;fill:color(display-p3 0.9087 0.7755 0.7755);fill-opacity:1;" />
			<circle cx="1409.94" cy="823.659" r="53.4707" transform="rotate(180 1409.94 823.659)" fill="#E8C6C6" style="fill:#E8C6C6;fill:color(display-p3 0.9087 0.7755 0.7755);fill-opacity:1;" />
			<path d="M1320.81 871.129C1319.27 873.796 1315.42 873.796 1313.88 871.129L1247.12 755.486C1245.58 752.819 1247.5 749.486 1250.58 749.486L1384.12 749.486C1387.2 749.486 1389.12 752.819 1387.58 755.486L1320.81 871.129Z" fill="#E8C6C6" style="fill:#E8C6C6;fill:color(display-p3 0.9087 0.7755 0.7755);fill-opacity:1;" />
			<path d="M1214.71 863.772C1213.49 867.411 1208.34 867.411 1207.12 863.772L1197.15 833.986C1196.61 832.368 1195.1 831.272 1193.39 831.256L1161.98 830.973C1158.14 830.939 1156.55 826.043 1159.64 823.759L1184.88 805.067C1186.25 804.052 1186.83 802.278 1186.32 800.651L1176.88 770.69C1175.73 767.029 1179.89 764.003 1183.02 766.231L1208.59 784.465C1209.98 785.455 1211.85 785.455 1213.24 784.465L1238.82 766.231C1241.94 764.003 1246.11 767.029 1244.95 770.69L1235.52 800.651C1235 802.278 1235.58 804.052 1236.95 805.067L1262.2 823.759C1265.28 826.043 1263.69 830.939 1259.85 830.973L1228.44 831.256C1226.73 831.272 1225.23 832.368 1224.68 833.986L1214.71 863.772Z" fill="#E8C6C6" style="fill:#E8C6C6;fill:color(display-p3 0.9087 0.7755 0.7755);fill-opacity:1;" />
			<circle cx="34.3733" cy="34.3733" r="34.3733" transform="matrix(-4.37114e-08 -1 -1 4.37114e-08 1068 474.253)" fill="#E8C6C6" style="fill:#E8C6C6;fill:color(display-p3 0.9087 0.7755 0.7755);fill-opacity:1;" />
			<path d="M1062 383.824C1064.67 382.284 1064.67 378.435 1062 376.895L991.945 336.449C989.278 334.909 985.945 336.834 985.945 339.913L985.945 420.806C985.945 423.885 989.278 425.809 991.945 424.27L1062 383.824Z" fill="#E8C6C6" style="fill:#E8C6C6;fill:color(display-p3 0.9087 0.7755 0.7755);fill-opacity:1;" />
			<path d="M1055.37 315.732C1059.01 314.514 1059.01 309.366 1055.37 308.147L1041.23 303.412C1039.61 302.87 1038.52 301.361 1038.5 299.655L1038.37 284.747C1038.33 280.909 1033.44 279.318 1031.15 282.403L1022.28 294.385C1021.27 295.756 1019.49 296.332 1017.86 295.82L1003.64 291.341C999.984 290.187 996.958 294.352 999.186 297.478L1007.84 309.618C1008.83 311.007 1008.83 312.872 1007.84 314.261L999.186 326.401C996.958 329.527 999.984 333.692 1003.64 332.538L1017.86 328.059C1019.49 327.547 1021.27 328.123 1022.28 329.494L1031.15 341.476C1033.44 344.561 1038.33 342.97 1038.37 339.132L1038.5 324.224C1038.52 322.518 1039.61 321.009 1041.23 320.467L1055.37 315.732Z" fill="#E8C6C6" style="fill:#E8C6C6;fill:color(display-p3 0.9087 0.7755 0.7755);fill-opacity:1;" />
			<circle cx="952.633" cy="273.484" r="34.3733" transform="rotate(90 952.633 273.484)" fill="#E8C6C6" style="fill:#E8C6C6;fill:color(display-p3 0.9087 0.7755 0.7755);fill-opacity:1;" />
			<path d="M981.006 329.54C983.673 331.08 983.673 334.929 981.006 336.468L910.952 376.915C908.285 378.454 904.952 376.53 904.952 373.451L904.952 292.558C904.952 289.479 908.285 287.554 910.952 289.094L981.006 329.54Z" fill="#E8C6C6" style="fill:#E8C6C6;fill:color(display-p3 0.9087 0.7755 0.7755);fill-opacity:1;" />
			<path d="M974.375 397.631C978.014 398.85 978.014 403.998 974.375 405.217L960.238 409.952C958.62 410.494 957.523 412.002 957.508 413.709L957.374 428.617C957.339 432.455 952.443 434.046 950.159 430.961L941.288 418.979C940.272 417.608 938.499 417.031 936.871 417.544L922.651 422.023C918.99 423.176 915.964 419.012 918.192 415.886L926.846 403.746C927.837 402.357 927.837 400.492 926.847 399.102L918.192 386.962C915.964 383.837 918.99 379.672 922.651 380.825L936.871 385.305C938.499 385.817 940.272 385.241 941.288 383.87L950.159 371.887C952.443 368.803 957.339 370.393 957.374 374.232L957.508 389.14C957.523 390.846 958.62 392.355 960.238 392.897L974.375 397.631Z" fill="#E8C6C6" style="fill:#E8C6C6;fill:color(display-p3 0.9087 0.7755 0.7755);fill-opacity:1;" />
			<circle cx="34.3733" cy="34.3733" r="34.3733" transform="matrix(-4.37114e-08 -1 -1 4.37114e-08 1068 259.142)" fill="#E8C6C6" style="fill:#E8C6C6;fill:color(display-p3 0.9087 0.7755 0.7755);fill-opacity:1;" />
			<path d="M1062 168.713C1064.67 167.173 1064.67 163.324 1062 161.785L991.945 121.338C989.278 119.799 985.945 121.723 985.945 124.803L985.945 205.695C985.945 208.774 989.278 210.699 991.945 209.159L1062 168.713Z" fill="#E8C6C6" style="fill:#E8C6C6;fill:color(display-p3 0.9087 0.7755 0.7755);fill-opacity:1;" />
			<path d="M1055.37 100.622C1059.01 99.4029 1059.01 94.2549 1055.37 93.0359L1041.23 88.3014C1039.61 87.7595 1038.52 86.2508 1038.5 84.5444L1038.37 69.6362C1038.33 65.798 1033.44 64.2072 1031.15 67.292L1022.28 79.2741C1021.27 80.6456 1019.49 81.2218 1017.86 80.7092L1003.64 76.2299C999.984 75.0767 996.958 79.2416 999.186 82.367L1007.84 94.507C1008.83 95.8964 1008.83 97.7613 1007.84 99.1508L999.186 111.291C996.958 114.416 999.984 118.581 1003.64 117.428L1017.86 112.949C1019.49 112.436 1021.27 113.012 1022.28 114.384L1031.15 126.366C1033.44 129.451 1038.33 127.86 1038.37 124.022L1038.5 109.113C1038.52 107.407 1039.61 105.898 1041.23 105.356L1055.37 100.622Z" fill="#E8C6C6" style="fill:#E8C6C6;fill:color(display-p3 0.9087 0.7755 0.7755);fill-opacity:1;" />
			<circle cx="952.633" cy="58.3733" r="34.3733" transform="rotate(90 952.633 58.3733)" fill="#E8C6C6" style="fill:#E8C6C6;fill:color(display-p3 0.9087 0.7755 0.7755);fill-opacity:1;" />
			<path d="M981.006 114.43C983.673 115.969 983.673 119.818 981.006 121.358L910.952 161.804C908.285 163.344 904.952 161.419 904.952 158.34L904.952 77.4475C904.952 74.3683 908.285 72.4438 910.952 73.9834L981.006 114.43Z" fill="#E8C6C6" style="fill:#E8C6C6;fill:color(display-p3 0.9087 0.7755 0.7755);fill-opacity:1;" />
			<path d="M974.375 182.521C978.014 183.74 978.014 188.888 974.375 190.107L960.238 194.841C958.62 195.383 957.523 196.892 957.508 198.598L957.374 213.506C957.339 217.344 952.443 218.935 950.159 215.851L941.288 203.868C940.272 202.497 938.499 201.921 936.871 202.433L922.651 206.913C918.99 208.066 915.964 203.901 918.192 200.775L926.846 188.636C927.837 187.246 927.837 185.381 926.847 183.992L918.192 171.852C915.964 168.726 918.99 164.562 922.651 165.715L936.871 170.194C938.499 170.707 940.272 170.13 941.288 168.759L950.159 156.777C952.443 153.692 957.339 155.283 957.374 159.121L957.508 174.029C957.523 175.736 958.62 177.244 960.238 177.786L974.375 182.521Z" fill="#E8C6C6" style="fill:#E8C6C6;fill:color(display-p3 0.9087 0.7755 0.7755);fill-opacity:1;" />
			<circle cx="776.373" cy="439.88" r="34.3733" transform="rotate(-90 776.373 439.88)" fill="#E8C6C6" style="fill:#E8C6C6;fill:color(display-p3 0.9087 0.7755 0.7755);fill-opacity:1;" />
			<path d="M748 383.824C745.333 382.284 745.333 378.435 748 376.895L818.055 336.449C820.722 334.91 824.055 336.834 824.055 339.913L824.055 420.806C824.055 423.885 820.722 425.809 818.055 424.27L748 383.824Z" fill="#E8C6C6" style="fill:#E8C6C6;fill:color(display-p3 0.9087 0.7755 0.7755);fill-opacity:1;" />
			<path d="M754.632 315.733C750.992 314.514 750.992 309.366 754.632 308.147L768.769 303.412C770.387 302.87 771.483 301.361 771.499 299.655L771.633 284.747C771.667 280.909 776.563 279.318 778.847 282.403L787.719 294.385C788.734 295.756 790.508 296.333 792.135 295.82L806.355 291.341C810.016 290.187 813.042 294.352 810.814 297.478L802.16 309.618C801.17 311.007 801.17 312.872 802.16 314.261L810.814 326.401C813.042 329.527 810.016 333.692 806.355 332.539L792.135 328.059C790.508 327.547 788.734 328.123 787.719 329.494L778.847 341.476C776.563 344.561 771.667 342.97 771.633 339.132L771.499 324.224C771.483 322.518 770.387 321.009 768.769 320.467L754.632 315.733Z" fill="#E8C6C6" style="fill:#E8C6C6;fill:color(display-p3 0.9087 0.7755 0.7755);fill-opacity:1;" />
			<circle cx="34.3733" cy="34.3733" r="34.3733" transform="matrix(4.37114e-08 1 1 -4.37114e-08 822.994 239.111)" fill="#E8C6C6" style="fill:#E8C6C6;fill:color(display-p3 0.9087 0.7755 0.7755);fill-opacity:1;" />
			<path d="M828.994 329.54C826.327 331.08 826.327 334.929 828.994 336.469L899.049 376.915C901.715 378.454 905.049 376.53 905.049 373.451L905.049 292.558C905.049 289.479 901.715 287.555 899.049 289.094L828.994 329.54Z" fill="#E8C6C6" style="fill:#E8C6C6;fill:color(display-p3 0.9087 0.7755 0.7755);fill-opacity:1;" />
			<path d="M835.625 397.631C831.986 398.85 831.986 403.998 835.625 405.217L849.762 409.952C851.381 410.494 852.477 412.002 852.492 413.709L852.626 428.617C852.661 432.455 857.557 434.046 859.841 430.961L868.712 418.979C869.728 417.608 871.501 417.031 873.129 417.544L887.349 422.023C891.01 423.176 894.036 419.012 891.808 415.886L883.154 403.746C882.163 402.357 882.163 400.492 883.154 399.102L891.808 386.963C894.036 383.837 891.01 379.672 887.349 380.825L873.129 385.305C871.501 385.817 869.728 385.241 868.712 383.87L859.841 371.888C857.557 368.803 852.661 370.394 852.626 374.232L852.492 389.14C852.477 390.846 851.381 392.355 849.762 392.897L835.625 397.631Z" fill="#E8C6C6" style="fill:#E8C6C6;fill:color(display-p3 0.9087 0.7755 0.7755);fill-opacity:1;" />
			<circle cx="776.373" cy="224.769" r="34.3733" transform="rotate(-90 776.373 224.769)" fill="#E8C6C6" style="fill:#E8C6C6;fill:color(display-p3 0.9087 0.7755 0.7755);fill-opacity:1;" />
			<path d="M748 168.713C745.333 167.173 745.333 163.324 748 161.785L818.055 121.339C820.722 119.799 824.055 121.723 824.055 124.803L824.055 205.695C824.055 208.774 820.722 210.699 818.055 209.159L748 168.713Z" fill="#E8C6C6" style="fill:#E8C6C6;fill:color(display-p3 0.9087 0.7755 0.7755);fill-opacity:1;" />
			<path d="M754.632 100.622C750.992 99.403 750.992 94.255 754.632 93.036L768.769 88.3015C770.387 87.7596 771.483 86.2509 771.499 84.5445L771.633 69.6363C771.667 65.7981 776.563 64.2073 778.847 67.2921L787.719 79.2742C788.734 80.6456 790.508 81.2219 792.135 80.7092L806.355 76.23C810.016 75.0768 813.042 79.2417 810.814 82.3671L802.16 94.5071C801.17 95.8965 801.17 97.7614 802.16 99.1509L810.814 111.291C813.042 114.416 810.016 118.581 806.355 117.428L792.135 112.949C790.508 112.436 788.734 113.012 787.719 114.384L778.847 126.366C776.563 129.451 771.667 127.86 771.633 124.022L771.499 109.113C771.483 107.407 770.387 105.898 768.769 105.356L754.632 100.622Z" fill="#E8C6C6" style="fill:#E8C6C6;fill:color(display-p3 0.9087 0.7755 0.7755);fill-opacity:1;" />
			<circle cx="34.3733" cy="34.3733" r="34.3733" transform="matrix(4.37114e-08 1 1 -4.37114e-08 822.994 24.0001)" fill="#E8C6C6" style="fill:#E8C6C6;fill:color(display-p3 0.9087 0.7755 0.7755);fill-opacity:1;" />
			<path d="M828.994 114.43C826.327 115.969 826.327 119.818 828.994 121.358L899.049 161.804C901.715 163.344 905.049 161.419 905.049 158.34L905.049 77.4475C905.049 74.3683 901.715 72.4438 899.049 73.9834L828.994 114.43Z" fill="#E8C6C6" style="fill:#E8C6C6;fill:color(display-p3 0.9087 0.7755 0.7755);fill-opacity:1;" />
			<path d="M835.625 182.521C831.986 183.74 831.986 188.888 835.625 190.107L849.762 194.841C851.381 195.383 852.477 196.892 852.492 198.598L852.626 213.506C852.661 217.345 857.557 218.935 859.841 215.851L868.712 203.868C869.728 202.497 871.501 201.921 873.129 202.433L887.349 206.913C891.01 208.066 894.036 203.901 891.808 200.776L883.154 188.636C882.163 187.246 882.163 185.381 883.154 183.992L891.808 171.852C894.036 168.726 891.01 164.562 887.349 165.715L873.129 170.194C871.501 170.707 869.728 170.13 868.712 168.759L859.841 156.777C857.557 153.692 852.661 155.283 852.626 159.121L852.492 174.029C852.477 175.736 851.381 177.244 849.762 177.786L835.625 182.521Z" fill="#E8C6C6" style="fill:#E8C6C6;fill:color(display-p3 0.9087 0.7755 0.7755);fill-opacity:1;" />
			<circle cx="34.3733" cy="34.3733" r="34.3733" transform="matrix(-4.37114e-08 -1 -1 4.37114e-08 1406 474.253)" fill="#E8C6C6" style="fill:#E8C6C6;fill:color(display-p3 0.9087 0.7755 0.7755);fill-opacity:1;" />
			<path d="M1400 383.824C1402.67 382.284 1402.67 378.435 1400 376.895L1329.95 336.449C1327.28 334.909 1323.95 336.834 1323.95 339.913L1323.95 420.806C1323.95 423.885 1327.28 425.809 1329.95 424.27L1400 383.824Z" fill="#E8C6C6" style="fill:#E8C6C6;fill:color(display-p3 0.9087 0.7755 0.7755);fill-opacity:1;" />
			<path d="M1393.37 315.732C1397.01 314.514 1397.01 309.366 1393.37 308.147L1379.23 303.412C1377.61 302.87 1376.52 301.361 1376.5 299.655L1376.37 284.747C1376.33 280.909 1371.44 279.318 1369.15 282.403L1360.28 294.385C1359.27 295.756 1357.49 296.332 1355.86 295.82L1341.64 291.341C1337.98 290.187 1334.96 294.352 1337.19 297.478L1345.84 309.618C1346.83 311.007 1346.83 312.872 1345.84 314.261L1337.19 326.401C1334.96 329.527 1337.98 333.692 1341.64 332.538L1355.86 328.059C1357.49 327.547 1359.27 328.123 1360.28 329.494L1369.15 341.476C1371.44 344.561 1376.33 342.97 1376.37 339.132L1376.5 324.224C1376.52 322.518 1377.61 321.009 1379.23 320.467L1393.37 315.732Z" fill="#E8C6C6" style="fill:#E8C6C6;fill:color(display-p3 0.9087 0.7755 0.7755);fill-opacity:1;" />
			<circle cx="1290.63" cy="273.484" r="34.3733" transform="rotate(90 1290.63 273.484)" fill="#E8C6C6" style="fill:#E8C6C6;fill:color(display-p3 0.9087 0.7755 0.7755);fill-opacity:1;" />
			<path d="M1319.01 329.54C1321.67 331.08 1321.67 334.929 1319.01 336.468L1248.95 376.915C1246.28 378.454 1242.95 376.53 1242.95 373.451L1242.95 292.558C1242.95 289.479 1246.28 287.554 1248.95 289.094L1319.01 329.54Z" fill="#E8C6C6" style="fill:#E8C6C6;fill:color(display-p3 0.9087 0.7755 0.7755);fill-opacity:1;" />
			<path d="M1312.37 397.631C1316.01 398.85 1316.01 403.998 1312.37 405.217L1298.24 409.952C1296.62 410.494 1295.52 412.002 1295.51 413.709L1295.37 428.617C1295.34 432.455 1290.44 434.046 1288.16 430.961L1279.29 418.979C1278.27 417.608 1276.5 417.031 1274.87 417.544L1260.65 422.023C1256.99 423.176 1253.96 419.012 1256.19 415.886L1264.85 403.746C1265.84 402.357 1265.84 400.492 1264.85 399.102L1256.19 386.962C1253.96 383.837 1256.99 379.672 1260.65 380.825L1274.87 385.305C1276.5 385.817 1278.27 385.241 1279.29 383.87L1288.16 371.887C1290.44 368.803 1295.34 370.393 1295.37 374.232L1295.51 389.14C1295.52 390.846 1296.62 392.355 1298.24 392.897L1312.37 397.631Z" fill="#E8C6C6" style="fill:#E8C6C6;fill:color(display-p3 0.9087 0.7755 0.7755);fill-opacity:1;" />
			<circle cx="34.3733" cy="34.3733" r="34.3733" transform="matrix(-4.37114e-08 -1 -1 4.37114e-08 1406 259.142)" fill="#E8C6C6" style="fill:#E8C6C6;fill:color(display-p3 0.9087 0.7755 0.7755);fill-opacity:1;" />
			<path d="M1400 168.713C1402.67 167.173 1402.67 163.324 1400 161.785L1329.95 121.338C1327.28 119.799 1323.95 121.723 1323.95 124.803L1323.95 205.695C1323.95 208.774 1327.28 210.699 1329.95 209.159L1400 168.713Z" fill="#E8C6C6" style="fill:#E8C6C6;fill:color(display-p3 0.9087 0.7755 0.7755);fill-opacity:1;" />
			<path d="M1393.37 100.622C1397.01 99.4029 1397.01 94.2549 1393.37 93.0359L1379.23 88.3014C1377.61 87.7595 1376.52 86.2508 1376.5 84.5444L1376.37 69.6362C1376.33 65.798 1371.44 64.2072 1369.15 67.292L1360.28 79.2741C1359.27 80.6456 1357.49 81.2218 1355.86 80.7092L1341.64 76.2299C1337.98 75.0767 1334.96 79.2416 1337.19 82.367L1345.84 94.507C1346.83 95.8964 1346.83 97.7613 1345.84 99.1508L1337.19 111.291C1334.96 114.416 1337.98 118.581 1341.64 117.428L1355.86 112.949C1357.49 112.436 1359.27 113.012 1360.28 114.384L1369.15 126.366C1371.44 129.451 1376.33 127.86 1376.37 124.022L1376.5 109.113C1376.52 107.407 1377.61 105.898 1379.23 105.356L1393.37 100.622Z" fill="#E8C6C6" style="fill:#E8C6C6;fill:color(display-p3 0.9087 0.7755 0.7755);fill-opacity:1;" />
			<circle cx="1290.63" cy="58.3733" r="34.3733" transform="rotate(90 1290.63 58.3733)" fill="#E8C6C6" style="fill:#E8C6C6;fill:color(display-p3 0.9087 0.7755 0.7755);fill-opacity:1;" />
			<path d="M1319.01 114.43C1321.67 115.969 1321.67 119.818 1319.01 121.358L1248.95 161.804C1246.28 163.344 1242.95 161.419 1242.95 158.34L1242.95 77.4475C1242.95 74.3683 1246.28 72.4438 1248.95 73.9834L1319.01 114.43Z" fill="#E8C6C6" style="fill:#E8C6C6;fill:color(display-p3 0.9087 0.7755 0.7755);fill-opacity:1;" />
			<path d="M1312.37 182.521C1316.01 183.74 1316.01 188.888 1312.37 190.107L1298.24 194.841C1296.62 195.383 1295.52 196.892 1295.51 198.598L1295.37 213.506C1295.34 217.344 1290.44 218.935 1288.16 215.851L1279.29 203.868C1278.27 202.497 1276.5 201.921 1274.87 202.433L1260.65 206.913C1256.99 208.066 1253.96 203.901 1256.19 200.775L1264.85 188.636C1265.84 187.246 1265.84 185.381 1264.85 183.992L1256.19 171.852C1253.96 168.726 1256.99 164.562 1260.65 165.715L1274.87 170.194C1276.5 170.707 1278.27 170.13 1279.29 168.759L1288.16 156.777C1290.44 153.692 1295.34 155.283 1295.37 159.121L1295.51 174.029C1295.52 175.736 1296.62 177.244 1298.24 177.786L1312.37 182.521Z" fill="#E8C6C6" style="fill:#E8C6C6;fill:color(display-p3 0.9087 0.7755 0.7755);fill-opacity:1;" />
			<circle cx="1114.37" cy="439.88" r="34.3733" transform="rotate(-90 1114.37 439.88)" fill="#E8C6C6" style="fill:#E8C6C6;fill:color(display-p3 0.9087 0.7755 0.7755);fill-opacity:1;" />
			<path d="M1086 383.824C1083.33 382.284 1083.33 378.435 1086 376.895L1156.06 336.449C1158.72 334.91 1162.06 336.834 1162.06 339.913L1162.06 420.806C1162.06 423.885 1158.72 425.809 1156.06 424.27L1086 383.824Z" fill="#E8C6C6" style="fill:#E8C6C6;fill:color(display-p3 0.9087 0.7755 0.7755);fill-opacity:1;" />
			<path d="M1092.63 315.733C1088.99 314.514 1088.99 309.366 1092.63 308.147L1106.77 303.412C1108.39 302.87 1109.48 301.361 1109.5 299.655L1109.63 284.747C1109.67 280.909 1114.56 279.318 1116.85 282.403L1125.72 294.385C1126.73 295.756 1128.51 296.333 1130.14 295.82L1144.36 291.341C1148.02 290.187 1151.04 294.352 1148.81 297.478L1140.16 309.618C1139.17 311.007 1139.17 312.872 1140.16 314.261L1148.81 326.401C1151.04 329.527 1148.02 333.692 1144.36 332.539L1130.14 328.059C1128.51 327.547 1126.73 328.123 1125.72 329.494L1116.85 341.476C1114.56 344.561 1109.67 342.97 1109.63 339.132L1109.5 324.224C1109.48 322.518 1108.39 321.009 1106.77 320.467L1092.63 315.733Z" fill="#E8C6C6" style="fill:#E8C6C6;fill:color(display-p3 0.9087 0.7755 0.7755);fill-opacity:1;" />
			<circle cx="34.3733" cy="34.3733" r="34.3733" transform="matrix(4.37114e-08 1 1 -4.37114e-08 1160.99 239.111)" fill="#E8C6C6" style="fill:#E8C6C6;fill:color(display-p3 0.9087 0.7755 0.7755);fill-opacity:1;" />
			<path d="M1166.99 329.54C1164.33 331.08 1164.33 334.929 1166.99 336.469L1237.05 376.915C1239.72 378.454 1243.05 376.53 1243.05 373.451L1243.05 292.558C1243.05 289.479 1239.72 287.555 1237.05 289.094L1166.99 329.54Z" fill="#E8C6C6" style="fill:#E8C6C6;fill:color(display-p3 0.9087 0.7755 0.7755);fill-opacity:1;" />
			<path d="M1173.63 397.631C1169.99 398.85 1169.99 403.998 1173.63 405.217L1187.76 409.952C1189.38 410.494 1190.48 412.002 1190.49 413.709L1190.63 428.617C1190.66 432.455 1195.56 434.046 1197.84 430.961L1206.71 418.979C1207.73 417.608 1209.5 417.031 1211.13 417.544L1225.35 422.023C1229.01 423.176 1232.04 419.012 1229.81 415.886L1221.15 403.746C1220.16 402.357 1220.16 400.492 1221.15 399.102L1229.81 386.963C1232.04 383.837 1229.01 379.672 1225.35 380.825L1211.13 385.305C1209.5 385.817 1207.73 385.241 1206.71 383.87L1197.84 371.888C1195.56 368.803 1190.66 370.394 1190.63 374.232L1190.49 389.14C1190.48 390.846 1189.38 392.355 1187.76 392.897L1173.63 397.631Z" fill="#E8C6C6" style="fill:#E8C6C6;fill:color(display-p3 0.9087 0.7755 0.7755);fill-opacity:1;" />
			<circle cx="1114.37" cy="224.769" r="34.3733" transform="rotate(-90 1114.37 224.769)" fill="#E8C6C6" style="fill:#E8C6C6;fill:color(display-p3 0.9087 0.7755 0.7755);fill-opacity:1;" />
			<path d="M1086 168.713C1083.33 167.173 1083.33 163.324 1086 161.785L1156.06 121.339C1158.72 119.799 1162.06 121.723 1162.06 124.803L1162.06 205.695C1162.06 208.774 1158.72 210.699 1156.06 209.159L1086 168.713Z" fill="#E8C6C6" style="fill:#E8C6C6;fill:color(display-p3 0.9087 0.7755 0.7755);fill-opacity:1;" />
			<path d="M1092.63 100.622C1088.99 99.403 1088.99 94.255 1092.63 93.036L1106.77 88.3015C1108.39 87.7596 1109.48 86.2509 1109.5 84.5445L1109.63 69.6363C1109.67 65.7981 1114.56 64.2073 1116.85 67.2921L1125.72 79.2742C1126.73 80.6456 1128.51 81.2219 1130.14 80.7092L1144.36 76.23C1148.02 75.0768 1151.04 79.2417 1148.81 82.3671L1140.16 94.5071C1139.17 95.8965 1139.17 97.7614 1140.16 99.1509L1148.81 111.291C1151.04 114.416 1148.02 118.581 1144.36 117.428L1130.14 112.949C1128.51 112.436 1126.73 113.012 1125.72 114.384L1116.85 126.366C1114.56 129.451 1109.67 127.86 1109.63 124.022L1109.5 109.113C1109.48 107.407 1108.39 105.898 1106.77 105.356L1092.63 100.622Z" fill="#E8C6C6" style="fill:#E8C6C6;fill:color(display-p3 0.9087 0.7755 0.7755);fill-opacity:1;" />
			<circle cx="34.3733" cy="34.3733" r="34.3733" transform="matrix(4.37114e-08 1 1 -4.37114e-08 1160.99 24.0001)" fill="#E8C6C6" style="fill:#E8C6C6;fill:color(display-p3 0.9087 0.7755 0.7755);fill-opacity:1;" />
			<path d="M1166.99 114.43C1164.33 115.969 1164.33 119.818 1166.99 121.358L1237.05 161.804C1239.72 163.344 1243.05 161.419 1243.05 158.34L1243.05 77.4475C1243.05 74.3683 1239.72 72.4438 1237.05 73.9834L1166.99 114.43Z" fill="#E8C6C6" style="fill:#E8C6C6;fill:color(display-p3 0.9087 0.7755 0.7755);fill-opacity:1;" />
			<path d="M1173.63 182.521C1169.99 183.74 1169.99 188.888 1173.63 190.107L1187.76 194.841C1189.38 195.383 1190.48 196.892 1190.49 198.598L1190.63 213.506C1190.66 217.345 1195.56 218.935 1197.84 215.851L1206.71 203.868C1207.73 202.497 1209.5 201.921 1211.13 202.433L1225.35 206.913C1229.01 208.066 1232.04 203.901 1229.81 200.776L1221.15 188.636C1220.16 187.246 1220.16 185.381 1221.15 183.992L1229.81 171.852C1232.04 168.726 1229.01 164.562 1225.35 165.715L1211.13 170.194C1209.5 170.707 1207.73 170.13 1206.71 168.759L1197.84 156.777C1195.56 153.692 1190.66 155.283 1190.63 159.121L1190.49 174.029C1190.48 175.736 1189.38 177.244 1187.76 177.786L1173.63 182.521Z" fill="#E8C6C6" style="fill:#E8C6C6;fill:color(display-p3 0.9087 0.7755 0.7755);fill-opacity:1;" />
		</g>
	</g>
	<defs>
		<clipPath id="clip0_2_2">
			<rect width="1440" height="992" fill="white" style="fill:white;fill-opacity:1;" />
		</clipPath>
	</defs>
</svg>
