<svg width="2686" height="1166" viewBox="0 0 2686 1166" fill="none" xmlns="http://www.w3.org/2000/svg">
	<circle cx="210.5" cy="210.5" r="210.5" fill="#D2D2D2" fill-opacity="0.2" style="fill:#D2D2D2;fill:color(display-p3 0.8235 0.8235 0.8235);fill-opacity:0.2;" />
	<path d="M571.536 6.00003C573.075 3.33336 576.925 3.33333 578.464 6L861.654 496.5C863.194 499.167 861.27 502.5 858.19 502.5H291.81C288.731 502.5 286.806 499.167 288.346 496.5L571.536 6.00003Z" fill="#D2D2D2" fill-opacity="0.2" style="fill:#D2D2D2;fill:color(display-p3 0.8235 0.8235 0.8235);fill-opacity:0.2;" />
	<path d="M990.207 19.3255C991.426 15.6858 996.574 15.6858 997.793 19.3255L1050.86 177.786C1051.4 179.404 1052.91 180.5 1054.62 180.515L1221.72 182.02C1225.56 182.055 1227.15 186.951 1224.07 189.235L1089.76 288.673C1088.39 289.689 1087.81 291.462 1088.33 293.09L1138.53 452.48C1139.69 456.141 1135.52 459.167 1132.4 456.939L996.322 359.935C994.932 358.945 993.068 358.945 991.678 359.935L855.604 456.939C852.478 459.167 848.313 456.141 849.466 452.48L899.673 293.09C900.186 291.462 899.61 289.689 898.238 288.673L763.933 189.235C760.848 186.951 762.439 182.055 766.277 182.02L933.381 180.515C935.087 180.5 936.596 179.404 937.138 177.786L990.207 19.3255Z" fill="#D2D2D2" fill-opacity="0.2" style="fill:#D2D2D2;fill:color(display-p3 0.8235 0.8235 0.8235);fill-opacity:0.2;" />
	<circle cx="210.5" cy="210.5" r="210.5" transform="matrix(-1 0 0 1 1440 496)" fill="#D2D2D2" fill-opacity="0.2" style="fill:#D2D2D2;fill:color(display-p3 0.8235 0.8235 0.8235);fill-opacity:0.2;" />
	<path d="M868.464 502C866.925 499.333 863.075 499.333 861.536 502L578.346 992.5C576.806 995.167 578.73 998.5 581.81 998.5H1148.19C1151.27 998.5 1153.19 995.167 1151.65 992.5L868.464 502Z" fill="#D2D2D2" fill-opacity="0.2" style="fill:#D2D2D2;fill:color(display-p3 0.8235 0.8235 0.8235);fill-opacity:0.2;" />
	<path d="M449.793 515.325C448.574 511.686 443.426 511.686 442.207 515.325L389.138 673.786C388.596 675.404 387.087 676.5 385.381 676.515L218.277 678.02C214.439 678.055 212.848 682.951 215.933 685.235L350.238 784.673C351.61 785.689 352.186 787.462 351.673 789.09L301.466 948.48C300.313 952.141 304.478 955.167 307.604 952.939L443.678 855.935C445.068 854.945 446.932 854.945 448.322 855.935L584.396 952.939C587.522 955.167 591.687 952.141 590.534 948.48L540.327 789.09C539.814 787.462 540.39 785.689 541.762 784.673L676.067 685.235C679.152 682.951 677.561 678.055 673.723 678.02L506.619 676.515C504.913 676.5 503.404 675.404 502.862 673.786L449.793 515.325Z" fill="#D2D2D2" fill-opacity="0.2" style="fill:#D2D2D2;fill:color(display-p3 0.8235 0.8235 0.8235);fill-opacity:0.2;" />
	<circle cx="1456.5" cy="210.5" r="210.5" fill="#D2D2D2" fill-opacity="0.2" style="fill:#D2D2D2;fill:color(display-p3 0.8235 0.8235 0.8235);fill-opacity:0.2;" />
	<path d="M1817.54 6.00003C1819.08 3.33336 1822.92 3.33333 1824.46 6L2107.65 496.5C2109.19 499.167 2107.27 502.5 2104.19 502.5H1537.81C1534.73 502.5 1532.81 499.167 1534.35 496.5L1817.54 6.00003Z" fill="#D2D2D2" fill-opacity="0.2" style="fill:#D2D2D2;fill:color(display-p3 0.8235 0.8235 0.8235);fill-opacity:0.2;" />
	<path d="M2236.21 19.3255C2237.43 15.6858 2242.57 15.6858 2243.79 19.3255L2296.86 177.786C2297.4 179.404 2298.91 180.5 2300.62 180.515L2467.72 182.02C2471.56 182.055 2473.15 186.951 2470.07 189.235L2335.76 288.673C2334.39 289.689 2333.81 291.462 2334.33 293.09L2384.53 452.48C2385.69 456.141 2381.52 459.167 2378.4 456.939L2242.32 359.935C2240.93 358.945 2239.07 358.945 2237.68 359.935L2101.6 456.939C2098.48 459.167 2094.31 456.141 2095.47 452.48L2145.67 293.09C2146.19 291.462 2145.61 289.689 2144.24 288.673L2009.93 189.235C2006.85 186.951 2008.44 182.055 2012.28 182.02L2179.38 180.515C2181.09 180.5 2182.6 179.404 2183.14 177.786L2236.21 19.3255Z" fill="#D2D2D2" fill-opacity="0.2" style="fill:#D2D2D2;fill:color(display-p3 0.8235 0.8235 0.8235);fill-opacity:0.2;" />
	<circle cx="210.5" cy="210.5" r="210.5" transform="matrix(-1 0 0 1 2686 496)" fill="#D2D2D2" fill-opacity="0.2" style="fill:#D2D2D2;fill:color(display-p3 0.8235 0.8235 0.8235);fill-opacity:0.2;" />
	<path d="M2114.46 502C2112.92 499.333 2109.08 499.333 2107.54 502L1824.35 992.5C1822.81 995.167 1824.73 998.5 1827.81 998.5H2394.19C2397.27 998.5 2399.19 995.167 2397.65 992.5L2114.46 502Z" fill="#D2D2D2" fill-opacity="0.2" style="fill:#D2D2D2;fill:color(display-p3 0.8235 0.8235 0.8235);fill-opacity:0.2;" />
	<path d="M1695.79 515.325C1694.57 511.686 1689.43 511.686 1688.21 515.325L1635.14 673.786C1634.6 675.404 1633.09 676.5 1631.38 676.515L1464.28 678.02C1460.44 678.055 1458.85 682.951 1461.93 685.235L1596.24 784.673C1597.61 785.689 1598.19 787.462 1597.67 789.09L1547.47 948.48C1546.31 952.141 1550.48 955.167 1553.6 952.939L1689.68 855.935C1691.07 854.945 1692.93 854.945 1694.32 855.935L1830.4 952.939C1833.52 955.167 1837.69 952.141 1836.53 948.48L1786.33 789.09C1785.81 787.462 1786.39 785.689 1787.76 784.673L1922.07 685.235C1925.15 682.951 1923.56 678.055 1919.72 678.02L1752.62 676.515C1750.91 676.5 1749.4 675.404 1748.86 673.786L1695.79 515.325Z" fill="#D2D2D2" fill-opacity="0.2" style="fill:#D2D2D2;fill:color(display-p3 0.8235 0.8235 0.8235);fill-opacity:0.2;" />
</svg>
