<svg width="2922" height="1058" viewBox="0 0 2922 1058" fill="none" xmlns="http://www.w3.org/2000/svg">
	<circle cx="111.536" cy="111.536" r="111.536" fill="#D2D2D2" fill-opacity="0.5" style="fill:#D2D2D2;fill:color(display-p3 0.8235 0.8235 0.8235);fill-opacity:0.5;" />
	<path d="M301.206 5.99999C302.745 3.33332 306.594 3.33333 308.134 6L454.928 260.255C456.468 262.922 454.544 266.255 451.464 266.255H157.876C154.796 266.255 152.872 262.922 154.412 260.255L301.206 5.99999Z" fill="#D2D2D2" fill-opacity="0.5" style="fill:#D2D2D2;fill:color(display-p3 0.8235 0.8235 0.8235);fill-opacity:0.5;" />
	<path d="M522.889 15.5643C524.108 11.9247 529.256 11.9247 530.475 15.5644L556.385 92.9307C556.927 94.5487 558.436 95.6448 560.142 95.6602L641.728 96.3949C645.566 96.4294 647.157 101.325 644.072 103.609L578.499 152.159C577.128 153.174 576.552 154.948 577.064 156.576L601.577 234.396C602.731 238.057 598.566 241.083 595.44 238.855L529.004 191.494C527.614 190.503 525.749 190.503 524.36 191.494L457.923 238.855C454.798 241.083 450.633 238.057 451.786 234.396L476.299 156.576C476.812 154.948 476.235 153.174 474.864 152.159L409.291 103.609C406.206 101.325 407.797 96.4294 411.635 96.3949L493.222 95.6602C494.928 95.6448 496.437 94.5487 496.979 92.9306L522.889 15.5643Z" fill="#D2D2D2" fill-opacity="0.5" style="fill:#D2D2D2;fill:color(display-p3 0.8235 0.8235 0.8235);fill-opacity:0.5;" />
	<circle cx="111.536" cy="111.536" r="111.536" transform="matrix(-1 0 0 1 763 262.811)" fill="#D2D2D2" fill-opacity="0.5" style="fill:#D2D2D2;fill:color(display-p3 0.8235 0.8235 0.8235);fill-opacity:0.5;" />
	<path d="M461.794 268.811C460.255 266.144 456.406 266.144 454.866 268.811L308.072 523.066C306.532 525.733 308.456 529.066 311.536 529.066H605.124C608.204 529.066 610.128 525.733 608.588 523.066L461.794 268.811Z" fill="#D2D2D2" fill-opacity="0.5" style="fill:#D2D2D2;fill:color(display-p3 0.8235 0.8235 0.8235);fill-opacity:0.5;" />
	<path d="M240.111 278.375C238.892 274.736 233.744 274.736 232.525 278.375L206.615 355.742C206.073 357.36 204.564 358.456 202.858 358.471L121.272 359.206C117.434 359.241 115.843 364.137 118.928 366.421L184.501 414.97C185.872 415.986 186.448 417.759 185.936 419.387L161.423 497.207C160.269 500.868 164.434 503.894 167.56 501.666L233.996 454.305C235.386 453.314 237.251 453.314 238.64 454.305L305.077 501.666C308.202 503.894 312.367 500.868 311.214 497.207L286.701 419.387C286.188 417.759 286.765 415.986 288.136 414.97L353.709 366.421C356.794 364.137 355.203 359.241 351.365 359.206L269.778 358.471C268.072 358.456 266.563 357.36 266.021 355.742L240.111 278.375Z" fill="#D2D2D2" fill-opacity="0.5" style="fill:#D2D2D2;fill:color(display-p3 0.8235 0.8235 0.8235);fill-opacity:0.5;" />
	<circle cx="809.536" cy="111.536" r="111.536" fill="#D2D2D2" fill-opacity="0.5" style="fill:#D2D2D2;fill:color(display-p3 0.8235 0.8235 0.8235);fill-opacity:0.5;" />
	<path d="M999.206 5.99999C1000.75 3.33332 1004.59 3.33333 1006.13 6L1152.93 260.255C1154.47 262.922 1152.54 266.255 1149.46 266.255H855.876C852.796 266.255 850.872 262.922 852.412 260.255L999.206 5.99999Z" fill="#D2D2D2" fill-opacity="0.5" style="fill:#D2D2D2;fill:color(display-p3 0.8235 0.8235 0.8235);fill-opacity:0.5;" />
	<path d="M1220.89 15.5643C1222.11 11.9247 1227.26 11.9247 1228.47 15.5644L1254.38 92.9307C1254.93 94.5487 1256.44 95.6448 1258.14 95.6602L1339.73 96.3949C1343.57 96.4294 1345.16 101.325 1342.07 103.609L1276.5 152.159C1275.13 153.174 1274.55 154.948 1275.06 156.576L1299.58 234.396C1300.73 238.057 1296.57 241.083 1293.44 238.855L1227 191.494C1225.61 190.503 1223.75 190.503 1222.36 191.494L1155.92 238.855C1152.8 241.083 1148.63 238.057 1149.79 234.396L1174.3 156.576C1174.81 154.948 1174.24 153.174 1172.86 152.159L1107.29 103.609C1104.21 101.325 1105.8 96.4294 1109.64 96.3949L1191.22 95.6602C1192.93 95.6448 1194.44 94.5487 1194.98 92.9306L1220.89 15.5643Z" fill="#D2D2D2" fill-opacity="0.5" style="fill:#D2D2D2;fill:color(display-p3 0.8235 0.8235 0.8235);fill-opacity:0.5;" />
	<circle cx="111.536" cy="111.536" r="111.536" transform="matrix(-1 0 0 1 1461 262.811)" fill="#D2D2D2" fill-opacity="0.5" style="fill:#D2D2D2;fill:color(display-p3 0.8235 0.8235 0.8235);fill-opacity:0.5;" />
	<path d="M1159.79 268.811C1158.25 266.144 1154.41 266.144 1152.87 268.811L1006.07 523.066C1004.53 525.733 1006.46 529.066 1009.54 529.066H1303.12C1306.2 529.066 1308.13 525.733 1306.59 523.066L1159.79 268.811Z" fill="#D2D2D2" fill-opacity="0.5" style="fill:#D2D2D2;fill:color(display-p3 0.8235 0.8235 0.8235);fill-opacity:0.5;" />
	<path d="M938.111 278.375C936.892 274.736 931.744 274.736 930.525 278.375L904.615 355.742C904.073 357.36 902.564 358.456 900.858 358.471L819.272 359.206C815.434 359.241 813.843 364.137 816.928 366.421L882.501 414.97C883.872 415.986 884.448 417.759 883.936 419.387L859.423 497.207C858.269 500.868 862.434 503.894 865.56 501.666L931.996 454.305C933.386 453.314 935.251 453.314 936.64 454.305L1003.08 501.666C1006.2 503.894 1010.37 500.868 1009.21 497.207L984.701 419.387C984.188 417.759 984.765 415.986 986.136 414.97L1051.71 366.421C1054.79 364.137 1053.2 359.241 1049.36 359.206L967.778 358.471C966.072 358.456 964.563 357.36 964.021 355.742L938.111 278.375Z" fill="#D2D2D2" fill-opacity="0.5" style="fill:#D2D2D2;fill:color(display-p3 0.8235 0.8235 0.8235);fill-opacity:0.5;" />
	<circle cx="111.536" cy="111.536" r="111.536" transform="matrix(1 0 0 -1 0 1057.82)" fill="#D2D2D2" fill-opacity="0.5" style="fill:#D2D2D2;fill:color(display-p3 0.8235 0.8235 0.8235);fill-opacity:0.5;" />
	<path d="M301.206 1051.82C302.745 1054.48 306.594 1054.48 308.134 1051.82L454.928 797.563C456.468 794.896 454.544 791.563 451.464 791.563H157.876C154.796 791.563 152.872 794.896 154.412 797.563L301.206 1051.82Z" fill="#D2D2D2" fill-opacity="0.5" style="fill:#D2D2D2;fill:color(display-p3 0.8235 0.8235 0.8235);fill-opacity:0.5;" />
	<path d="M522.889 1042.25C524.108 1045.89 529.256 1045.89 530.475 1042.25L556.385 964.887C556.927 963.269 558.436 962.173 560.142 962.158L641.728 961.423C645.566 961.389 647.157 956.493 644.072 954.209L578.499 905.659C577.128 904.644 576.552 902.87 577.064 901.242L601.577 823.422C602.731 819.761 598.566 816.735 595.44 818.963L529.004 866.324C527.614 867.315 525.749 867.315 524.36 866.324L457.923 818.963C454.798 816.735 450.633 819.761 451.786 823.422L476.299 901.242C476.812 902.87 476.235 904.644 474.864 905.659L409.291 954.209C406.206 956.493 407.797 961.389 411.635 961.423L493.222 962.158C494.928 962.173 496.437 963.269 496.979 964.887L522.889 1042.25Z" fill="#D2D2D2" fill-opacity="0.5" style="fill:#D2D2D2;fill:color(display-p3 0.8235 0.8235 0.8235);fill-opacity:0.5;" />
	<circle cx="651.464" cy="683.471" r="111.536" transform="rotate(-180 651.464 683.471)" fill="#D2D2D2" fill-opacity="0.5" style="fill:#D2D2D2;fill:color(display-p3 0.8235 0.8235 0.8235);fill-opacity:0.5;" />
	<path d="M461.794 789.007C460.255 791.674 456.406 791.674 454.866 789.007L308.072 534.752C306.532 532.085 308.456 528.752 311.536 528.752H605.124C608.204 528.752 610.128 532.085 608.588 534.752L461.794 789.007Z" fill="#D2D2D2" fill-opacity="0.5" style="fill:#D2D2D2;fill:color(display-p3 0.8235 0.8235 0.8235);fill-opacity:0.5;" />
	<path d="M240.111 779.443C238.892 783.082 233.744 783.082 232.525 779.443L206.615 702.076C206.073 700.458 204.564 699.362 202.858 699.347L121.272 698.612C117.434 698.578 115.843 693.681 118.928 691.398L184.501 642.848C185.872 641.832 186.448 640.059 185.936 638.431L161.423 560.611C160.269 556.95 164.434 553.924 167.56 556.152L233.996 603.513C235.386 604.504 237.251 604.504 238.64 603.513L305.077 556.152C308.202 553.924 312.367 556.95 311.214 560.611L286.701 638.431C286.188 640.059 286.765 641.832 288.136 642.848L353.709 691.398C356.794 693.681 355.203 698.578 351.365 698.612L269.778 699.347C268.072 699.362 266.563 700.458 266.021 702.076L240.111 779.443Z" fill="#D2D2D2" fill-opacity="0.5" style="fill:#D2D2D2;fill:color(display-p3 0.8235 0.8235 0.8235);fill-opacity:0.5;" />
	<circle cx="111.536" cy="111.536" r="111.536" transform="matrix(1 0 0 -1 698 1057.82)" fill="#D2D2D2" fill-opacity="0.5" style="fill:#D2D2D2;fill:color(display-p3 0.8235 0.8235 0.8235);fill-opacity:0.5;" />
	<path d="M999.206 1051.82C1000.75 1054.48 1004.59 1054.48 1006.13 1051.82L1152.93 797.563C1154.47 794.896 1152.54 791.563 1149.46 791.563H855.876C852.796 791.563 850.872 794.896 852.412 797.563L999.206 1051.82Z" fill="#D2D2D2" fill-opacity="0.5" style="fill:#D2D2D2;fill:color(display-p3 0.8235 0.8235 0.8235);fill-opacity:0.5;" />
	<path d="M1220.89 1042.25C1222.11 1045.89 1227.26 1045.89 1228.47 1042.25L1254.38 964.887C1254.93 963.269 1256.44 962.173 1258.14 962.158L1339.73 961.423C1343.57 961.389 1345.16 956.493 1342.07 954.209L1276.5 905.659C1275.13 904.644 1274.55 902.87 1275.06 901.242L1299.58 823.422C1300.73 819.761 1296.57 816.735 1293.44 818.963L1227 866.324C1225.61 867.315 1223.75 867.315 1222.36 866.324L1155.92 818.963C1152.8 816.735 1148.63 819.761 1149.79 823.422L1174.3 901.242C1174.81 902.87 1174.24 904.644 1172.86 905.659L1107.29 954.209C1104.21 956.493 1105.8 961.389 1109.64 961.423L1191.22 962.158C1192.93 962.173 1194.44 963.269 1194.98 964.887L1220.89 1042.25Z" fill="#D2D2D2" fill-opacity="0.5" style="fill:#D2D2D2;fill:color(display-p3 0.8235 0.8235 0.8235);fill-opacity:0.5;" />
	<circle cx="1349.46" cy="683.471" r="111.536" transform="rotate(-180 1349.46 683.471)" fill="#D2D2D2" fill-opacity="0.5" style="fill:#D2D2D2;fill:color(display-p3 0.8235 0.8235 0.8235);fill-opacity:0.5;" />
	<path d="M1159.79 789.007C1158.25 791.674 1154.41 791.674 1152.87 789.007L1006.07 534.752C1004.53 532.085 1006.46 528.752 1009.54 528.752H1303.12C1306.2 528.752 1308.13 532.085 1306.59 534.752L1159.79 789.007Z" fill="#D2D2D2" fill-opacity="0.5" style="fill:#D2D2D2;fill:color(display-p3 0.8235 0.8235 0.8235);fill-opacity:0.5;" />
	<path d="M938.111 779.443C936.892 783.082 931.744 783.082 930.525 779.443L904.615 702.076C904.073 700.458 902.564 699.362 900.858 699.347L819.272 698.612C815.434 698.578 813.843 693.681 816.928 691.398L882.501 642.848C883.872 641.832 884.448 640.059 883.936 638.431L859.423 560.611C858.269 556.95 862.434 553.924 865.56 556.152L931.996 603.513C933.386 604.504 935.251 604.504 936.64 603.513L1003.08 556.152C1006.2 553.924 1010.37 556.95 1009.21 560.611L984.701 638.431C984.188 640.059 984.765 641.832 986.136 642.848L1051.71 691.398C1054.79 693.681 1053.2 698.578 1049.36 698.612L967.778 699.347C966.072 699.362 964.563 700.458 964.021 702.076L938.111 779.443Z" fill="#D2D2D2" fill-opacity="0.5" style="fill:#D2D2D2;fill:color(display-p3 0.8235 0.8235 0.8235);fill-opacity:0.5;" />
	<circle cx="1572.54" cy="111.536" r="111.536" fill="#D2D2D2" fill-opacity="0.5" style="fill:#D2D2D2;fill:color(display-p3 0.8235 0.8235 0.8235);fill-opacity:0.5;" />
	<path d="M1762.21 5.99999C1763.75 3.33332 1767.59 3.33333 1769.13 6L1915.93 260.255C1917.47 262.922 1915.54 266.255 1912.46 266.255H1618.88C1615.8 266.255 1613.87 262.922 1615.41 260.255L1762.21 5.99999Z" fill="#D2D2D2" fill-opacity="0.5" style="fill:#D2D2D2;fill:color(display-p3 0.8235 0.8235 0.8235);fill-opacity:0.5;" />
	<path d="M1983.89 15.5643C1985.11 11.9247 1990.26 11.9247 1991.47 15.5644L2017.38 92.9307C2017.93 94.5487 2019.44 95.6448 2021.14 95.6602L2102.73 96.3949C2106.57 96.4294 2108.16 101.325 2105.07 103.609L2039.5 152.159C2038.13 153.174 2037.55 154.948 2038.06 156.576L2062.58 234.396C2063.73 238.057 2059.57 241.083 2056.44 238.855L1990 191.494C1988.61 190.503 1986.75 190.503 1985.36 191.494L1918.92 238.855C1915.8 241.083 1911.63 238.057 1912.79 234.396L1937.3 156.576C1937.81 154.948 1937.24 153.174 1935.86 152.159L1870.29 103.609C1867.21 101.325 1868.8 96.4294 1872.64 96.3949L1954.22 95.6602C1955.93 95.6448 1957.44 94.5487 1957.98 92.9306L1983.89 15.5643Z" fill="#D2D2D2" fill-opacity="0.5" style="fill:#D2D2D2;fill:color(display-p3 0.8235 0.8235 0.8235);fill-opacity:0.5;" />
	<circle cx="111.536" cy="111.536" r="111.536" transform="matrix(-1 0 0 1 2224 262.811)" fill="#D2D2D2" fill-opacity="0.5" style="fill:#D2D2D2;fill:color(display-p3 0.8235 0.8235 0.8235);fill-opacity:0.5;" />
	<path d="M1922.79 268.811C1921.25 266.144 1917.41 266.144 1915.87 268.811L1769.07 523.066C1767.53 525.733 1769.46 529.066 1772.54 529.066H2066.12C2069.2 529.066 2071.13 525.733 2069.59 523.066L1922.79 268.811Z" fill="#D2D2D2" fill-opacity="0.5" style="fill:#D2D2D2;fill:color(display-p3 0.8235 0.8235 0.8235);fill-opacity:0.5;" />
	<path d="M1701.11 278.375C1699.89 274.736 1694.74 274.736 1693.53 278.375L1667.62 355.742C1667.07 357.36 1665.56 358.456 1663.86 358.471L1582.27 359.206C1578.43 359.241 1576.84 364.137 1579.93 366.421L1645.5 414.97C1646.87 415.986 1647.45 417.759 1646.94 419.387L1622.42 497.207C1621.27 500.868 1625.43 503.894 1628.56 501.666L1695 454.305C1696.39 453.314 1698.25 453.314 1699.64 454.305L1766.08 501.666C1769.2 503.894 1773.37 500.868 1772.21 497.207L1747.7 419.387C1747.19 417.759 1747.76 415.986 1749.14 414.97L1814.71 366.421C1817.79 364.137 1816.2 359.241 1812.36 359.206L1730.78 358.471C1729.07 358.456 1727.56 357.36 1727.02 355.742L1701.11 278.375Z" fill="#D2D2D2" fill-opacity="0.5" style="fill:#D2D2D2;fill:color(display-p3 0.8235 0.8235 0.8235);fill-opacity:0.5;" />
	<circle cx="2270.54" cy="111.536" r="111.536" fill="#D2D2D2" fill-opacity="0.5" style="fill:#D2D2D2;fill:color(display-p3 0.8235 0.8235 0.8235);fill-opacity:0.5;" />
	<path d="M2460.21 5.99999C2461.75 3.33332 2465.59 3.33333 2467.13 6L2613.93 260.255C2615.47 262.922 2613.54 266.255 2610.46 266.255H2316.88C2313.8 266.255 2311.87 262.922 2313.41 260.255L2460.21 5.99999Z" fill="#D2D2D2" fill-opacity="0.5" style="fill:#D2D2D2;fill:color(display-p3 0.8235 0.8235 0.8235);fill-opacity:0.5;" />
	<path d="M2681.89 15.5643C2683.11 11.9247 2688.26 11.9247 2689.47 15.5644L2715.38 92.9307C2715.93 94.5487 2717.44 95.6448 2719.14 95.6602L2800.73 96.3949C2804.57 96.4294 2806.16 101.325 2803.07 103.609L2737.5 152.159C2736.13 153.174 2735.55 154.948 2736.06 156.576L2760.58 234.396C2761.73 238.057 2757.57 241.083 2754.44 238.855L2688 191.494C2686.61 190.503 2684.75 190.503 2683.36 191.494L2616.92 238.855C2613.8 241.083 2609.63 238.057 2610.79 234.396L2635.3 156.576C2635.81 154.948 2635.24 153.174 2633.86 152.159L2568.29 103.609C2565.21 101.325 2566.8 96.4294 2570.64 96.3949L2652.22 95.6602C2653.93 95.6448 2655.44 94.5487 2655.98 92.9306L2681.89 15.5643Z" fill="#D2D2D2" fill-opacity="0.5" style="fill:#D2D2D2;fill:color(display-p3 0.8235 0.8235 0.8235);fill-opacity:0.5;" />
	<circle cx="111.536" cy="111.536" r="111.536" transform="matrix(-1 0 0 1 2922 262.811)" fill="#D2D2D2" fill-opacity="0.5" style="fill:#D2D2D2;fill:color(display-p3 0.8235 0.8235 0.8235);fill-opacity:0.5;" />
	<path d="M2620.79 268.811C2619.25 266.144 2615.41 266.144 2613.87 268.811L2467.07 523.066C2465.53 525.733 2467.46 529.066 2470.54 529.066H2764.12C2767.2 529.066 2769.13 525.733 2767.59 523.066L2620.79 268.811Z" fill="#D2D2D2" fill-opacity="0.5" style="fill:#D2D2D2;fill:color(display-p3 0.8235 0.8235 0.8235);fill-opacity:0.5;" />
	<path d="M2399.11 278.375C2397.89 274.736 2392.74 274.736 2391.53 278.375L2365.62 355.742C2365.07 357.36 2363.56 358.456 2361.86 358.471L2280.27 359.206C2276.43 359.241 2274.84 364.137 2277.93 366.421L2343.5 414.97C2344.87 415.986 2345.45 417.759 2344.94 419.387L2320.42 497.207C2319.27 500.868 2323.43 503.894 2326.56 501.666L2393 454.305C2394.39 453.314 2396.25 453.314 2397.64 454.305L2464.08 501.666C2467.2 503.894 2471.37 500.868 2470.21 497.207L2445.7 419.387C2445.19 417.759 2445.76 415.986 2447.14 414.97L2512.71 366.421C2515.79 364.137 2514.2 359.241 2510.36 359.206L2428.78 358.471C2427.07 358.456 2425.56 357.36 2425.02 355.742L2399.11 278.375Z" fill="#D2D2D2" fill-opacity="0.5" style="fill:#D2D2D2;fill:color(display-p3 0.8235 0.8235 0.8235);fill-opacity:0.5;" />
	<circle cx="111.536" cy="111.536" r="111.536" transform="matrix(1 0 0 -1 1461 1057.82)" fill="#D2D2D2" fill-opacity="0.5" style="fill:#D2D2D2;fill:color(display-p3 0.8235 0.8235 0.8235);fill-opacity:0.5;" />
	<path d="M1762.21 1051.82C1763.75 1054.48 1767.59 1054.48 1769.13 1051.82L1915.93 797.563C1917.47 794.896 1915.54 791.563 1912.46 791.563H1618.88C1615.8 791.563 1613.87 794.896 1615.41 797.563L1762.21 1051.82Z" fill="#D2D2D2" fill-opacity="0.5" style="fill:#D2D2D2;fill:color(display-p3 0.8235 0.8235 0.8235);fill-opacity:0.5;" />
	<path d="M1983.89 1042.25C1985.11 1045.89 1990.26 1045.89 1991.47 1042.25L2017.38 964.887C2017.93 963.269 2019.44 962.173 2021.14 962.158L2102.73 961.423C2106.57 961.389 2108.16 956.493 2105.07 954.209L2039.5 905.659C2038.13 904.644 2037.55 902.87 2038.06 901.242L2062.58 823.422C2063.73 819.761 2059.57 816.735 2056.44 818.963L1990 866.324C1988.61 867.315 1986.75 867.315 1985.36 866.324L1918.92 818.963C1915.8 816.735 1911.63 819.761 1912.79 823.422L1937.3 901.242C1937.81 902.87 1937.24 904.644 1935.86 905.659L1870.29 954.209C1867.21 956.493 1868.8 961.389 1872.64 961.423L1954.22 962.158C1955.93 962.173 1957.44 963.269 1957.98 964.887L1983.89 1042.25Z" fill="#D2D2D2" fill-opacity="0.5" style="fill:#D2D2D2;fill:color(display-p3 0.8235 0.8235 0.8235);fill-opacity:0.5;" />
	<circle cx="2112.46" cy="683.471" r="111.536" transform="rotate(-180 2112.46 683.471)" fill="#D2D2D2" fill-opacity="0.5" style="fill:#D2D2D2;fill:color(display-p3 0.8235 0.8235 0.8235);fill-opacity:0.5;" />
	<path d="M1922.79 789.007C1921.25 791.674 1917.41 791.674 1915.87 789.007L1769.07 534.752C1767.53 532.085 1769.46 528.752 1772.54 528.752H2066.12C2069.2 528.752 2071.13 532.085 2069.59 534.752L1922.79 789.007Z" fill="#D2D2D2" fill-opacity="0.5" style="fill:#D2D2D2;fill:color(display-p3 0.8235 0.8235 0.8235);fill-opacity:0.5;" />
	<path d="M1701.11 779.443C1699.89 783.082 1694.74 783.082 1693.53 779.443L1667.62 702.076C1667.07 700.458 1665.56 699.362 1663.86 699.347L1582.27 698.612C1578.43 698.578 1576.84 693.681 1579.93 691.398L1645.5 642.848C1646.87 641.832 1647.45 640.059 1646.94 638.431L1622.42 560.611C1621.27 556.95 1625.43 553.924 1628.56 556.152L1695 603.513C1696.39 604.504 1698.25 604.504 1699.64 603.513L1766.08 556.152C1769.2 553.924 1773.37 556.95 1772.21 560.611L1747.7 638.431C1747.19 640.059 1747.76 641.832 1749.14 642.848L1814.71 691.398C1817.79 693.681 1816.2 698.578 1812.36 698.612L1730.78 699.347C1729.07 699.362 1727.56 700.458 1727.02 702.076L1701.11 779.443Z" fill="#D2D2D2" fill-opacity="0.5" style="fill:#D2D2D2;fill:color(display-p3 0.8235 0.8235 0.8235);fill-opacity:0.5;" />
	<circle cx="111.536" cy="111.536" r="111.536" transform="matrix(1 0 0 -1 2159 1057.82)" fill="#D2D2D2" fill-opacity="0.5" style="fill:#D2D2D2;fill:color(display-p3 0.8235 0.8235 0.8235);fill-opacity:0.5;" />
	<path d="M2460.21 1051.82C2461.75 1054.48 2465.59 1054.48 2467.13 1051.82L2613.93 797.563C2615.47 794.896 2613.54 791.563 2610.46 791.563H2316.88C2313.8 791.563 2311.87 794.896 2313.41 797.563L2460.21 1051.82Z" fill="#D2D2D2" fill-opacity="0.5" style="fill:#D2D2D2;fill:color(display-p3 0.8235 0.8235 0.8235);fill-opacity:0.5;" />
	<path d="M2681.89 1042.25C2683.11 1045.89 2688.26 1045.89 2689.47 1042.25L2715.38 964.887C2715.93 963.269 2717.44 962.173 2719.14 962.158L2800.73 961.423C2804.57 961.389 2806.16 956.493 2803.07 954.209L2737.5 905.659C2736.13 904.644 2735.55 902.87 2736.06 901.242L2760.58 823.422C2761.73 819.761 2757.57 816.735 2754.44 818.963L2688 866.324C2686.61 867.315 2684.75 867.315 2683.36 866.324L2616.92 818.963C2613.8 816.735 2609.63 819.761 2610.79 823.422L2635.3 901.242C2635.81 902.87 2635.24 904.644 2633.86 905.659L2568.29 954.209C2565.21 956.493 2566.8 961.389 2570.64 961.423L2652.22 962.158C2653.93 962.173 2655.44 963.269 2655.98 964.887L2681.89 1042.25Z" fill="#D2D2D2" fill-opacity="0.5" style="fill:#D2D2D2;fill:color(display-p3 0.8235 0.8235 0.8235);fill-opacity:0.5;" />
	<circle cx="2810.46" cy="683.471" r="111.536" transform="rotate(-180 2810.46 683.471)" fill="#D2D2D2" fill-opacity="0.5" style="fill:#D2D2D2;fill:color(display-p3 0.8235 0.8235 0.8235);fill-opacity:0.5;" />
	<path d="M2620.79 789.007C2619.25 791.674 2615.41 791.674 2613.87 789.007L2467.07 534.752C2465.53 532.085 2467.46 528.752 2470.54 528.752H2764.12C2767.2 528.752 2769.13 532.085 2767.59 534.752L2620.79 789.007Z" fill="#D2D2D2" fill-opacity="0.5" style="fill:#D2D2D2;fill:color(display-p3 0.8235 0.8235 0.8235);fill-opacity:0.5;" />
	<path d="M2399.11 779.443C2397.89 783.082 2392.74 783.082 2391.53 779.443L2365.62 702.076C2365.07 700.458 2363.56 699.362 2361.86 699.347L2280.27 698.612C2276.43 698.578 2274.84 693.681 2277.93 691.398L2343.5 642.848C2344.87 641.832 2345.45 640.059 2344.94 638.431L2320.42 560.611C2319.27 556.95 2323.43 553.924 2326.56 556.152L2393 603.513C2394.39 604.504 2396.25 604.504 2397.64 603.513L2464.08 556.152C2467.2 553.924 2471.37 556.95 2470.21 560.611L2445.7 638.431C2445.19 640.059 2445.76 641.832 2447.14 642.848L2512.71 691.398C2515.79 693.681 2514.2 698.578 2510.36 698.612L2428.78 699.347C2427.07 699.362 2425.56 700.458 2425.02 702.076L2399.11 779.443Z" fill="#D2D2D2" fill-opacity="0.5" style="fill:#D2D2D2;fill:color(display-p3 0.8235 0.8235 0.8235);fill-opacity:0.5;" />
</svg>
