<svg width="1452" height="1977" viewBox="0 0 1452 1977" fill="none" xmlns="http://www.w3.org/2000/svg">
	<circle cx="640.188" cy="1063.46" r="75.4572" transform="rotate(90 640.188 1063.46)" fill="#E8C6C6" style="fill:#E8C6C6;fill:color(display-p3 0.9087 0.7755 0.7755);fill-opacity:1;" />
	<path d="M709.645 1190.65C712.312 1192.19 712.312 1196.04 709.645 1197.58L541.516 1294.65C538.849 1296.19 535.516 1294.27 535.516 1291.19L535.516 1097.05C535.516 1093.97 538.849 1092.04 541.516 1093.58L709.645 1190.65Z" fill="#E8C6C6" style="fill:#E8C6C6;fill:color(display-p3 0.9087 0.7755 0.7755);fill-opacity:1;" />
	<path d="M701.452 1340.52C705.092 1341.74 705.092 1346.89 701.452 1348.11L653.649 1364.12C652.031 1364.66 650.935 1366.17 650.92 1367.87L650.466 1418.28C650.431 1422.12 645.535 1423.71 643.251 1420.63L613.254 1380.11C612.238 1378.74 610.465 1378.17 608.837 1378.68L560.754 1393.82C557.093 1394.98 554.067 1390.81 556.295 1387.69L585.558 1346.64C586.549 1345.25 586.549 1343.38 585.558 1341.99L556.295 1300.94C554.067 1297.82 557.093 1293.65 560.754 1294.81L608.837 1309.95C610.465 1310.47 612.238 1309.89 613.254 1308.52L643.251 1268C645.535 1264.92 650.431 1266.51 650.466 1270.35L650.92 1320.76C650.935 1322.46 652.031 1323.97 653.649 1324.51L701.452 1340.52Z" fill="#E8C6C6" style="fill:#E8C6C6;fill:color(display-p3 0.9087 0.7755 0.7755);fill-opacity:1;" />
	<circle cx="75.4572" cy="75.4572" r="75.4572" transform="matrix(4.37114e-08 -1 -1 -4.37114e-08 537.846 1504.19)" fill="#E8C6C6" style="fill:#E8C6C6;fill:color(display-p3 0.9087 0.7755 0.7755);fill-opacity:1;" />
	<path d="M531.846 1301.54C534.512 1300 534.512 1296.15 531.846 1294.61L363.716 1197.54C361.05 1196 357.716 1197.92 357.716 1201L357.716 1395.14C357.716 1398.22 361.05 1400.15 363.716 1398.61L531.846 1301.54Z" fill="#E8C6C6" style="fill:#E8C6C6;fill:color(display-p3 0.9087 0.7755 0.7755);fill-opacity:1;" />
	<path d="M523.653 1151.67C527.292 1150.45 527.292 1145.3 523.653 1144.08L475.85 1128.07C474.232 1127.53 473.136 1126.02 473.121 1124.32L472.667 1073.91C472.632 1070.07 467.736 1068.48 465.452 1071.56L435.455 1112.08C434.439 1113.45 432.666 1114.03 431.038 1113.51L382.955 1098.37C379.294 1097.21 376.268 1101.38 378.496 1104.5L407.759 1145.55C408.75 1146.94 408.75 1148.81 407.759 1150.2L378.496 1191.25C376.268 1194.37 379.294 1198.54 382.955 1197.38L431.038 1182.24C432.666 1181.73 434.439 1182.3 435.455 1183.67L465.452 1224.19C467.736 1227.27 472.632 1225.68 472.667 1221.85L473.121 1171.44C473.136 1169.73 474.232 1168.22 475.85 1167.68L523.653 1151.67Z" fill="#E8C6C6" style="fill:#E8C6C6;fill:color(display-p3 0.9087 0.7755 0.7755);fill-opacity:1;" />
	<circle cx="640.188" cy="1535.67" r="75.4572" transform="rotate(90 640.188 1535.67)" fill="#E8C6C6" style="fill:#E8C6C6;fill:color(display-p3 0.9087 0.7755 0.7755);fill-opacity:1;" />
	<path d="M709.645 1662.87C712.312 1664.41 712.312 1668.26 709.645 1669.8L541.516 1766.87C538.849 1768.41 535.516 1766.48 535.516 1763.41L535.516 1569.27C535.516 1566.19 538.849 1564.26 541.516 1565.8L709.645 1662.87Z" fill="#E8C6C6" style="fill:#E8C6C6;fill:color(display-p3 0.9087 0.7755 0.7755);fill-opacity:1;" />
	<path d="M701.452 1812.74C705.092 1813.96 705.092 1819.11 701.452 1820.33L653.649 1836.34C652.031 1836.88 650.935 1838.39 650.92 1840.09L650.466 1890.5C650.431 1894.34 645.535 1895.93 643.251 1892.85L613.254 1852.33C612.238 1850.96 610.465 1850.38 608.837 1850.9L560.754 1866.04C557.093 1867.19 554.067 1863.03 556.295 1859.9L585.558 1818.85C586.549 1817.47 586.549 1815.6 585.558 1814.21L556.295 1773.16C554.067 1770.04 557.093 1765.87 560.754 1767.02L608.837 1782.17C610.465 1782.68 612.238 1782.11 613.254 1780.74L643.251 1740.22C645.535 1737.13 650.431 1738.73 650.466 1742.56L650.92 1792.97C650.935 1794.68 652.031 1796.19 653.649 1796.73L701.452 1812.74Z" fill="#E8C6C6" style="fill:#E8C6C6;fill:color(display-p3 0.9087 0.7755 0.7755);fill-opacity:1;" />
	<circle cx="75.4572" cy="75.4572" r="75.4572" transform="matrix(4.37114e-08 -1 -1 -4.37114e-08 537.846 1976.41)" fill="#E8C6C6" style="fill:#E8C6C6;fill:color(display-p3 0.9087 0.7755 0.7755);fill-opacity:1;" />
	<path d="M531.846 1773.76C534.512 1772.22 534.512 1768.37 531.846 1766.83L363.716 1669.76C361.05 1668.22 357.716 1670.14 357.716 1673.22L357.716 1867.36C357.716 1870.44 361.05 1872.36 363.716 1870.82L531.846 1773.76Z" fill="#E8C6C6" style="fill:#E8C6C6;fill:color(display-p3 0.9087 0.7755 0.7755);fill-opacity:1;" />
	<path d="M523.653 1623.89C527.292 1622.67 527.292 1617.52 523.653 1616.3L475.85 1600.29C474.232 1599.75 473.136 1598.24 473.121 1596.53L472.667 1546.12C472.632 1542.29 467.736 1540.7 465.452 1543.78L435.455 1584.3C434.439 1585.67 432.666 1586.24 431.038 1585.73L382.955 1570.59C379.294 1569.43 376.268 1573.6 378.496 1576.72L407.759 1617.77C408.75 1619.16 408.75 1621.03 407.759 1622.42L378.496 1663.46C376.268 1666.59 379.294 1670.75 382.955 1669.6L431.038 1654.46C432.666 1653.94 434.439 1654.52 435.455 1655.89L465.452 1696.41C467.736 1699.49 472.632 1697.9 472.667 1694.06L473.121 1643.65C473.136 1641.95 474.232 1640.44 475.85 1639.9L523.653 1623.89Z" fill="#E8C6C6" style="fill:#E8C6C6;fill:color(display-p3 0.9087 0.7755 0.7755);fill-opacity:1;" />
	<circle cx="75.4572" cy="75.4572" r="75.4572" transform="matrix(-4.37114e-08 1 1 4.37114e-08 0.000244141 988)" fill="#E8C6C6" style="fill:#E8C6C6;fill:color(display-p3 0.9087 0.7755 0.7755);fill-opacity:1;" />
	<path d="M6.00024 1190.65C3.33357 1192.19 3.33357 1196.04 6.00024 1197.58L174.13 1294.65C176.796 1296.19 180.13 1294.27 180.13 1291.19L180.13 1097.05C180.13 1093.97 176.796 1092.04 174.13 1093.58L6.00024 1190.65Z" fill="#E8C6C6" style="fill:#E8C6C6;fill:color(display-p3 0.9087 0.7755 0.7755);fill-opacity:1;" />
	<path d="M14.1934 1340.52C10.5537 1341.74 10.5537 1346.89 14.1934 1348.11L61.9958 1364.12C63.6139 1364.66 64.71 1366.17 64.7254 1367.87L65.1793 1418.28C65.2139 1422.12 70.1099 1423.71 72.3939 1420.63L102.391 1380.11C103.407 1378.74 105.18 1378.17 106.808 1378.68L154.891 1393.82C158.552 1394.98 161.578 1390.81 159.35 1387.69L130.087 1346.64C129.096 1345.25 129.096 1343.38 130.087 1341.99L159.35 1300.94C161.578 1297.82 158.552 1293.65 154.891 1294.81L106.808 1309.95C105.18 1310.47 103.407 1309.89 102.391 1308.52L72.3939 1268C70.1099 1264.92 65.2139 1266.51 65.1793 1270.35L64.7254 1320.76C64.71 1322.46 63.6139 1323.97 61.9958 1324.51L14.1934 1340.52Z" fill="#E8C6C6" style="fill:#E8C6C6;fill:color(display-p3 0.9087 0.7755 0.7755);fill-opacity:1;" />
	<circle cx="253.257" cy="1428.73" r="75.4572" transform="rotate(-90 253.257 1428.73)" fill="#E8C6C6" style="fill:#E8C6C6;fill:color(display-p3 0.9087 0.7755 0.7755);fill-opacity:1;" />
	<path d="M183.8 1301.54C181.133 1300 181.133 1296.15 183.8 1294.61L351.929 1197.54C354.596 1196 357.929 1197.92 357.929 1201L357.929 1395.14C357.929 1398.22 354.596 1400.15 351.929 1398.61L183.8 1301.54Z" fill="#E8C6C6" style="fill:#E8C6C6;fill:color(display-p3 0.9087 0.7755 0.7755);fill-opacity:1;" />
	<path d="M191.993 1151.67C188.353 1150.45 188.353 1145.3 191.993 1144.08L239.795 1128.07C241.413 1127.53 242.509 1126.02 242.525 1124.32L242.979 1073.91C243.013 1070.07 247.909 1068.48 250.193 1071.56L280.191 1112.08C281.206 1113.45 282.98 1114.03 284.607 1113.51L332.69 1098.37C336.351 1097.21 339.377 1101.38 337.149 1104.5L307.886 1145.55C306.896 1146.94 306.896 1148.81 307.886 1150.2L337.149 1191.25C339.377 1194.37 336.351 1198.54 332.69 1197.38L284.607 1182.24C282.98 1181.73 281.206 1182.3 280.191 1183.67L250.193 1224.19C247.909 1227.27 243.013 1225.68 242.979 1221.85L242.525 1171.44C242.509 1169.73 241.413 1168.22 239.795 1167.68L191.993 1151.67Z" fill="#E8C6C6" style="fill:#E8C6C6;fill:color(display-p3 0.9087 0.7755 0.7755);fill-opacity:1;" />
	<circle cx="75.4572" cy="75.4572" r="75.4572" transform="matrix(-4.37114e-08 1 1 4.37114e-08 0.000244141 1460.22)" fill="#E8C6C6" style="fill:#E8C6C6;fill:color(display-p3 0.9087 0.7755 0.7755);fill-opacity:1;" />
	<path d="M6.00024 1662.87C3.33357 1664.41 3.33357 1668.26 6.00024 1669.8L174.13 1766.87C176.796 1768.41 180.13 1766.48 180.13 1763.41L180.13 1569.27C180.13 1566.19 176.796 1564.26 174.13 1565.8L6.00024 1662.87Z" fill="#E8C6C6" style="fill:#E8C6C6;fill:color(display-p3 0.9087 0.7755 0.7755);fill-opacity:1;" />
	<path d="M14.1934 1812.74C10.5537 1813.96 10.5537 1819.11 14.1934 1820.33L61.9958 1836.34C63.6139 1836.88 64.71 1838.39 64.7254 1840.09L65.1793 1890.5C65.2139 1894.34 70.1099 1895.93 72.3939 1892.85L102.391 1852.33C103.407 1850.96 105.18 1850.38 106.808 1850.9L154.891 1866.04C158.552 1867.19 161.578 1863.03 159.35 1859.9L130.087 1818.85C129.096 1817.47 129.096 1815.6 130.087 1814.21L159.35 1773.16C161.578 1770.04 158.552 1765.87 154.891 1767.02L106.808 1782.17C105.18 1782.68 103.407 1782.11 102.391 1780.74L72.3939 1740.22C70.1099 1737.13 65.2139 1738.73 65.1793 1742.56L64.7254 1792.97C64.71 1794.68 63.6139 1796.19 61.9958 1796.73L14.1934 1812.74Z" fill="#E8C6C6" style="fill:#E8C6C6;fill:color(display-p3 0.9087 0.7755 0.7755);fill-opacity:1;" />
	<circle cx="253.257" cy="1900.95" r="75.4572" transform="rotate(-90 253.257 1900.95)" fill="#E8C6C6" style="fill:#E8C6C6;fill:color(display-p3 0.9087 0.7755 0.7755);fill-opacity:1;" />
	<path d="M183.8 1773.75C181.133 1772.22 181.133 1768.37 183.8 1766.83L351.929 1669.76C354.596 1668.22 357.929 1670.14 357.929 1673.22L357.929 1867.36C357.929 1870.44 354.596 1872.36 351.929 1870.82L183.8 1773.75Z" fill="#E8C6C6" style="fill:#E8C6C6;fill:color(display-p3 0.9087 0.7755 0.7755);fill-opacity:1;" />
	<path d="M191.993 1623.89C188.353 1622.67 188.353 1617.52 191.993 1616.3L239.795 1600.29C241.413 1599.75 242.509 1598.24 242.525 1596.53L242.979 1546.12C243.013 1542.29 247.909 1540.7 250.193 1543.78L280.191 1584.3C281.206 1585.67 282.98 1586.24 284.607 1585.73L332.69 1570.58C336.351 1569.43 339.377 1573.6 337.149 1576.72L307.886 1617.77C306.896 1619.16 306.896 1621.03 307.886 1622.42L337.149 1663.46C339.377 1666.59 336.351 1670.75 332.69 1669.6L284.607 1654.46C282.98 1653.94 281.206 1654.52 280.191 1655.89L250.193 1696.41C247.909 1699.49 243.013 1697.9 242.979 1694.06L242.525 1643.65C242.509 1641.95 241.413 1640.44 239.795 1639.9L191.993 1623.89Z" fill="#E8C6C6" style="fill:#E8C6C6;fill:color(display-p3 0.9087 0.7755 0.7755);fill-opacity:1;" />
	<circle cx="804.471" cy="1517.47" r="53.4707" fill="#E8C6C6" style="fill:#E8C6C6;fill:color(display-p3 0.9087 0.7755 0.7755);fill-opacity:1;" />
	<path d="M893.596 1470C895.135 1467.33 898.984 1467.33 900.524 1470L967.291 1585.64C968.831 1588.31 966.906 1591.64 963.827 1591.64L830.293 1591.64C827.214 1591.64 825.289 1588.31 826.829 1585.64L893.596 1470Z" fill="#E8C6C6" style="fill:#E8C6C6;fill:color(display-p3 0.9087 0.7755 0.7755);fill-opacity:1;" />
	<path d="M999.7 1477.36C1000.92 1473.72 1006.07 1473.72 1007.29 1477.36L1017.26 1507.14C1017.8 1508.76 1019.31 1509.86 1021.02 1509.87L1052.43 1510.16C1056.27 1510.19 1057.86 1515.09 1054.77 1517.37L1029.53 1536.06C1028.16 1537.08 1027.58 1538.85 1028.09 1540.48L1037.53 1570.44C1038.68 1574.1 1034.52 1577.13 1031.39 1574.9L1005.82 1556.66C1004.43 1555.67 1002.56 1555.67 1001.17 1556.66L975.593 1574.9C972.468 1577.13 968.303 1574.1 969.456 1570.44L978.894 1540.48C979.406 1538.85 978.83 1537.08 977.459 1536.06L952.213 1517.37C949.128 1515.09 950.719 1510.19 954.557 1510.16L985.968 1509.87C987.674 1509.86 989.183 1508.76 989.725 1507.14L999.7 1477.36Z" fill="#E8C6C6" style="fill:#E8C6C6;fill:color(display-p3 0.9087 0.7755 0.7755);fill-opacity:1;" />
	<circle cx="53.4707" cy="53.4707" r="53.4707" transform="matrix(-1 8.74228e-08 8.74228e-08 1 1116.79 1589.99)" fill="#E8C6C6" style="fill:#E8C6C6;fill:color(display-p3 0.9087 0.7755 0.7755);fill-opacity:1;" />
	<path d="M974.189 1595.99C972.65 1593.33 968.801 1593.33 967.261 1595.99L900.494 1711.64C898.955 1714.3 900.879 1717.64 903.958 1717.64L1037.49 1717.64C1040.57 1717.64 1042.5 1714.3 1040.96 1711.64L974.189 1595.99Z" fill="#E8C6C6" style="fill:#E8C6C6;fill:color(display-p3 0.9087 0.7755 0.7755);fill-opacity:1;" />
	<path d="M868.085 1603.35C866.866 1599.71 861.718 1599.71 860.499 1603.35L850.523 1633.14C849.981 1634.75 848.473 1635.85 846.766 1635.87L815.356 1636.15C811.517 1636.18 809.927 1641.08 813.011 1643.36L838.257 1662.06C839.629 1663.07 840.205 1664.84 839.692 1666.47L830.255 1696.43C829.101 1700.09 833.266 1703.12 836.392 1700.89L861.97 1682.66C863.359 1681.67 865.224 1681.67 866.614 1682.66L892.192 1700.89C895.317 1703.12 899.482 1700.09 898.329 1696.43L888.891 1666.47C888.379 1664.84 888.955 1663.07 890.326 1662.06L915.572 1643.36C918.657 1641.08 917.066 1636.18 913.228 1636.15L881.817 1635.87C880.111 1635.85 878.602 1634.75 878.06 1633.14L868.085 1603.35Z" fill="#E8C6C6" style="fill:#E8C6C6;fill:color(display-p3 0.9087 0.7755 0.7755);fill-opacity:1;" />
	<circle cx="1139.09" cy="1517.47" r="53.4707" fill="#E8C6C6" style="fill:#E8C6C6;fill:color(display-p3 0.9087 0.7755 0.7755);fill-opacity:1;" />
	<path d="M1228.22 1470C1229.76 1467.33 1233.61 1467.33 1235.15 1470L1301.91 1585.64C1303.45 1588.31 1301.53 1591.64 1298.45 1591.64L1164.92 1591.64C1161.84 1591.64 1159.91 1588.31 1161.45 1585.64L1228.22 1470Z" fill="#E8C6C6" style="fill:#E8C6C6;fill:color(display-p3 0.9087 0.7755 0.7755);fill-opacity:1;" />
	<path d="M1334.32 1477.36C1335.54 1473.72 1340.69 1473.72 1341.91 1477.36L1351.89 1507.14C1352.43 1508.76 1353.94 1509.86 1355.64 1509.87L1387.05 1510.16C1390.89 1510.19 1392.48 1515.09 1389.4 1517.37L1364.15 1536.06C1362.78 1537.08 1362.2 1538.85 1362.72 1540.48L1372.15 1570.44C1373.31 1574.1 1369.14 1577.13 1366.02 1574.9L1340.44 1556.66C1339.05 1555.67 1337.18 1555.67 1335.8 1556.66L1310.22 1574.9C1307.09 1577.13 1302.93 1574.1 1304.08 1570.44L1313.52 1540.48C1314.03 1538.85 1313.45 1537.08 1312.08 1536.06L1286.84 1517.37C1283.75 1515.09 1285.34 1510.19 1289.18 1510.16L1320.59 1509.87C1322.3 1509.86 1323.81 1508.76 1324.35 1507.14L1334.32 1477.36Z" fill="#E8C6C6" style="fill:#E8C6C6;fill:color(display-p3 0.9087 0.7755 0.7755);fill-opacity:1;" />
	<circle cx="53.4707" cy="53.4707" r="53.4707" transform="matrix(-1 8.74228e-08 8.74228e-08 1 1451.41 1589.99)" fill="#E8C6C6" style="fill:#E8C6C6;fill:color(display-p3 0.9087 0.7755 0.7755);fill-opacity:1;" />
	<path d="M1308.81 1595.99C1307.27 1593.33 1303.42 1593.33 1301.88 1595.99L1235.12 1711.64C1233.58 1714.3 1235.5 1717.64 1238.58 1717.64L1372.12 1717.64C1375.2 1717.64 1377.12 1714.3 1375.58 1711.64L1308.81 1595.99Z" fill="#E8C6C6" style="fill:#E8C6C6;fill:color(display-p3 0.9087 0.7755 0.7755);fill-opacity:1;" />
	<path d="M1202.71 1603.35C1201.49 1599.71 1196.34 1599.71 1195.12 1603.35L1185.15 1633.14C1184.61 1634.75 1183.1 1635.85 1181.39 1635.87L1149.98 1636.15C1146.14 1636.18 1144.55 1641.08 1147.64 1643.36L1172.88 1662.06C1174.25 1663.07 1174.83 1664.84 1174.32 1666.47L1164.88 1696.43C1163.73 1700.09 1167.89 1703.12 1171.02 1700.89L1196.59 1682.66C1197.98 1681.67 1199.85 1681.67 1201.24 1682.66L1226.82 1700.89C1229.94 1703.12 1234.11 1700.09 1232.95 1696.43L1223.52 1666.47C1223 1664.84 1223.58 1663.07 1224.95 1662.06L1250.2 1643.36C1253.28 1641.08 1251.69 1636.18 1247.85 1636.15L1216.44 1635.87C1214.73 1635.85 1213.23 1634.75 1212.68 1633.14L1202.71 1603.35Z" fill="#E8C6C6" style="fill:#E8C6C6;fill:color(display-p3 0.9087 0.7755 0.7755);fill-opacity:1;" />
	<circle cx="53.4707" cy="53.4707" r="53.4707" transform="matrix(1 -8.74228e-08 -8.74228e-08 -1 751 1971.12)" fill="#E8C6C6" style="fill:#E8C6C6;fill:color(display-p3 0.9087 0.7755 0.7755);fill-opacity:1;" />
	<path d="M893.596 1965.12C895.135 1967.79 898.984 1967.79 900.524 1965.12L967.291 1849.48C968.831 1846.81 966.906 1843.48 963.827 1843.48L830.293 1843.48C827.214 1843.48 825.289 1846.81 826.829 1849.48L893.596 1965.12Z" fill="#E8C6C6" style="fill:#E8C6C6;fill:color(display-p3 0.9087 0.7755 0.7755);fill-opacity:1;" />
	<path d="M999.7 1957.76C1000.92 1961.4 1006.07 1961.4 1007.29 1957.76L1017.26 1927.98C1017.8 1926.36 1019.31 1925.26 1021.02 1925.25L1052.43 1924.97C1056.27 1924.93 1057.86 1920.04 1054.77 1917.75L1029.53 1899.06C1028.16 1898.04 1027.58 1896.27 1028.09 1894.64L1037.53 1864.68C1038.68 1861.02 1034.52 1858 1031.39 1860.22L1005.82 1878.46C1004.43 1879.45 1002.56 1879.45 1001.17 1878.46L975.593 1860.22C972.468 1858 968.303 1861.02 969.456 1864.68L978.894 1894.64C979.406 1896.27 978.83 1898.04 977.459 1899.06L952.213 1917.75C949.128 1920.04 950.719 1924.93 954.557 1924.97L985.968 1925.25C987.674 1925.26 989.183 1926.36 989.725 1927.98L999.7 1957.76Z" fill="#E8C6C6" style="fill:#E8C6C6;fill:color(display-p3 0.9087 0.7755 0.7755);fill-opacity:1;" />
	<circle cx="1063.31" cy="1791.66" r="53.4707" transform="rotate(180 1063.31 1791.66)" fill="#E8C6C6" style="fill:#E8C6C6;fill:color(display-p3 0.9087 0.7755 0.7755);fill-opacity:1;" />
	<path d="M974.189 1839.13C972.649 1841.8 968.8 1841.8 967.261 1839.13L900.494 1723.49C898.954 1720.82 900.879 1717.49 903.958 1717.49L1037.49 1717.49C1040.57 1717.49 1042.5 1720.82 1040.96 1723.49L974.189 1839.13Z" fill="#E8C6C6" style="fill:#E8C6C6;fill:color(display-p3 0.9087 0.7755 0.7755);fill-opacity:1;" />
	<path d="M868.085 1831.77C866.866 1835.41 861.718 1835.41 860.499 1831.77L850.523 1801.99C849.981 1800.37 848.473 1799.27 846.766 1799.26L815.356 1798.97C811.517 1798.94 809.927 1794.04 813.011 1791.76L838.257 1773.07C839.629 1772.05 840.205 1770.28 839.692 1768.65L830.255 1738.69C829.101 1735.03 833.266 1732 836.392 1734.23L861.97 1752.46C863.359 1753.46 865.224 1753.46 866.614 1752.46L892.192 1734.23C895.317 1732 899.482 1735.03 898.329 1738.69L888.891 1768.65C888.379 1770.28 888.955 1772.05 890.326 1773.07L915.572 1791.76C918.657 1794.04 917.066 1798.94 913.228 1798.97L881.817 1799.26C880.111 1799.27 878.602 1800.37 878.06 1801.99L868.085 1831.77Z" fill="#E8C6C6" style="fill:#E8C6C6;fill:color(display-p3 0.9087 0.7755 0.7755);fill-opacity:1;" />
	<circle cx="53.4707" cy="53.4707" r="53.4707" transform="matrix(1 -8.74228e-08 -8.74228e-08 -1 1085.62 1971.12)" fill="#E8C6C6" style="fill:#E8C6C6;fill:color(display-p3 0.9087 0.7755 0.7755);fill-opacity:1;" />
	<path d="M1228.22 1965.12C1229.76 1967.79 1233.61 1967.79 1235.15 1965.12L1301.92 1849.48C1303.45 1846.81 1301.53 1843.48 1298.45 1843.48L1164.92 1843.48C1161.84 1843.48 1159.91 1846.81 1161.45 1849.48L1228.22 1965.12Z" fill="#E8C6C6" style="fill:#E8C6C6;fill:color(display-p3 0.9087 0.7755 0.7755);fill-opacity:1;" />
	<path d="M1334.32 1957.76C1335.54 1961.4 1340.69 1961.4 1341.91 1957.76L1351.89 1927.98C1352.43 1926.36 1353.94 1925.26 1355.64 1925.25L1387.05 1924.97C1390.89 1924.93 1392.48 1920.04 1389.4 1917.75L1364.15 1899.06C1362.78 1898.04 1362.2 1896.27 1362.72 1894.64L1372.15 1864.68C1373.31 1861.02 1369.14 1858 1366.02 1860.22L1340.44 1878.46C1339.05 1879.45 1337.18 1879.45 1335.8 1878.46L1310.22 1860.22C1307.09 1858 1302.93 1861.02 1304.08 1864.68L1313.52 1894.64C1314.03 1896.27 1313.45 1898.04 1312.08 1899.06L1286.84 1917.75C1283.75 1920.04 1285.34 1924.93 1289.18 1924.97L1320.59 1925.25C1322.3 1925.26 1323.81 1926.36 1324.35 1927.98L1334.32 1957.76Z" fill="#E8C6C6" style="fill:#E8C6C6;fill:color(display-p3 0.9087 0.7755 0.7755);fill-opacity:1;" />
	<circle cx="1397.94" cy="1791.66" r="53.4707" transform="rotate(180 1397.94 1791.66)" fill="#E8C6C6" style="fill:#E8C6C6;fill:color(display-p3 0.9087 0.7755 0.7755);fill-opacity:1;" />
	<path d="M1308.81 1839.13C1307.27 1841.8 1303.42 1841.8 1301.88 1839.13L1235.12 1723.49C1233.58 1720.82 1235.5 1717.49 1238.58 1717.49L1372.12 1717.49C1375.2 1717.49 1377.12 1720.82 1375.58 1723.49L1308.81 1839.13Z" fill="#E8C6C6" style="fill:#E8C6C6;fill:color(display-p3 0.9087 0.7755 0.7755);fill-opacity:1;" />
	<path d="M1202.71 1831.77C1201.49 1835.41 1196.34 1835.41 1195.12 1831.77L1185.15 1801.99C1184.61 1800.37 1183.1 1799.27 1181.39 1799.26L1149.98 1798.97C1146.14 1798.94 1144.55 1794.04 1147.64 1791.76L1172.88 1773.07C1174.25 1772.05 1174.83 1770.28 1174.32 1768.65L1164.88 1738.69C1163.73 1735.03 1167.89 1732 1171.02 1734.23L1196.59 1752.46C1197.98 1753.46 1199.85 1753.46 1201.24 1752.46L1226.82 1734.23C1229.94 1732 1234.11 1735.03 1232.95 1738.69L1223.52 1768.65C1223 1770.28 1223.58 1772.05 1224.95 1773.07L1250.2 1791.76C1253.28 1794.04 1251.69 1798.94 1247.85 1798.97L1216.44 1799.26C1214.73 1799.27 1213.23 1800.37 1212.68 1801.99L1202.71 1831.77Z" fill="#E8C6C6" style="fill:#E8C6C6;fill:color(display-p3 0.9087 0.7755 0.7755);fill-opacity:1;" />
	<circle cx="34.3733" cy="34.3733" r="34.3733" transform="matrix(-4.37114e-08 -1 -1 4.37114e-08 1056 1442.25)" fill="#E8C6C6" style="fill:#E8C6C6;fill:color(display-p3 0.9087 0.7755 0.7755);fill-opacity:1;" />
	<path d="M1050 1351.82C1052.67 1350.28 1052.67 1346.43 1050 1344.9L979.945 1304.45C977.278 1302.91 973.945 1304.83 973.945 1307.91L973.945 1388.81C973.945 1391.88 977.278 1393.81 979.945 1392.27L1050 1351.82Z" fill="#E8C6C6" style="fill:#E8C6C6;fill:color(display-p3 0.9087 0.7755 0.7755);fill-opacity:1;" />
	<path d="M1043.37 1283.73C1047.01 1282.51 1047.01 1277.37 1043.37 1276.15L1029.23 1271.41C1027.61 1270.87 1026.52 1269.36 1026.5 1267.66L1026.37 1252.75C1026.33 1248.91 1021.44 1247.32 1019.15 1250.4L1010.28 1262.38C1009.27 1263.76 1007.49 1264.33 1005.86 1263.82L991.645 1259.34C987.984 1258.19 984.958 1262.35 987.186 1265.48L995.84 1277.62C996.83 1279.01 996.83 1280.87 995.84 1282.26L987.186 1294.4C984.958 1297.53 987.984 1301.69 991.645 1300.54L1005.86 1296.06C1007.49 1295.55 1009.27 1296.12 1010.28 1297.49L1019.15 1309.48C1021.44 1312.56 1026.33 1310.97 1026.37 1307.13L1026.5 1292.22C1026.52 1290.52 1027.61 1289.01 1029.23 1288.47L1043.37 1283.73Z" fill="#E8C6C6" style="fill:#E8C6C6;fill:color(display-p3 0.9087 0.7755 0.7755);fill-opacity:1;" />
	<circle cx="940.633" cy="1241.48" r="34.3733" transform="rotate(90 940.633 1241.48)" fill="#E8C6C6" style="fill:#E8C6C6;fill:color(display-p3 0.9087 0.7755 0.7755);fill-opacity:1;" />
	<path d="M969.006 1297.54C971.673 1299.08 971.673 1302.93 969.006 1304.47L898.951 1344.91C896.285 1346.45 892.951 1344.53 892.951 1341.45L892.951 1260.56C892.951 1257.48 896.285 1255.55 898.951 1257.09L969.006 1297.54Z" fill="#E8C6C6" style="fill:#E8C6C6;fill:color(display-p3 0.9087 0.7755 0.7755);fill-opacity:1;" />
	<path d="M962.375 1365.63C966.014 1366.85 966.014 1372 962.375 1373.22L948.238 1377.95C946.62 1378.49 945.523 1380 945.508 1381.71L945.374 1396.62C945.339 1400.46 940.443 1402.05 938.159 1398.96L929.288 1386.98C928.272 1385.61 926.499 1385.03 924.871 1385.54L910.651 1390.02C906.99 1391.18 903.964 1387.01 906.192 1383.89L914.847 1371.75C915.837 1370.36 915.837 1368.49 914.847 1367.1L906.192 1354.96C903.964 1351.84 906.99 1347.67 910.651 1348.83L924.871 1353.3C926.499 1353.82 928.272 1353.24 929.288 1351.87L938.159 1339.89C940.443 1336.8 945.339 1338.39 945.374 1342.23L945.508 1357.14C945.523 1358.85 946.62 1360.35 948.238 1360.9L962.375 1365.63Z" fill="#E8C6C6" style="fill:#E8C6C6;fill:color(display-p3 0.9087 0.7755 0.7755);fill-opacity:1;" />
	<circle cx="34.3733" cy="34.3733" r="34.3733" transform="matrix(-4.37114e-08 -1 -1 4.37114e-08 1056 1227.14)" fill="#E8C6C6" style="fill:#E8C6C6;fill:color(display-p3 0.9087 0.7755 0.7755);fill-opacity:1;" />
	<path d="M1050 1136.71C1052.67 1135.17 1052.67 1131.32 1050 1129.78L979.945 1089.34C977.278 1087.8 973.945 1089.72 973.945 1092.8L973.945 1173.69C973.945 1176.77 977.278 1178.7 979.945 1177.16L1050 1136.71Z" fill="#E8C6C6" style="fill:#E8C6C6;fill:color(display-p3 0.9087 0.7755 0.7755);fill-opacity:1;" />
	<path d="M1043.37 1068.62C1047.01 1067.4 1047.01 1062.25 1043.37 1061.04L1029.23 1056.3C1027.61 1055.76 1026.52 1054.25 1026.5 1052.54L1026.37 1037.64C1026.33 1033.8 1021.44 1032.21 1019.15 1035.29L1010.28 1047.27C1009.27 1048.65 1007.49 1049.22 1005.86 1048.71L991.645 1044.23C987.984 1043.08 984.958 1047.24 987.186 1050.37L995.84 1062.51C996.83 1063.9 996.83 1065.76 995.84 1067.15L987.186 1079.29C984.958 1082.42 987.984 1086.58 991.645 1085.43L1005.86 1080.95C1007.49 1080.44 1009.27 1081.01 1010.28 1082.38L1019.15 1094.37C1021.44 1097.45 1026.33 1095.86 1026.37 1092.02L1026.5 1077.11C1026.52 1075.41 1027.61 1073.9 1029.23 1073.36L1043.37 1068.62Z" fill="#E8C6C6" style="fill:#E8C6C6;fill:color(display-p3 0.9087 0.7755 0.7755);fill-opacity:1;" />
	<circle cx="940.633" cy="1026.37" r="34.3733" transform="rotate(90 940.633 1026.37)" fill="#E8C6C6" style="fill:#E8C6C6;fill:color(display-p3 0.9087 0.7755 0.7755);fill-opacity:1;" />
	<path d="M969.006 1082.43C971.673 1083.97 971.673 1087.82 969.006 1089.36L898.951 1129.8C896.285 1131.34 892.951 1129.42 892.951 1126.34L892.951 1045.45C892.951 1042.37 896.285 1040.44 898.951 1041.98L969.006 1082.43Z" fill="#E8C6C6" style="fill:#E8C6C6;fill:color(display-p3 0.9087 0.7755 0.7755);fill-opacity:1;" />
	<path d="M962.375 1150.52C966.014 1151.74 966.014 1156.89 962.375 1158.11L948.238 1162.84C946.62 1163.38 945.523 1164.89 945.508 1166.6L945.374 1181.51C945.339 1185.34 940.443 1186.94 938.159 1183.85L929.288 1171.87C928.272 1170.5 926.499 1169.92 924.871 1170.43L910.651 1174.91C906.99 1176.07 903.964 1171.9 906.192 1168.78L914.847 1156.64C915.837 1155.25 915.837 1153.38 914.847 1151.99L906.192 1139.85C903.964 1136.73 906.99 1132.56 910.651 1133.71L924.871 1138.19C926.499 1138.71 928.272 1138.13 929.288 1136.76L938.159 1124.78C940.443 1121.69 945.339 1123.28 945.374 1127.12L945.508 1142.03C945.523 1143.74 946.62 1145.24 948.238 1145.79L962.375 1150.52Z" fill="#E8C6C6" style="fill:#E8C6C6;fill:color(display-p3 0.9087 0.7755 0.7755);fill-opacity:1;" />
	<circle cx="764.373" cy="1407.88" r="34.3733" transform="rotate(-90 764.373 1407.88)" fill="#E8C6C6" style="fill:#E8C6C6;fill:color(display-p3 0.9087 0.7755 0.7755);fill-opacity:1;" />
	<path d="M736 1351.82C733.333 1350.28 733.333 1346.43 736 1344.9L806.055 1304.45C808.722 1302.91 812.055 1304.83 812.055 1307.91L812.055 1388.81C812.055 1391.88 808.722 1393.81 806.055 1392.27L736 1351.82Z" fill="#E8C6C6" style="fill:#E8C6C6;fill:color(display-p3 0.9087 0.7755 0.7755);fill-opacity:1;" />
	<path d="M742.632 1283.73C738.992 1282.51 738.992 1277.37 742.632 1276.15L756.769 1271.41C758.387 1270.87 759.483 1269.36 759.499 1267.66L759.633 1252.75C759.667 1248.91 764.563 1247.32 766.847 1250.4L775.719 1262.38C776.734 1263.76 778.508 1264.33 780.135 1263.82L794.355 1259.34C798.016 1258.19 801.042 1262.35 798.814 1265.48L790.16 1277.62C789.17 1279.01 789.17 1280.87 790.16 1282.26L798.814 1294.4C801.042 1297.53 798.016 1301.69 794.355 1300.54L780.135 1296.06C778.508 1295.55 776.734 1296.12 775.719 1297.49L766.847 1309.48C764.563 1312.56 759.667 1310.97 759.633 1307.13L759.499 1292.22C759.483 1290.52 758.387 1289.01 756.769 1288.47L742.632 1283.73Z" fill="#E8C6C6" style="fill:#E8C6C6;fill:color(display-p3 0.9087 0.7755 0.7755);fill-opacity:1;" />
	<circle cx="34.3733" cy="34.3733" r="34.3733" transform="matrix(4.37114e-08 1 1 -4.37114e-08 810.994 1207.11)" fill="#E8C6C6" style="fill:#E8C6C6;fill:color(display-p3 0.9087 0.7755 0.7755);fill-opacity:1;" />
	<path d="M816.994 1297.54C814.327 1299.08 814.327 1302.93 816.994 1304.47L887.049 1344.91C889.715 1346.45 893.049 1344.53 893.049 1341.45L893.049 1260.56C893.049 1257.48 889.715 1255.55 887.049 1257.09L816.994 1297.54Z" fill="#E8C6C6" style="fill:#E8C6C6;fill:color(display-p3 0.9087 0.7755 0.7755);fill-opacity:1;" />
	<path d="M823.625 1365.63C819.986 1366.85 819.986 1372 823.625 1373.22L837.762 1377.95C839.38 1378.49 840.477 1380 840.492 1381.71L840.626 1396.62C840.661 1400.46 845.557 1402.05 847.841 1398.96L856.712 1386.98C857.728 1385.61 859.501 1385.03 861.129 1385.54L875.349 1390.02C879.01 1391.18 882.036 1387.01 879.808 1383.89L871.153 1371.75C870.163 1370.36 870.163 1368.49 871.153 1367.1L879.808 1354.96C882.036 1351.84 879.01 1347.67 875.349 1348.83L861.129 1353.3C859.501 1353.82 857.728 1353.24 856.712 1351.87L847.841 1339.89C845.557 1336.8 840.661 1338.39 840.626 1342.23L840.492 1357.14C840.477 1358.85 839.38 1360.35 837.762 1360.9L823.625 1365.63Z" fill="#E8C6C6" style="fill:#E8C6C6;fill:color(display-p3 0.9087 0.7755 0.7755);fill-opacity:1;" />
	<circle cx="764.373" cy="1192.77" r="34.3733" transform="rotate(-90 764.373 1192.77)" fill="#E8C6C6" style="fill:#E8C6C6;fill:color(display-p3 0.9087 0.7755 0.7755);fill-opacity:1;" />
	<path d="M736 1136.71C733.333 1135.17 733.333 1131.32 736 1129.78L806.055 1089.34C808.722 1087.8 812.055 1089.72 812.055 1092.8L812.055 1173.7C812.055 1176.77 808.722 1178.7 806.055 1177.16L736 1136.71Z" fill="#E8C6C6" style="fill:#E8C6C6;fill:color(display-p3 0.9087 0.7755 0.7755);fill-opacity:1;" />
	<path d="M742.632 1068.62C738.992 1067.4 738.992 1062.25 742.632 1061.04L756.769 1056.3C758.387 1055.76 759.483 1054.25 759.499 1052.54L759.633 1037.64C759.667 1033.8 764.563 1032.21 766.847 1035.29L775.719 1047.27C776.734 1048.65 778.508 1049.22 780.135 1048.71L794.355 1044.23C798.016 1043.08 801.042 1047.24 798.814 1050.37L790.16 1062.51C789.17 1063.9 789.17 1065.76 790.16 1067.15L798.814 1079.29C801.042 1082.42 798.016 1086.58 794.355 1085.43L780.135 1080.95C778.508 1080.44 776.734 1081.01 775.719 1082.38L766.847 1094.37C764.563 1097.45 759.667 1095.86 759.633 1092.02L759.499 1077.11C759.483 1075.41 758.387 1073.9 756.769 1073.36L742.632 1068.62Z" fill="#E8C6C6" style="fill:#E8C6C6;fill:color(display-p3 0.9087 0.7755 0.7755);fill-opacity:1;" />
	<circle cx="34.3733" cy="34.3733" r="34.3733" transform="matrix(4.37114e-08 1 1 -4.37114e-08 810.994 992)" fill="#E8C6C6" style="fill:#E8C6C6;fill:color(display-p3 0.9087 0.7755 0.7755);fill-opacity:1;" />
	<path d="M816.994 1082.43C814.327 1083.97 814.327 1087.82 816.994 1089.36L887.049 1129.8C889.715 1131.34 893.049 1129.42 893.049 1126.34L893.049 1045.45C893.049 1042.37 889.715 1040.44 887.049 1041.98L816.994 1082.43Z" fill="#E8C6C6" style="fill:#E8C6C6;fill:color(display-p3 0.9087 0.7755 0.7755);fill-opacity:1;" />
	<path d="M823.625 1150.52C819.986 1151.74 819.986 1156.89 823.625 1158.11L837.762 1162.84C839.38 1163.38 840.477 1164.89 840.492 1166.6L840.626 1181.51C840.661 1185.34 845.557 1186.94 847.841 1183.85L856.712 1171.87C857.728 1170.5 859.501 1169.92 861.129 1170.43L875.349 1174.91C879.01 1176.07 882.036 1171.9 879.808 1168.78L871.153 1156.64C870.163 1155.25 870.163 1153.38 871.153 1151.99L879.808 1139.85C882.036 1136.73 879.01 1132.56 875.349 1133.71L861.129 1138.19C859.501 1138.71 857.728 1138.13 856.712 1136.76L847.841 1124.78C845.557 1121.69 840.661 1123.28 840.626 1127.12L840.492 1142.03C840.477 1143.74 839.38 1145.24 837.762 1145.79L823.625 1150.52Z" fill="#E8C6C6" style="fill:#E8C6C6;fill:color(display-p3 0.9087 0.7755 0.7755);fill-opacity:1;" />
	<circle cx="34.3733" cy="34.3733" r="34.3733" transform="matrix(-4.37114e-08 -1 -1 4.37114e-08 1394 1442.25)" fill="#E8C6C6" style="fill:#E8C6C6;fill:color(display-p3 0.9087 0.7755 0.7755);fill-opacity:1;" />
	<path d="M1388 1351.82C1390.67 1350.28 1390.67 1346.43 1388 1344.9L1317.95 1304.45C1315.28 1302.91 1311.95 1304.83 1311.95 1307.91L1311.95 1388.81C1311.95 1391.88 1315.28 1393.81 1317.95 1392.27L1388 1351.82Z" fill="#E8C6C6" style="fill:#E8C6C6;fill:color(display-p3 0.9087 0.7755 0.7755);fill-opacity:1;" />
	<path d="M1381.37 1283.73C1385.01 1282.51 1385.01 1277.37 1381.37 1276.15L1367.23 1271.41C1365.61 1270.87 1364.52 1269.36 1364.5 1267.66L1364.37 1252.75C1364.33 1248.91 1359.44 1247.32 1357.15 1250.4L1348.28 1262.38C1347.27 1263.76 1345.49 1264.33 1343.86 1263.82L1329.64 1259.34C1325.98 1258.19 1322.96 1262.35 1325.19 1265.48L1333.84 1277.62C1334.83 1279.01 1334.83 1280.87 1333.84 1282.26L1325.19 1294.4C1322.96 1297.53 1325.98 1301.69 1329.64 1300.54L1343.86 1296.06C1345.49 1295.55 1347.27 1296.12 1348.28 1297.49L1357.15 1309.48C1359.44 1312.56 1364.33 1310.97 1364.37 1307.13L1364.5 1292.22C1364.52 1290.52 1365.61 1289.01 1367.23 1288.47L1381.37 1283.73Z" fill="#E8C6C6" style="fill:#E8C6C6;fill:color(display-p3 0.9087 0.7755 0.7755);fill-opacity:1;" />
	<circle cx="1278.63" cy="1241.48" r="34.3733" transform="rotate(90 1278.63 1241.48)" fill="#E8C6C6" style="fill:#E8C6C6;fill:color(display-p3 0.9087 0.7755 0.7755);fill-opacity:1;" />
	<path d="M1307.01 1297.54C1309.67 1299.08 1309.67 1302.93 1307.01 1304.47L1236.95 1344.91C1234.28 1346.45 1230.95 1344.53 1230.95 1341.45L1230.95 1260.56C1230.95 1257.48 1234.28 1255.55 1236.95 1257.09L1307.01 1297.54Z" fill="#E8C6C6" style="fill:#E8C6C6;fill:color(display-p3 0.9087 0.7755 0.7755);fill-opacity:1;" />
	<path d="M1300.37 1365.63C1304.01 1366.85 1304.01 1372 1300.37 1373.22L1286.24 1377.95C1284.62 1378.49 1283.52 1380 1283.51 1381.71L1283.37 1396.62C1283.34 1400.46 1278.44 1402.05 1276.16 1398.96L1267.29 1386.98C1266.27 1385.61 1264.5 1385.03 1262.87 1385.54L1248.65 1390.02C1244.99 1391.18 1241.96 1387.01 1244.19 1383.89L1252.85 1371.75C1253.84 1370.36 1253.84 1368.49 1252.85 1367.1L1244.19 1354.96C1241.96 1351.84 1244.99 1347.67 1248.65 1348.83L1262.87 1353.3C1264.5 1353.82 1266.27 1353.24 1267.29 1351.87L1276.16 1339.89C1278.44 1336.8 1283.34 1338.39 1283.37 1342.23L1283.51 1357.14C1283.52 1358.85 1284.62 1360.35 1286.24 1360.9L1300.37 1365.63Z" fill="#E8C6C6" style="fill:#E8C6C6;fill:color(display-p3 0.9087 0.7755 0.7755);fill-opacity:1;" />
	<circle cx="34.3733" cy="34.3733" r="34.3733" transform="matrix(-4.37114e-08 -1 -1 4.37114e-08 1394 1227.14)" fill="#E8C6C6" style="fill:#E8C6C6;fill:color(display-p3 0.9087 0.7755 0.7755);fill-opacity:1;" />
	<path d="M1388 1136.71C1390.67 1135.17 1390.67 1131.32 1388 1129.78L1317.95 1089.34C1315.28 1087.8 1311.95 1089.72 1311.95 1092.8L1311.95 1173.69C1311.95 1176.77 1315.28 1178.7 1317.95 1177.16L1388 1136.71Z" fill="#E8C6C6" style="fill:#E8C6C6;fill:color(display-p3 0.9087 0.7755 0.7755);fill-opacity:1;" />
	<path d="M1381.37 1068.62C1385.01 1067.4 1385.01 1062.25 1381.37 1061.04L1367.23 1056.3C1365.61 1055.76 1364.52 1054.25 1364.5 1052.54L1364.37 1037.64C1364.33 1033.8 1359.44 1032.21 1357.15 1035.29L1348.28 1047.27C1347.27 1048.65 1345.49 1049.22 1343.86 1048.71L1329.64 1044.23C1325.98 1043.08 1322.96 1047.24 1325.19 1050.37L1333.84 1062.51C1334.83 1063.9 1334.83 1065.76 1333.84 1067.15L1325.19 1079.29C1322.96 1082.42 1325.98 1086.58 1329.64 1085.43L1343.86 1080.95C1345.49 1080.44 1347.27 1081.01 1348.28 1082.38L1357.15 1094.37C1359.44 1097.45 1364.33 1095.86 1364.37 1092.02L1364.5 1077.11C1364.52 1075.41 1365.61 1073.9 1367.23 1073.36L1381.37 1068.62Z" fill="#E8C6C6" style="fill:#E8C6C6;fill:color(display-p3 0.9087 0.7755 0.7755);fill-opacity:1;" />
	<circle cx="1278.63" cy="1026.37" r="34.3733" transform="rotate(90 1278.63 1026.37)" fill="#E8C6C6" style="fill:#E8C6C6;fill:color(display-p3 0.9087 0.7755 0.7755);fill-opacity:1;" />
	<path d="M1307.01 1082.43C1309.67 1083.97 1309.67 1087.82 1307.01 1089.36L1236.95 1129.8C1234.28 1131.34 1230.95 1129.42 1230.95 1126.34L1230.95 1045.45C1230.95 1042.37 1234.28 1040.44 1236.95 1041.98L1307.01 1082.43Z" fill="#E8C6C6" style="fill:#E8C6C6;fill:color(display-p3 0.9087 0.7755 0.7755);fill-opacity:1;" />
	<path d="M1300.37 1150.52C1304.01 1151.74 1304.01 1156.89 1300.37 1158.11L1286.24 1162.84C1284.62 1163.38 1283.52 1164.89 1283.51 1166.6L1283.37 1181.51C1283.34 1185.34 1278.44 1186.94 1276.16 1183.85L1267.29 1171.87C1266.27 1170.5 1264.5 1169.92 1262.87 1170.43L1248.65 1174.91C1244.99 1176.07 1241.96 1171.9 1244.19 1168.78L1252.85 1156.64C1253.84 1155.25 1253.84 1153.38 1252.85 1151.99L1244.19 1139.85C1241.96 1136.73 1244.99 1132.56 1248.65 1133.71L1262.87 1138.19C1264.5 1138.71 1266.27 1138.13 1267.29 1136.76L1276.16 1124.78C1278.44 1121.69 1283.34 1123.28 1283.37 1127.12L1283.51 1142.03C1283.52 1143.74 1284.62 1145.24 1286.24 1145.79L1300.37 1150.52Z" fill="#E8C6C6" style="fill:#E8C6C6;fill:color(display-p3 0.9087 0.7755 0.7755);fill-opacity:1;" />
	<circle cx="1102.37" cy="1407.88" r="34.3733" transform="rotate(-90 1102.37 1407.88)" fill="#E8C6C6" style="fill:#E8C6C6;fill:color(display-p3 0.9087 0.7755 0.7755);fill-opacity:1;" />
	<path d="M1074 1351.82C1071.33 1350.28 1071.33 1346.43 1074 1344.9L1144.05 1304.45C1146.72 1302.91 1150.05 1304.83 1150.05 1307.91L1150.05 1388.81C1150.05 1391.88 1146.72 1393.81 1144.05 1392.27L1074 1351.82Z" fill="#E8C6C6" style="fill:#E8C6C6;fill:color(display-p3 0.9087 0.7755 0.7755);fill-opacity:1;" />
	<path d="M1080.63 1283.73C1076.99 1282.51 1076.99 1277.37 1080.63 1276.15L1094.77 1271.41C1096.39 1270.87 1097.48 1269.36 1097.5 1267.66L1097.63 1252.75C1097.67 1248.91 1102.56 1247.32 1104.85 1250.4L1113.72 1262.38C1114.73 1263.76 1116.51 1264.33 1118.14 1263.82L1132.36 1259.34C1136.02 1258.19 1139.04 1262.35 1136.81 1265.48L1128.16 1277.62C1127.17 1279.01 1127.17 1280.87 1128.16 1282.26L1136.81 1294.4C1139.04 1297.53 1136.02 1301.69 1132.36 1300.54L1118.14 1296.06C1116.51 1295.55 1114.73 1296.12 1113.72 1297.49L1104.85 1309.48C1102.56 1312.56 1097.67 1310.97 1097.63 1307.13L1097.5 1292.22C1097.48 1290.52 1096.39 1289.01 1094.77 1288.47L1080.63 1283.73Z" fill="#E8C6C6" style="fill:#E8C6C6;fill:color(display-p3 0.9087 0.7755 0.7755);fill-opacity:1;" />
	<circle cx="34.3733" cy="34.3733" r="34.3733" transform="matrix(4.37114e-08 1 1 -4.37114e-08 1148.99 1207.11)" fill="#E8C6C6" style="fill:#E8C6C6;fill:color(display-p3 0.9087 0.7755 0.7755);fill-opacity:1;" />
	<path d="M1154.99 1297.54C1152.33 1299.08 1152.33 1302.93 1154.99 1304.47L1225.05 1344.91C1227.72 1346.45 1231.05 1344.53 1231.05 1341.45L1231.05 1260.56C1231.05 1257.48 1227.72 1255.55 1225.05 1257.09L1154.99 1297.54Z" fill="#E8C6C6" style="fill:#E8C6C6;fill:color(display-p3 0.9087 0.7755 0.7755);fill-opacity:1;" />
	<path d="M1161.63 1365.63C1157.99 1366.85 1157.99 1372 1161.63 1373.22L1175.76 1377.95C1177.38 1378.49 1178.48 1380 1178.49 1381.71L1178.63 1396.62C1178.66 1400.46 1183.56 1402.05 1185.84 1398.96L1194.71 1386.98C1195.73 1385.61 1197.5 1385.03 1199.13 1385.54L1213.35 1390.02C1217.01 1391.18 1220.04 1387.01 1217.81 1383.89L1209.15 1371.75C1208.16 1370.36 1208.16 1368.49 1209.15 1367.1L1217.81 1354.96C1220.04 1351.84 1217.01 1347.67 1213.35 1348.83L1199.13 1353.3C1197.5 1353.82 1195.73 1353.24 1194.71 1351.87L1185.84 1339.89C1183.56 1336.8 1178.66 1338.39 1178.63 1342.23L1178.49 1357.14C1178.48 1358.85 1177.38 1360.35 1175.76 1360.9L1161.63 1365.63Z" fill="#E8C6C6" style="fill:#E8C6C6;fill:color(display-p3 0.9087 0.7755 0.7755);fill-opacity:1;" />
	<circle cx="1102.37" cy="1192.77" r="34.3733" transform="rotate(-90 1102.37 1192.77)" fill="#E8C6C6" style="fill:#E8C6C6;fill:color(display-p3 0.9087 0.7755 0.7755);fill-opacity:1;" />
	<path d="M1074 1136.71C1071.33 1135.17 1071.33 1131.32 1074 1129.78L1144.05 1089.34C1146.72 1087.8 1150.05 1089.72 1150.05 1092.8L1150.05 1173.7C1150.05 1176.77 1146.72 1178.7 1144.05 1177.16L1074 1136.71Z" fill="#E8C6C6" style="fill:#E8C6C6;fill:color(display-p3 0.9087 0.7755 0.7755);fill-opacity:1;" />
	<path d="M1080.63 1068.62C1076.99 1067.4 1076.99 1062.25 1080.63 1061.04L1094.77 1056.3C1096.39 1055.76 1097.48 1054.25 1097.5 1052.54L1097.63 1037.64C1097.67 1033.8 1102.56 1032.21 1104.85 1035.29L1113.72 1047.27C1114.73 1048.65 1116.51 1049.22 1118.14 1048.71L1132.36 1044.23C1136.02 1043.08 1139.04 1047.24 1136.81 1050.37L1128.16 1062.51C1127.17 1063.9 1127.17 1065.76 1128.16 1067.15L1136.81 1079.29C1139.04 1082.42 1136.02 1086.58 1132.36 1085.43L1118.14 1080.95C1116.51 1080.44 1114.73 1081.01 1113.72 1082.38L1104.85 1094.37C1102.56 1097.45 1097.67 1095.86 1097.63 1092.02L1097.5 1077.11C1097.48 1075.41 1096.39 1073.9 1094.77 1073.36L1080.63 1068.62Z" fill="#E8C6C6" style="fill:#E8C6C6;fill:color(display-p3 0.9087 0.7755 0.7755);fill-opacity:1;" />
	<circle cx="34.3733" cy="34.3733" r="34.3733" transform="matrix(4.37114e-08 1 1 -4.37114e-08 1148.99 992)" fill="#E8C6C6" style="fill:#E8C6C6;fill:color(display-p3 0.9087 0.7755 0.7755);fill-opacity:1;" />
	<path d="M1154.99 1082.43C1152.33 1083.97 1152.33 1087.82 1154.99 1089.36L1225.05 1129.8C1227.72 1131.34 1231.05 1129.42 1231.05 1126.34L1231.05 1045.45C1231.05 1042.37 1227.72 1040.44 1225.05 1041.98L1154.99 1082.43Z" fill="#E8C6C6" style="fill:#E8C6C6;fill:color(display-p3 0.9087 0.7755 0.7755);fill-opacity:1;" />
	<path d="M1161.63 1150.52C1157.99 1151.74 1157.99 1156.89 1161.63 1158.11L1175.76 1162.84C1177.38 1163.38 1178.48 1164.89 1178.49 1166.6L1178.63 1181.51C1178.66 1185.34 1183.56 1186.94 1185.84 1183.85L1194.71 1171.87C1195.73 1170.5 1197.5 1169.92 1199.13 1170.43L1213.35 1174.91C1217.01 1176.07 1220.04 1171.9 1217.81 1168.78L1209.15 1156.64C1208.16 1155.25 1208.16 1153.38 1209.15 1151.99L1217.81 1139.85C1220.04 1136.73 1217.01 1132.56 1213.35 1133.71L1199.13 1138.19C1197.5 1138.71 1195.73 1138.13 1194.71 1136.76L1185.84 1124.78C1183.56 1121.69 1178.66 1123.28 1178.63 1127.12L1178.49 1142.03C1178.48 1143.74 1177.38 1145.24 1175.76 1145.79L1161.63 1150.52Z" fill="#E8C6C6" style="fill:#E8C6C6;fill:color(display-p3 0.9087 0.7755 0.7755);fill-opacity:1;" />
	<circle cx="640.188" cy="75.4573" r="75.4572" transform="rotate(90 640.188 75.4573)" fill="#E8C6C6" style="fill:#E8C6C6;fill:color(display-p3 0.9087 0.7755 0.7755);fill-opacity:1;" />
	<path d="M709.645 202.654C712.312 204.194 712.312 208.043 709.645 209.582L541.516 306.652C538.849 308.192 535.516 306.267 535.516 303.188L535.516 109.049C535.516 105.97 538.849 104.045 541.516 105.585L709.645 202.654Z" fill="#E8C6C6" style="fill:#E8C6C6;fill:color(display-p3 0.9087 0.7755 0.7755);fill-opacity:1;" />
	<path d="M701.452 352.523C705.092 353.742 705.092 358.89 701.452 360.109L653.649 376.118C652.031 376.66 650.935 378.169 650.92 379.875L650.466 430.285C650.431 434.123 645.535 435.714 643.251 432.629L613.254 392.113C612.238 390.742 610.465 390.166 608.837 390.678L560.754 405.824C557.093 406.977 554.067 402.812 556.295 399.687L585.558 358.638C586.549 357.248 586.549 355.383 585.558 353.994L556.295 312.945C554.067 309.819 557.093 305.654 560.754 306.807L608.837 321.953C610.465 322.466 612.238 321.89 613.254 320.518L643.251 280.003C645.535 276.918 650.431 278.509 650.466 282.347L650.92 332.757C650.935 334.463 652.031 335.972 653.649 336.514L701.452 352.523Z" fill="#E8C6C6" style="fill:#E8C6C6;fill:color(display-p3 0.9087 0.7755 0.7755);fill-opacity:1;" />
	<circle cx="75.4572" cy="75.4572" r="75.4572" transform="matrix(4.37114e-08 -1 -1 -4.37114e-08 537.846 516.192)" fill="#E8C6C6" style="fill:#E8C6C6;fill:color(display-p3 0.9087 0.7755 0.7755);fill-opacity:1;" />
	<path d="M531.846 313.538C534.512 311.998 534.512 308.149 531.846 306.609L363.716 209.54C361.05 208 357.716 209.925 357.716 213.004L357.716 407.143C357.716 410.222 361.05 412.147 363.716 410.607L531.846 313.538Z" fill="#E8C6C6" style="fill:#E8C6C6;fill:color(display-p3 0.9087 0.7755 0.7755);fill-opacity:1;" />
	<path d="M523.653 163.669C527.292 162.45 527.292 157.302 523.653 156.083L475.85 140.074C474.232 139.532 473.136 138.023 473.121 136.317L472.667 85.907C472.632 82.0689 467.736 80.478 465.452 83.5629L435.455 124.079C434.439 125.45 432.666 126.026 431.038 125.514L382.955 110.368C379.294 109.215 376.268 113.379 378.496 116.505L407.759 157.554C408.75 158.944 408.75 160.809 407.759 162.198L378.496 203.247C376.268 206.373 379.294 210.538 382.955 209.384L431.038 194.239C432.666 193.726 434.439 194.302 435.455 195.674L465.452 236.189C467.736 239.274 472.632 237.683 472.667 233.845L473.121 183.435C473.136 181.729 474.232 180.22 475.85 179.678L523.653 163.669Z" fill="#E8C6C6" style="fill:#E8C6C6;fill:color(display-p3 0.9087 0.7755 0.7755);fill-opacity:1;" />
	<circle cx="640.188" cy="547.675" r="75.4572" transform="rotate(90 640.188 547.675)" fill="#E8C6C6" style="fill:#E8C6C6;fill:color(display-p3 0.9087 0.7755 0.7755);fill-opacity:1;" />
	<path d="M709.645 674.872C712.312 676.411 712.312 680.26 709.645 681.8L541.516 778.869C538.849 780.409 535.516 778.484 535.516 775.405L535.516 581.266C535.516 578.187 538.849 576.262 541.516 577.802L709.645 674.872Z" fill="#E8C6C6" style="fill:#E8C6C6;fill:color(display-p3 0.9087 0.7755 0.7755);fill-opacity:1;" />
	<path d="M701.452 824.74C705.092 825.959 705.092 831.107 701.452 832.326L653.649 848.335C652.031 848.877 650.935 850.386 650.92 852.092L650.466 902.502C650.431 906.34 645.535 907.931 643.251 904.846L613.254 864.331C612.238 862.959 610.465 862.383 608.837 862.896L560.754 878.041C557.093 879.195 554.067 875.03 556.295 871.904L585.558 830.855C586.549 829.465 586.549 827.601 585.558 826.211L556.295 785.162C554.067 782.036 557.093 777.872 560.754 779.025L608.837 794.171C610.465 794.683 612.238 794.107 613.254 792.736L643.251 752.22C645.535 749.135 650.431 750.726 650.466 754.564L650.92 804.974C650.935 806.68 652.031 808.189 653.649 808.731L701.452 824.74Z" fill="#E8C6C6" style="fill:#E8C6C6;fill:color(display-p3 0.9087 0.7755 0.7755);fill-opacity:1;" />
	<circle cx="75.4572" cy="75.4572" r="75.4572" transform="matrix(4.37114e-08 -1 -1 -4.37114e-08 537.846 988.409)" fill="#E8C6C6" style="fill:#E8C6C6;fill:color(display-p3 0.9087 0.7755 0.7755);fill-opacity:1;" />
	<path d="M531.846 785.755C534.512 784.215 534.512 780.366 531.846 778.827L363.716 681.757C361.05 680.218 357.716 682.142 357.716 685.221L357.716 879.36C357.716 882.44 361.05 884.364 363.716 882.825L531.846 785.755Z" fill="#E8C6C6" style="fill:#E8C6C6;fill:color(display-p3 0.9087 0.7755 0.7755);fill-opacity:1;" />
	<path d="M523.653 635.886C527.292 634.667 527.292 629.519 523.653 628.301L475.85 612.291C474.232 611.749 473.136 610.241 473.121 608.534L472.667 558.124C472.632 554.286 467.736 552.695 465.452 555.78L435.455 596.296C434.439 597.667 432.666 598.244 431.038 597.731L382.955 582.585C379.294 581.432 376.268 585.597 378.496 588.722L407.759 629.772C408.75 631.161 408.75 633.026 407.759 634.415L378.496 675.465C376.268 678.59 379.294 682.755 382.955 681.602L431.038 666.456C432.666 665.943 434.439 666.52 435.455 667.891L465.452 708.407C467.736 711.492 472.632 709.901 472.667 706.063L473.121 655.653C473.136 653.946 474.232 652.438 475.85 651.896L523.653 635.886Z" fill="#E8C6C6" style="fill:#E8C6C6;fill:color(display-p3 0.9087 0.7755 0.7755);fill-opacity:1;" />
	<circle cx="75.4572" cy="75.4572" r="75.4572" transform="matrix(-4.37114e-08 1 1 4.37114e-08 0.000244141 6.10352e-05)" fill="#E8C6C6" style="fill:#E8C6C6;fill:color(display-p3 0.9087 0.7755 0.7755);fill-opacity:1;" />
	<path d="M6.00024 202.654C3.33357 204.194 3.33357 208.043 6.00024 209.582L174.13 306.652C176.796 308.192 180.13 306.267 180.13 303.188L180.13 109.049C180.13 105.97 176.796 104.045 174.13 105.585L6.00024 202.654Z" fill="#E8C6C6" style="fill:#E8C6C6;fill:color(display-p3 0.9087 0.7755 0.7755);fill-opacity:1;" />
	<path d="M14.1934 352.523C10.5537 353.742 10.5537 358.89 14.1934 360.109L61.9958 376.118C63.6139 376.66 64.71 378.169 64.7254 379.875L65.1793 430.285C65.2139 434.123 70.1099 435.714 72.3939 432.629L102.391 392.113C103.407 390.742 105.18 390.166 106.808 390.678L154.891 405.824C158.552 406.977 161.578 402.812 159.35 399.687L130.087 358.638C129.096 357.248 129.096 355.383 130.087 353.994L159.35 312.945C161.578 309.819 158.552 305.654 154.891 306.807L106.808 321.953C105.18 322.466 103.407 321.89 102.391 320.518L72.3939 280.003C70.1099 276.918 65.2139 278.509 65.1793 282.347L64.7254 332.757C64.71 334.463 63.6139 335.972 61.9958 336.514L14.1934 352.523Z" fill="#E8C6C6" style="fill:#E8C6C6;fill:color(display-p3 0.9087 0.7755 0.7755);fill-opacity:1;" />
	<circle cx="253.257" cy="440.735" r="75.4572" transform="rotate(-90 253.257 440.735)" fill="#E8C6C6" style="fill:#E8C6C6;fill:color(display-p3 0.9087 0.7755 0.7755);fill-opacity:1;" />
	<path d="M183.8 313.538C181.133 311.998 181.133 308.149 183.8 306.609L351.929 209.54C354.596 208 357.929 209.925 357.929 213.004L357.929 407.143C357.929 410.222 354.596 412.147 351.929 410.607L183.8 313.538Z" fill="#E8C6C6" style="fill:#E8C6C6;fill:color(display-p3 0.9087 0.7755 0.7755);fill-opacity:1;" />
	<path d="M191.993 163.669C188.353 162.45 188.353 157.302 191.993 156.083L239.795 140.074C241.413 139.532 242.509 138.023 242.525 136.317L242.979 85.9071C243.013 82.0689 247.909 80.4781 250.193 83.5629L280.191 124.079C281.206 125.45 282.98 126.026 284.607 125.514L332.69 110.368C336.351 109.215 339.377 113.379 337.149 116.505L307.886 157.554C306.896 158.944 306.896 160.809 307.886 162.198L337.149 203.247C339.377 206.373 336.351 210.538 332.69 209.384L284.607 194.239C282.98 193.726 281.206 194.302 280.191 195.674L250.193 236.189C247.909 239.274 243.013 237.683 242.979 233.845L242.525 183.435C242.509 181.729 241.413 180.22 239.795 179.678L191.993 163.669Z" fill="#E8C6C6" style="fill:#E8C6C6;fill:color(display-p3 0.9087 0.7755 0.7755);fill-opacity:1;" />
	<circle cx="75.4572" cy="75.4572" r="75.4572" transform="matrix(-4.37114e-08 1 1 4.37114e-08 0.000244141 472.217)" fill="#E8C6C6" style="fill:#E8C6C6;fill:color(display-p3 0.9087 0.7755 0.7755);fill-opacity:1;" />
	<path d="M6.00024 674.872C3.33357 676.411 3.33357 680.26 6.00024 681.8L174.13 778.869C176.796 780.409 180.13 778.484 180.13 775.405L180.13 581.266C180.13 578.187 176.796 576.262 174.13 577.802L6.00024 674.872Z" fill="#E8C6C6" style="fill:#E8C6C6;fill:color(display-p3 0.9087 0.7755 0.7755);fill-opacity:1;" />
	<path d="M14.1934 824.74C10.5537 825.959 10.5537 831.107 14.1934 832.326L61.9958 848.335C63.6139 848.877 64.71 850.386 64.7254 852.092L65.1793 902.502C65.2139 906.34 70.1099 907.931 72.3939 904.846L102.391 864.331C103.407 862.959 105.18 862.383 106.808 862.896L154.891 878.041C158.552 879.195 161.578 875.03 159.35 871.904L130.087 830.855C129.096 829.465 129.096 827.601 130.087 826.211L159.35 785.162C161.578 782.036 158.552 777.872 154.891 779.025L106.808 794.171C105.18 794.683 103.407 794.107 102.391 792.736L72.3939 752.22C70.1099 749.135 65.2139 750.726 65.1793 754.564L64.7254 804.974C64.71 806.68 63.6139 808.189 61.9958 808.731L14.1934 824.74Z" fill="#E8C6C6" style="fill:#E8C6C6;fill:color(display-p3 0.9087 0.7755 0.7755);fill-opacity:1;" />
	<circle cx="253.257" cy="912.952" r="75.4572" transform="rotate(-90 253.257 912.952)" fill="#E8C6C6" style="fill:#E8C6C6;fill:color(display-p3 0.9087 0.7755 0.7755);fill-opacity:1;" />
	<path d="M183.8 785.755C181.133 784.215 181.133 780.366 183.8 778.827L351.929 681.757C354.596 680.218 357.929 682.142 357.929 685.221L357.929 879.36C357.929 882.44 354.596 884.364 351.929 882.825L183.8 785.755Z" fill="#E8C6C6" style="fill:#E8C6C6;fill:color(display-p3 0.9087 0.7755 0.7755);fill-opacity:1;" />
	<path d="M191.993 635.886C188.353 634.667 188.353 629.519 191.993 628.3L239.795 612.291C241.413 611.749 242.509 610.241 242.525 608.534L242.979 558.124C243.013 554.286 247.909 552.695 250.193 555.78L280.191 596.296C281.206 597.667 282.98 598.244 284.607 597.731L332.69 582.585C336.351 581.432 339.377 585.597 337.149 588.722L307.886 629.772C306.896 631.161 306.896 633.026 307.886 634.415L337.149 675.465C339.377 678.59 336.351 682.755 332.69 681.602L284.607 666.456C282.98 665.943 281.206 666.52 280.191 667.891L250.193 708.407C247.909 711.492 243.013 709.901 242.979 706.063L242.525 655.653C242.509 653.946 241.413 652.438 239.795 651.896L191.993 635.886Z" fill="#E8C6C6" style="fill:#E8C6C6;fill:color(display-p3 0.9087 0.7755 0.7755);fill-opacity:1;" />
	<circle cx="804.471" cy="529.471" r="53.4707" fill="#E8C6C6" style="fill:#E8C6C6;fill:color(display-p3 0.9087 0.7755 0.7755);fill-opacity:1;" />
	<path d="M893.596 482C895.135 479.333 898.984 479.333 900.524 482L967.291 597.644C968.831 600.31 966.906 603.644 963.827 603.644L830.293 603.644C827.214 603.644 825.289 600.311 826.829 597.644L893.596 482Z" fill="#E8C6C6" style="fill:#E8C6C6;fill:color(display-p3 0.9087 0.7755 0.7755);fill-opacity:1;" />
	<path d="M999.7 489.358C1000.92 485.718 1006.07 485.718 1007.29 489.358L1017.26 519.144C1017.8 520.762 1019.31 521.858 1021.02 521.873L1052.43 522.156C1056.27 522.191 1057.86 527.087 1054.77 529.371L1029.53 548.062C1028.16 549.078 1027.58 550.851 1028.09 552.479L1037.53 582.44C1038.68 586.101 1034.52 589.127 1031.39 586.899L1005.82 568.665C1004.43 567.674 1002.56 567.674 1001.17 568.665L975.593 586.899C972.468 589.127 968.303 586.101 969.456 582.44L978.894 552.479C979.406 550.851 978.83 549.078 977.459 548.062L952.213 529.371C949.128 527.087 950.719 522.191 954.557 522.156L985.968 521.873C987.674 521.858 989.183 520.762 989.725 519.144L999.7 489.358Z" fill="#E8C6C6" style="fill:#E8C6C6;fill:color(display-p3 0.9087 0.7755 0.7755);fill-opacity:1;" />
	<circle cx="53.4707" cy="53.4707" r="53.4707" transform="matrix(-1 8.74228e-08 8.74228e-08 1 1116.79 601.993)" fill="#E8C6C6" style="fill:#E8C6C6;fill:color(display-p3 0.9087 0.7755 0.7755);fill-opacity:1;" />
	<path d="M974.189 607.993C972.65 605.326 968.801 605.326 967.261 607.993L900.494 723.636C898.955 726.303 900.879 729.636 903.958 729.636L1037.49 729.636C1040.57 729.636 1042.5 726.303 1040.96 723.636L974.189 607.993Z" fill="#E8C6C6" style="fill:#E8C6C6;fill:color(display-p3 0.9087 0.7755 0.7755);fill-opacity:1;" />
	<path d="M868.085 615.35C866.866 611.711 861.718 611.711 860.499 615.35L850.523 645.136C849.981 646.754 848.473 647.851 846.766 647.866L815.356 648.149C811.517 648.183 809.927 653.079 813.011 655.363L838.257 674.055C839.629 675.07 840.205 676.844 839.692 678.472L830.255 708.432C829.101 712.093 833.266 715.119 836.392 712.891L861.97 694.657C863.359 693.667 865.224 693.667 866.614 694.657L892.192 712.891C895.317 715.119 899.482 712.093 898.329 708.432L888.891 678.472C888.379 676.844 888.955 675.07 890.326 674.055L915.572 655.363C918.657 653.079 917.066 648.183 913.228 648.149L881.817 647.866C880.111 647.851 878.602 646.754 878.06 645.136L868.085 615.35Z" fill="#E8C6C6" style="fill:#E8C6C6;fill:color(display-p3 0.9087 0.7755 0.7755);fill-opacity:1;" />
	<circle cx="1139.09" cy="529.471" r="53.4707" fill="#E8C6C6" style="fill:#E8C6C6;fill:color(display-p3 0.9087 0.7755 0.7755);fill-opacity:1;" />
	<path d="M1228.22 482C1229.76 479.333 1233.61 479.333 1235.15 482L1301.91 597.644C1303.45 600.31 1301.53 603.644 1298.45 603.644L1164.92 603.644C1161.84 603.644 1159.91 600.31 1161.45 597.644L1228.22 482Z" fill="#E8C6C6" style="fill:#E8C6C6;fill:color(display-p3 0.9087 0.7755 0.7755);fill-opacity:1;" />
	<path d="M1334.32 489.358C1335.54 485.718 1340.69 485.718 1341.91 489.358L1351.89 519.144C1352.43 520.762 1353.94 521.858 1355.64 521.873L1387.05 522.156C1390.89 522.191 1392.48 527.087 1389.4 529.371L1364.15 548.062C1362.78 549.078 1362.2 550.851 1362.72 552.479L1372.15 582.44C1373.31 586.101 1369.14 589.127 1366.02 586.899L1340.44 568.665C1339.05 567.674 1337.18 567.674 1335.8 568.665L1310.22 586.899C1307.09 589.127 1302.93 586.101 1304.08 582.44L1313.52 552.479C1314.03 550.851 1313.45 549.078 1312.08 548.062L1286.84 529.371C1283.75 527.087 1285.34 522.191 1289.18 522.156L1320.59 521.873C1322.3 521.858 1323.81 520.762 1324.35 519.144L1334.32 489.358Z" fill="#E8C6C6" style="fill:#E8C6C6;fill:color(display-p3 0.9087 0.7755 0.7755);fill-opacity:1;" />
	<circle cx="53.4707" cy="53.4707" r="53.4707" transform="matrix(-1 8.74228e-08 8.74228e-08 1 1451.41 601.993)" fill="#E8C6C6" style="fill:#E8C6C6;fill:color(display-p3 0.9087 0.7755 0.7755);fill-opacity:1;" />
	<path d="M1308.81 607.993C1307.27 605.326 1303.42 605.326 1301.88 607.993L1235.12 723.636C1233.58 726.303 1235.5 729.636 1238.58 729.636L1372.12 729.636C1375.2 729.636 1377.12 726.303 1375.58 723.636L1308.81 607.993Z" fill="#E8C6C6" style="fill:#E8C6C6;fill:color(display-p3 0.9087 0.7755 0.7755);fill-opacity:1;" />
	<path d="M1202.71 615.35C1201.49 611.711 1196.34 611.711 1195.12 615.35L1185.15 645.136C1184.61 646.754 1183.1 647.851 1181.39 647.866L1149.98 648.149C1146.14 648.183 1144.55 653.079 1147.64 655.363L1172.88 674.055C1174.25 675.07 1174.83 676.844 1174.32 678.472L1164.88 708.432C1163.73 712.093 1167.89 715.119 1171.02 712.891L1196.59 694.657C1197.98 693.667 1199.85 693.667 1201.24 694.657L1226.82 712.891C1229.94 715.119 1234.11 712.093 1232.95 708.432L1223.52 678.472C1223 676.844 1223.58 675.07 1224.95 674.055L1250.2 655.363C1253.28 653.079 1251.69 648.183 1247.85 648.149L1216.44 647.866C1214.73 647.851 1213.23 646.754 1212.68 645.136L1202.71 615.35Z" fill="#E8C6C6" style="fill:#E8C6C6;fill:color(display-p3 0.9087 0.7755 0.7755);fill-opacity:1;" />
	<circle cx="53.4707" cy="53.4707" r="53.4707" transform="matrix(1 -8.74228e-08 -8.74228e-08 -1 751 983.122)" fill="#E8C6C6" style="fill:#E8C6C6;fill:color(display-p3 0.9087 0.7755 0.7755);fill-opacity:1;" />
	<path d="M893.596 977.122C895.135 979.789 898.984 979.789 900.524 977.122L967.291 861.478C968.831 858.812 966.906 855.478 963.827 855.478L830.293 855.478C827.214 855.478 825.289 858.812 826.829 861.478L893.596 977.122Z" fill="#E8C6C6" style="fill:#E8C6C6;fill:color(display-p3 0.9087 0.7755 0.7755);fill-opacity:1;" />
	<path d="M999.7 969.764C1000.92 973.404 1006.07 973.404 1007.29 969.765L1017.26 939.978C1017.8 938.36 1019.31 937.264 1021.02 937.249L1052.43 936.966C1056.27 936.931 1057.86 932.035 1054.77 929.751L1029.53 911.06C1028.16 910.044 1027.58 908.271 1028.09 906.643L1037.53 876.682C1038.68 873.021 1034.52 869.995 1031.39 872.223L1005.82 890.457C1004.43 891.448 1002.56 891.448 1001.17 890.457L975.593 872.223C972.468 869.995 968.303 873.021 969.456 876.682L978.894 906.643C979.406 908.271 978.83 910.044 977.459 911.06L952.213 929.751C949.128 932.035 950.719 936.931 954.557 936.966L985.968 937.249C987.674 937.264 989.183 938.36 989.725 939.978L999.7 969.764Z" fill="#E8C6C6" style="fill:#E8C6C6;fill:color(display-p3 0.9087 0.7755 0.7755);fill-opacity:1;" />
	<circle cx="1063.31" cy="803.659" r="53.4707" transform="rotate(180 1063.31 803.659)" fill="#E8C6C6" style="fill:#E8C6C6;fill:color(display-p3 0.9087 0.7755 0.7755);fill-opacity:1;" />
	<path d="M974.189 851.129C972.649 853.796 968.8 853.796 967.261 851.129L900.494 735.486C898.954 732.819 900.879 729.486 903.958 729.486L1037.49 729.486C1040.57 729.486 1042.5 732.819 1040.96 735.486L974.189 851.129Z" fill="#E8C6C6" style="fill:#E8C6C6;fill:color(display-p3 0.9087 0.7755 0.7755);fill-opacity:1;" />
	<path d="M868.085 843.772C866.866 847.412 861.718 847.412 860.499 843.772L850.523 813.986C849.981 812.368 848.473 811.272 846.766 811.256L815.356 810.973C811.517 810.939 809.927 806.043 813.011 803.759L838.257 785.067C839.629 784.052 840.205 782.278 839.692 780.651L830.255 750.69C829.101 747.029 833.266 744.003 836.392 746.231L861.97 764.465C863.359 765.455 865.224 765.455 866.614 764.465L892.192 746.231C895.317 744.003 899.482 747.029 898.329 750.69L888.891 780.651C888.379 782.278 888.955 784.052 890.326 785.067L915.572 803.759C918.657 806.043 917.066 810.939 913.228 810.973L881.817 811.256C880.111 811.272 878.602 812.368 878.06 813.986L868.085 843.772Z" fill="#E8C6C6" style="fill:#E8C6C6;fill:color(display-p3 0.9087 0.7755 0.7755);fill-opacity:1;" />
	<circle cx="53.4707" cy="53.4707" r="53.4707" transform="matrix(1 -8.74228e-08 -8.74228e-08 -1 1085.62 983.122)" fill="#E8C6C6" style="fill:#E8C6C6;fill:color(display-p3 0.9087 0.7755 0.7755);fill-opacity:1;" />
	<path d="M1228.22 977.122C1229.76 979.789 1233.61 979.789 1235.15 977.122L1301.92 861.478C1303.45 858.812 1301.53 855.478 1298.45 855.478L1164.92 855.478C1161.84 855.478 1159.91 858.812 1161.45 861.478L1228.22 977.122Z" fill="#E8C6C6" style="fill:#E8C6C6;fill:color(display-p3 0.9087 0.7755 0.7755);fill-opacity:1;" />
	<path d="M1334.32 969.765C1335.54 973.404 1340.69 973.404 1341.91 969.765L1351.89 939.978C1352.43 938.36 1353.94 937.264 1355.64 937.249L1387.05 936.966C1390.89 936.931 1392.48 932.035 1389.4 929.751L1364.15 911.06C1362.78 910.044 1362.2 908.271 1362.72 906.643L1372.15 876.682C1373.31 873.021 1369.14 869.995 1366.02 872.224L1340.44 890.458C1339.05 891.448 1337.18 891.448 1335.8 890.458L1310.22 872.224C1307.09 869.995 1302.93 873.021 1304.08 876.682L1313.52 906.643C1314.03 908.271 1313.45 910.044 1312.08 911.06L1286.84 929.751C1283.75 932.035 1285.34 936.931 1289.18 936.966L1320.59 937.249C1322.3 937.264 1323.81 938.36 1324.35 939.978L1334.32 969.765Z" fill="#E8C6C6" style="fill:#E8C6C6;fill:color(display-p3 0.9087 0.7755 0.7755);fill-opacity:1;" />
	<circle cx="1397.94" cy="803.659" r="53.4707" transform="rotate(180 1397.94 803.659)" fill="#E8C6C6" style="fill:#E8C6C6;fill:color(display-p3 0.9087 0.7755 0.7755);fill-opacity:1;" />
	<path d="M1308.81 851.129C1307.27 853.796 1303.42 853.796 1301.88 851.129L1235.12 735.486C1233.58 732.819 1235.5 729.486 1238.58 729.486L1372.12 729.486C1375.2 729.486 1377.12 732.819 1375.58 735.486L1308.81 851.129Z" fill="#E8C6C6" style="fill:#E8C6C6;fill:color(display-p3 0.9087 0.7755 0.7755);fill-opacity:1;" />
	<path d="M1202.71 843.772C1201.49 847.411 1196.34 847.412 1195.12 843.772L1185.15 813.986C1184.61 812.368 1183.1 811.272 1181.39 811.256L1149.98 810.973C1146.14 810.939 1144.55 806.043 1147.64 803.759L1172.88 785.067C1174.25 784.052 1174.83 782.278 1174.32 780.651L1164.88 750.69C1163.73 747.029 1167.89 744.003 1171.02 746.231L1196.59 764.465C1197.98 765.455 1199.85 765.455 1201.24 764.465L1226.82 746.231C1229.94 744.003 1234.11 747.029 1232.95 750.69L1223.52 780.651C1223 782.278 1223.58 784.052 1224.95 785.067L1250.2 803.759C1253.28 806.043 1251.69 810.939 1247.85 810.973L1216.44 811.256C1214.73 811.272 1213.23 812.368 1212.68 813.986L1202.71 843.772Z" fill="#E8C6C6" style="fill:#E8C6C6;fill:color(display-p3 0.9087 0.7755 0.7755);fill-opacity:1;" />
	<circle cx="34.3733" cy="34.3733" r="34.3733" transform="matrix(-4.37114e-08 -1 -1 4.37114e-08 1056 454.253)" fill="#E8C6C6" style="fill:#E8C6C6;fill:color(display-p3 0.9087 0.7755 0.7755);fill-opacity:1;" />
	<path d="M1050 363.824C1052.67 362.284 1052.67 358.435 1050 356.895L979.945 316.449C977.278 314.909 973.945 316.834 973.945 319.913L973.945 400.806C973.945 403.885 977.278 405.809 979.945 404.27L1050 363.824Z" fill="#E8C6C6" style="fill:#E8C6C6;fill:color(display-p3 0.9087 0.7755 0.7755);fill-opacity:1;" />
	<path d="M1043.37 295.732C1047.01 294.513 1047.01 289.365 1043.37 288.147L1029.23 283.412C1027.61 282.87 1026.52 281.361 1026.5 279.655L1026.37 264.747C1026.33 260.909 1021.44 259.318 1019.15 262.403L1010.28 274.385C1009.27 275.756 1007.49 276.332 1005.86 275.82L991.645 271.341C987.984 270.187 984.958 274.352 987.186 277.478L995.84 289.618C996.83 291.007 996.83 292.872 995.84 294.261L987.186 306.401C984.958 309.527 987.984 313.692 991.645 312.538L1005.86 308.059C1007.49 307.547 1009.27 308.123 1010.28 309.494L1019.15 321.476C1021.44 324.561 1026.33 322.97 1026.37 319.132L1026.5 304.224C1026.52 302.518 1027.61 301.009 1029.23 300.467L1043.37 295.732Z" fill="#E8C6C6" style="fill:#E8C6C6;fill:color(display-p3 0.9087 0.7755 0.7755);fill-opacity:1;" />
	<circle cx="940.633" cy="253.484" r="34.3733" transform="rotate(90 940.633 253.484)" fill="#E8C6C6" style="fill:#E8C6C6;fill:color(display-p3 0.9087 0.7755 0.7755);fill-opacity:1;" />
	<path d="M969.006 309.54C971.673 311.08 971.673 314.929 969.006 316.468L898.951 356.915C896.285 358.454 892.951 356.53 892.951 353.451L892.951 272.558C892.951 269.479 896.285 267.554 898.951 269.094L969.006 309.54Z" fill="#E8C6C6" style="fill:#E8C6C6;fill:color(display-p3 0.9087 0.7755 0.7755);fill-opacity:1;" />
	<path d="M962.375 377.631C966.014 378.85 966.014 383.998 962.375 385.217L948.238 389.952C946.62 390.494 945.523 392.002 945.508 393.709L945.374 408.617C945.339 412.455 940.443 414.046 938.159 410.961L929.288 398.979C928.272 397.608 926.499 397.031 924.871 397.544L910.651 402.023C906.99 403.176 903.964 399.012 906.192 395.886L914.847 383.746C915.837 382.357 915.837 380.492 914.847 379.102L906.192 366.962C903.964 363.837 906.99 359.672 910.651 360.825L924.871 365.305C926.499 365.817 928.272 365.241 929.288 363.87L938.159 351.887C940.443 348.803 945.339 350.393 945.374 354.232L945.508 369.14C945.523 370.846 946.62 372.355 948.238 372.897L962.375 377.631Z" fill="#E8C6C6" style="fill:#E8C6C6;fill:color(display-p3 0.9087 0.7755 0.7755);fill-opacity:1;" />
	<circle cx="34.3733" cy="34.3733" r="34.3733" transform="matrix(-4.37114e-08 -1 -1 4.37114e-08 1056 239.142)" fill="#E8C6C6" style="fill:#E8C6C6;fill:color(display-p3 0.9087 0.7755 0.7755);fill-opacity:1;" />
	<path d="M1050 148.713C1052.67 147.173 1052.67 143.324 1050 141.785L979.945 101.338C977.278 99.7988 973.945 101.723 973.945 104.803L973.945 185.695C973.945 188.774 977.278 190.699 979.945 189.159L1050 148.713Z" fill="#E8C6C6" style="fill:#E8C6C6;fill:color(display-p3 0.9087 0.7755 0.7755);fill-opacity:1;" />
	<path d="M1043.37 80.6218C1047.01 79.4029 1047.01 74.2549 1043.37 73.0359L1029.23 68.3014C1027.61 67.7595 1026.52 66.2508 1026.5 64.5445L1026.37 49.6362C1026.33 45.7981 1021.44 44.2072 1019.15 47.292L1010.28 59.2742C1009.27 60.6456 1007.49 61.2219 1005.86 60.7092L991.645 56.23C987.984 55.0768 984.958 59.2416 987.186 62.3671L995.84 74.507C996.83 75.8965 996.83 77.7613 995.84 79.1508L987.186 91.2907C984.958 94.4162 987.984 98.581 991.645 97.4278L1005.86 92.9486C1007.49 92.4359 1009.27 93.0122 1010.28 94.3836L1019.15 106.366C1021.44 109.451 1026.33 107.86 1026.37 104.022L1026.5 89.1133C1026.52 87.407 1027.61 85.8983 1029.23 85.3564L1043.37 80.6218Z" fill="#E8C6C6" style="fill:#E8C6C6;fill:color(display-p3 0.9087 0.7755 0.7755);fill-opacity:1;" />
	<circle cx="940.633" cy="38.3733" r="34.3733" transform="rotate(90 940.633 38.3733)" fill="#E8C6C6" style="fill:#E8C6C6;fill:color(display-p3 0.9087 0.7755 0.7755);fill-opacity:1;" />
	<path d="M969.006 94.4297C971.673 95.9693 971.673 99.8183 969.006 101.358L898.951 141.804C896.285 143.344 892.951 141.419 892.951 138.34L892.951 57.4476C892.951 54.3683 896.285 52.4438 898.951 53.9834L969.006 94.4297Z" fill="#E8C6C6" style="fill:#E8C6C6;fill:color(display-p3 0.9087 0.7755 0.7755);fill-opacity:1;" />
	<path d="M962.375 162.521C966.014 163.74 966.014 168.888 962.375 170.107L948.238 174.841C946.62 175.383 945.523 176.892 945.508 178.598L945.374 193.506C945.339 197.344 940.443 198.935 938.159 195.851L929.288 183.868C928.272 182.497 926.499 181.921 924.871 182.433L910.651 186.913C906.99 188.066 903.964 183.901 906.192 180.775L914.847 168.636C915.837 167.246 915.837 165.381 914.847 163.992L906.192 151.852C903.964 148.726 906.99 144.562 910.651 145.715L924.871 150.194C926.499 150.707 928.272 150.13 929.288 148.759L938.159 136.777C940.443 133.692 945.339 135.283 945.374 139.121L945.508 154.029C945.523 155.736 946.62 157.244 948.238 157.786L962.375 162.521Z" fill="#E8C6C6" style="fill:#E8C6C6;fill:color(display-p3 0.9087 0.7755 0.7755);fill-opacity:1;" />
	<circle cx="764.373" cy="419.88" r="34.3733" transform="rotate(-90 764.373 419.88)" fill="#E8C6C6" style="fill:#E8C6C6;fill:color(display-p3 0.9087 0.7755 0.7755);fill-opacity:1;" />
	<path d="M736 363.824C733.333 362.284 733.333 358.435 736 356.895L806.055 316.449C808.722 314.91 812.055 316.834 812.055 319.913L812.055 400.806C812.055 403.885 808.722 405.809 806.055 404.27L736 363.824Z" fill="#E8C6C6" style="fill:#E8C6C6;fill:color(display-p3 0.9087 0.7755 0.7755);fill-opacity:1;" />
	<path d="M742.632 295.732C738.992 294.514 738.992 289.366 742.632 288.147L756.769 283.412C758.387 282.87 759.483 281.361 759.499 279.655L759.633 264.747C759.667 260.909 764.563 259.318 766.847 262.403L775.719 274.385C776.734 275.756 778.508 276.333 780.135 275.82L794.355 271.341C798.016 270.187 801.042 274.352 798.814 277.478L790.16 289.618C789.17 291.007 789.17 292.872 790.16 294.261L798.814 306.401C801.042 309.527 798.016 313.692 794.355 312.538L780.135 308.059C778.508 307.547 776.734 308.123 775.719 309.494L766.847 321.476C764.563 324.561 759.667 322.97 759.633 319.132L759.499 304.224C759.483 302.518 758.387 301.009 756.769 300.467L742.632 295.732Z" fill="#E8C6C6" style="fill:#E8C6C6;fill:color(display-p3 0.9087 0.7755 0.7755);fill-opacity:1;" />
	<circle cx="34.3733" cy="34.3733" r="34.3733" transform="matrix(4.37114e-08 1 1 -4.37114e-08 810.994 219.111)" fill="#E8C6C6" style="fill:#E8C6C6;fill:color(display-p3 0.9087 0.7755 0.7755);fill-opacity:1;" />
	<path d="M816.994 309.54C814.327 311.08 814.327 314.929 816.994 316.469L887.049 356.915C889.715 358.454 893.049 356.53 893.049 353.451L893.049 272.558C893.049 269.479 889.715 267.555 887.049 269.094L816.994 309.54Z" fill="#E8C6C6" style="fill:#E8C6C6;fill:color(display-p3 0.9087 0.7755 0.7755);fill-opacity:1;" />
	<path d="M823.625 377.631C819.986 378.85 819.986 383.998 823.625 385.217L837.762 389.952C839.38 390.494 840.477 392.002 840.492 393.709L840.626 408.617C840.661 412.455 845.557 414.046 847.841 410.961L856.712 398.979C857.728 397.608 859.501 397.031 861.129 397.544L875.349 402.023C879.01 403.176 882.036 399.012 879.808 395.886L871.153 383.746C870.163 382.357 870.163 380.492 871.153 379.102L879.808 366.962C882.036 363.837 879.01 359.672 875.349 360.825L861.129 365.305C859.501 365.817 857.728 365.241 856.712 363.87L847.841 351.887C845.557 348.803 840.661 350.393 840.626 354.232L840.492 369.14C840.477 370.846 839.38 372.355 837.762 372.897L823.625 377.631Z" fill="#E8C6C6" style="fill:#E8C6C6;fill:color(display-p3 0.9087 0.7755 0.7755);fill-opacity:1;" />
	<circle cx="764.373" cy="204.769" r="34.3733" transform="rotate(-90 764.373 204.769)" fill="#E8C6C6" style="fill:#E8C6C6;fill:color(display-p3 0.9087 0.7755 0.7755);fill-opacity:1;" />
	<path d="M736 148.713C733.333 147.173 733.333 143.324 736 141.785L806.055 101.339C808.722 99.7989 812.055 101.723 812.055 104.803L812.055 185.695C812.055 188.774 808.722 190.699 806.055 189.159L736 148.713Z" fill="#E8C6C6" style="fill:#E8C6C6;fill:color(display-p3 0.9087 0.7755 0.7755);fill-opacity:1;" />
	<path d="M742.632 80.6219C738.992 79.403 738.992 74.2549 742.632 73.036L756.769 68.3014C758.387 67.7595 759.483 66.2508 759.499 64.5445L759.633 49.6363C759.667 45.7981 764.563 44.2073 766.847 47.2921L775.719 59.2742C776.734 60.6456 778.508 61.2219 780.135 60.7092L794.355 56.23C798.016 55.0768 801.042 59.2417 798.814 62.3671L790.16 74.507C789.17 75.8965 789.17 77.7614 790.16 79.1509L798.814 91.2908C801.042 94.4162 798.016 98.5811 794.355 97.4279L780.135 92.9487C778.508 92.436 776.734 93.0123 775.719 94.3837L766.847 106.366C764.563 109.451 759.667 107.86 759.633 104.022L759.499 89.1134C759.483 87.4071 758.387 85.8984 756.769 85.3565L742.632 80.6219Z" fill="#E8C6C6" style="fill:#E8C6C6;fill:color(display-p3 0.9087 0.7755 0.7755);fill-opacity:1;" />
	<circle cx="34.3733" cy="34.3733" r="34.3733" transform="matrix(4.37114e-08 1 1 -4.37114e-08 810.994 4.00012)" fill="#E8C6C6" style="fill:#E8C6C6;fill:color(display-p3 0.9087 0.7755 0.7755);fill-opacity:1;" />
	<path d="M816.994 94.4297C814.327 95.9693 814.327 99.8183 816.994 101.358L887.049 141.804C889.715 143.344 893.049 141.419 893.049 138.34L893.049 57.4475C893.049 54.3683 889.715 52.4438 887.049 53.9834L816.994 94.4297Z" fill="#E8C6C6" style="fill:#E8C6C6;fill:color(display-p3 0.9087 0.7755 0.7755);fill-opacity:1;" />
	<path d="M823.625 162.521C819.986 163.74 819.986 168.888 823.625 170.107L837.762 174.841C839.38 175.383 840.477 176.892 840.492 178.598L840.626 193.506C840.661 197.345 845.557 198.935 847.841 195.851L856.712 183.868C857.728 182.497 859.501 181.921 861.129 182.433L875.349 186.913C879.01 188.066 882.036 183.901 879.808 180.776L871.153 168.636C870.163 167.246 870.163 165.381 871.153 163.992L879.808 151.852C882.036 148.726 879.01 144.562 875.349 145.715L861.129 150.194C859.501 150.707 857.728 150.13 856.712 148.759L847.841 136.777C845.557 133.692 840.661 135.283 840.626 139.121L840.492 154.029C840.477 155.736 839.38 157.244 837.762 157.786L823.625 162.521Z" fill="#E8C6C6" style="fill:#E8C6C6;fill:color(display-p3 0.9087 0.7755 0.7755);fill-opacity:1;" />
	<circle cx="34.3733" cy="34.3733" r="34.3733" transform="matrix(-4.37114e-08 -1 -1 4.37114e-08 1394 454.253)" fill="#E8C6C6" style="fill:#E8C6C6;fill:color(display-p3 0.9087 0.7755 0.7755);fill-opacity:1;" />
	<path d="M1388 363.824C1390.67 362.284 1390.67 358.435 1388 356.895L1317.95 316.449C1315.28 314.909 1311.95 316.834 1311.95 319.913L1311.95 400.806C1311.95 403.885 1315.28 405.809 1317.95 404.27L1388 363.824Z" fill="#E8C6C6" style="fill:#E8C6C6;fill:color(display-p3 0.9087 0.7755 0.7755);fill-opacity:1;" />
	<path d="M1381.37 295.732C1385.01 294.513 1385.01 289.365 1381.37 288.147L1367.23 283.412C1365.61 282.87 1364.52 281.361 1364.5 279.655L1364.37 264.747C1364.33 260.909 1359.44 259.318 1357.15 262.403L1348.28 274.385C1347.27 275.756 1345.49 276.332 1343.86 275.82L1329.64 271.341C1325.98 270.187 1322.96 274.352 1325.19 277.478L1333.84 289.618C1334.83 291.007 1334.83 292.872 1333.84 294.261L1325.19 306.401C1322.96 309.527 1325.98 313.692 1329.64 312.538L1343.86 308.059C1345.49 307.547 1347.27 308.123 1348.28 309.494L1357.15 321.476C1359.44 324.561 1364.33 322.97 1364.37 319.132L1364.5 304.224C1364.52 302.518 1365.61 301.009 1367.23 300.467L1381.37 295.732Z" fill="#E8C6C6" style="fill:#E8C6C6;fill:color(display-p3 0.9087 0.7755 0.7755);fill-opacity:1;" />
	<circle cx="1278.63" cy="253.484" r="34.3733" transform="rotate(90 1278.63 253.484)" fill="#E8C6C6" style="fill:#E8C6C6;fill:color(display-p3 0.9087 0.7755 0.7755);fill-opacity:1;" />
	<path d="M1307.01 309.54C1309.67 311.08 1309.67 314.929 1307.01 316.468L1236.95 356.915C1234.28 358.454 1230.95 356.53 1230.95 353.451L1230.95 272.558C1230.95 269.479 1234.28 267.554 1236.95 269.094L1307.01 309.54Z" fill="#E8C6C6" style="fill:#E8C6C6;fill:color(display-p3 0.9087 0.7755 0.7755);fill-opacity:1;" />
	<path d="M1300.37 377.631C1304.01 378.85 1304.01 383.998 1300.37 385.217L1286.24 389.952C1284.62 390.494 1283.52 392.002 1283.51 393.709L1283.37 408.617C1283.34 412.455 1278.44 414.046 1276.16 410.961L1267.29 398.979C1266.27 397.608 1264.5 397.031 1262.87 397.544L1248.65 402.023C1244.99 403.176 1241.96 399.012 1244.19 395.886L1252.85 383.746C1253.84 382.357 1253.84 380.492 1252.85 379.102L1244.19 366.962C1241.96 363.837 1244.99 359.672 1248.65 360.825L1262.87 365.305C1264.5 365.817 1266.27 365.241 1267.29 363.87L1276.16 351.887C1278.44 348.803 1283.34 350.393 1283.37 354.232L1283.51 369.14C1283.52 370.846 1284.62 372.355 1286.24 372.897L1300.37 377.631Z" fill="#E8C6C6" style="fill:#E8C6C6;fill:color(display-p3 0.9087 0.7755 0.7755);fill-opacity:1;" />
	<circle cx="34.3733" cy="34.3733" r="34.3733" transform="matrix(-4.37114e-08 -1 -1 4.37114e-08 1394 239.142)" fill="#E8C6C6" style="fill:#E8C6C6;fill:color(display-p3 0.9087 0.7755 0.7755);fill-opacity:1;" />
	<path d="M1388 148.713C1390.67 147.173 1390.67 143.324 1388 141.785L1317.95 101.338C1315.28 99.7988 1311.95 101.723 1311.95 104.803L1311.95 185.695C1311.95 188.774 1315.28 190.699 1317.95 189.159L1388 148.713Z" fill="#E8C6C6" style="fill:#E8C6C6;fill:color(display-p3 0.9087 0.7755 0.7755);fill-opacity:1;" />
	<path d="M1381.37 80.6218C1385.01 79.4029 1385.01 74.2549 1381.37 73.0359L1367.23 68.3014C1365.61 67.7595 1364.52 66.2508 1364.5 64.5445L1364.37 49.6362C1364.33 45.7981 1359.44 44.2072 1357.15 47.292L1348.28 59.2742C1347.27 60.6456 1345.49 61.2219 1343.86 60.7092L1329.64 56.23C1325.98 55.0768 1322.96 59.2416 1325.19 62.3671L1333.84 74.507C1334.83 75.8965 1334.83 77.7613 1333.84 79.1508L1325.19 91.2907C1322.96 94.4162 1325.98 98.581 1329.64 97.4278L1343.86 92.9486C1345.49 92.4359 1347.27 93.0122 1348.28 94.3836L1357.15 106.366C1359.44 109.451 1364.33 107.86 1364.37 104.022L1364.5 89.1133C1364.52 87.407 1365.61 85.8983 1367.23 85.3564L1381.37 80.6218Z" fill="#E8C6C6" style="fill:#E8C6C6;fill:color(display-p3 0.9087 0.7755 0.7755);fill-opacity:1;" />
	<circle cx="1278.63" cy="38.3733" r="34.3733" transform="rotate(90 1278.63 38.3733)" fill="#E8C6C6" style="fill:#E8C6C6;fill:color(display-p3 0.9087 0.7755 0.7755);fill-opacity:1;" />
	<path d="M1307.01 94.4297C1309.67 95.9693 1309.67 99.8183 1307.01 101.358L1236.95 141.804C1234.28 143.344 1230.95 141.419 1230.95 138.34L1230.95 57.4476C1230.95 54.3683 1234.28 52.4438 1236.95 53.9834L1307.01 94.4297Z" fill="#E8C6C6" style="fill:#E8C6C6;fill:color(display-p3 0.9087 0.7755 0.7755);fill-opacity:1;" />
	<path d="M1300.37 162.521C1304.01 163.74 1304.01 168.888 1300.37 170.107L1286.24 174.841C1284.62 175.383 1283.52 176.892 1283.51 178.598L1283.37 193.506C1283.34 197.344 1278.44 198.935 1276.16 195.851L1267.29 183.868C1266.27 182.497 1264.5 181.921 1262.87 182.433L1248.65 186.913C1244.99 188.066 1241.96 183.901 1244.19 180.775L1252.85 168.636C1253.84 167.246 1253.84 165.381 1252.85 163.992L1244.19 151.852C1241.96 148.726 1244.99 144.562 1248.65 145.715L1262.87 150.194C1264.5 150.707 1266.27 150.13 1267.29 148.759L1276.16 136.777C1278.44 133.692 1283.34 135.283 1283.37 139.121L1283.51 154.029C1283.52 155.736 1284.62 157.244 1286.24 157.786L1300.37 162.521Z" fill="#E8C6C6" style="fill:#E8C6C6;fill:color(display-p3 0.9087 0.7755 0.7755);fill-opacity:1;" />
	<circle cx="1102.37" cy="419.88" r="34.3733" transform="rotate(-90 1102.37 419.88)" fill="#E8C6C6" style="fill:#E8C6C6;fill:color(display-p3 0.9087 0.7755 0.7755);fill-opacity:1;" />
	<path d="M1074 363.824C1071.33 362.284 1071.33 358.435 1074 356.895L1144.05 316.449C1146.72 314.91 1150.05 316.834 1150.05 319.913L1150.05 400.806C1150.05 403.885 1146.72 405.809 1144.05 404.27L1074 363.824Z" fill="#E8C6C6" style="fill:#E8C6C6;fill:color(display-p3 0.9087 0.7755 0.7755);fill-opacity:1;" />
	<path d="M1080.63 295.732C1076.99 294.514 1076.99 289.366 1080.63 288.147L1094.77 283.412C1096.39 282.87 1097.48 281.361 1097.5 279.655L1097.63 264.747C1097.67 260.909 1102.56 259.318 1104.85 262.403L1113.72 274.385C1114.73 275.756 1116.51 276.333 1118.14 275.82L1132.36 271.341C1136.02 270.187 1139.04 274.352 1136.81 277.478L1128.16 289.618C1127.17 291.007 1127.17 292.872 1128.16 294.261L1136.81 306.401C1139.04 309.527 1136.02 313.692 1132.36 312.538L1118.14 308.059C1116.51 307.547 1114.73 308.123 1113.72 309.494L1104.85 321.476C1102.56 324.561 1097.67 322.97 1097.63 319.132L1097.5 304.224C1097.48 302.518 1096.39 301.009 1094.77 300.467L1080.63 295.732Z" fill="#E8C6C6" style="fill:#E8C6C6;fill:color(display-p3 0.9087 0.7755 0.7755);fill-opacity:1;" />
	<circle cx="34.3733" cy="34.3733" r="34.3733" transform="matrix(4.37114e-08 1 1 -4.37114e-08 1148.99 219.111)" fill="#E8C6C6" style="fill:#E8C6C6;fill:color(display-p3 0.9087 0.7755 0.7755);fill-opacity:1;" />
	<path d="M1154.99 309.54C1152.33 311.08 1152.33 314.929 1154.99 316.469L1225.05 356.915C1227.72 358.454 1231.05 356.53 1231.05 353.451L1231.05 272.558C1231.05 269.479 1227.72 267.555 1225.05 269.094L1154.99 309.54Z" fill="#E8C6C6" style="fill:#E8C6C6;fill:color(display-p3 0.9087 0.7755 0.7755);fill-opacity:1;" />
	<path d="M1161.63 377.631C1157.99 378.85 1157.99 383.998 1161.63 385.217L1175.76 389.952C1177.38 390.494 1178.48 392.002 1178.49 393.709L1178.63 408.617C1178.66 412.455 1183.56 414.046 1185.84 410.961L1194.71 398.979C1195.73 397.608 1197.5 397.031 1199.13 397.544L1213.35 402.023C1217.01 403.176 1220.04 399.012 1217.81 395.886L1209.15 383.746C1208.16 382.357 1208.16 380.492 1209.15 379.102L1217.81 366.962C1220.04 363.837 1217.01 359.672 1213.35 360.825L1199.13 365.305C1197.5 365.817 1195.73 365.241 1194.71 363.87L1185.84 351.887C1183.56 348.803 1178.66 350.393 1178.63 354.232L1178.49 369.14C1178.48 370.846 1177.38 372.355 1175.76 372.897L1161.63 377.631Z" fill="#E8C6C6" style="fill:#E8C6C6;fill:color(display-p3 0.9087 0.7755 0.7755);fill-opacity:1;" />
	<circle cx="1102.37" cy="204.769" r="34.3733" transform="rotate(-90 1102.37 204.769)" fill="#E8C6C6" style="fill:#E8C6C6;fill:color(display-p3 0.9087 0.7755 0.7755);fill-opacity:1;" />
	<path d="M1074 148.713C1071.33 147.173 1071.33 143.324 1074 141.785L1144.05 101.339C1146.72 99.7989 1150.05 101.723 1150.05 104.803L1150.05 185.695C1150.05 188.774 1146.72 190.699 1144.05 189.159L1074 148.713Z" fill="#E8C6C6" style="fill:#E8C6C6;fill:color(display-p3 0.9087 0.7755 0.7755);fill-opacity:1;" />
	<path d="M1080.63 80.6219C1076.99 79.403 1076.99 74.2549 1080.63 73.036L1094.77 68.3014C1096.39 67.7595 1097.48 66.2508 1097.5 64.5445L1097.63 49.6363C1097.67 45.7981 1102.56 44.2073 1104.85 47.2921L1113.72 59.2742C1114.73 60.6456 1116.51 61.2219 1118.14 60.7092L1132.36 56.23C1136.02 55.0768 1139.04 59.2417 1136.81 62.3671L1128.16 74.507C1127.17 75.8965 1127.17 77.7614 1128.16 79.1509L1136.81 91.2908C1139.04 94.4162 1136.02 98.5811 1132.36 97.4279L1118.14 92.9487C1116.51 92.436 1114.73 93.0123 1113.72 94.3837L1104.85 106.366C1102.56 109.451 1097.67 107.86 1097.63 104.022L1097.5 89.1134C1097.48 87.4071 1096.39 85.8984 1094.77 85.3565L1080.63 80.6219Z" fill="#E8C6C6" style="fill:#E8C6C6;fill:color(display-p3 0.9087 0.7755 0.7755);fill-opacity:1;" />
	<circle cx="34.3733" cy="34.3733" r="34.3733" transform="matrix(4.37114e-08 1 1 -4.37114e-08 1148.99 4.00012)" fill="#E8C6C6" style="fill:#E8C6C6;fill:color(display-p3 0.9087 0.7755 0.7755);fill-opacity:1;" />
	<path d="M1154.99 94.4297C1152.33 95.9693 1152.33 99.8183 1154.99 101.358L1225.05 141.804C1227.72 143.344 1231.05 141.419 1231.05 138.34L1231.05 57.4475C1231.05 54.3683 1227.72 52.4438 1225.05 53.9834L1154.99 94.4297Z" fill="#E8C6C6" style="fill:#E8C6C6;fill:color(display-p3 0.9087 0.7755 0.7755);fill-opacity:1;" />
	<path d="M1161.63 162.521C1157.99 163.74 1157.99 168.888 1161.63 170.107L1175.76 174.841C1177.38 175.383 1178.48 176.892 1178.49 178.598L1178.63 193.506C1178.66 197.345 1183.56 198.935 1185.84 195.851L1194.71 183.868C1195.73 182.497 1197.5 181.921 1199.13 182.433L1213.35 186.913C1217.01 188.066 1220.04 183.901 1217.81 180.776L1209.15 168.636C1208.16 167.246 1208.16 165.381 1209.15 163.992L1217.81 151.852C1220.04 148.726 1217.01 144.562 1213.35 145.715L1199.13 150.194C1197.5 150.707 1195.73 150.13 1194.71 148.759L1185.84 136.777C1183.56 133.692 1178.66 135.283 1178.63 139.121L1178.49 154.029C1178.48 155.736 1177.38 157.244 1175.76 157.786L1161.63 162.521Z" fill="#E8C6C6" style="fill:#E8C6C6;fill:color(display-p3 0.9087 0.7755 0.7755);fill-opacity:1;" />
</svg>
